<?xml version="1.0" encoding="iso-8859-1"?>
<!-- Generator: Adobe Illustrator 19.0.0, SVG Export Plug-In . SVG Version: 6.00 Build 0)  -->
<svg version="1.1" id="Capa_1" xmlns="http://www.w3.org/2000/svg" xmlns:xlink="http://www.w3.org/1999/xlink" x="0px" y="0px"
	 viewBox="0 0 512.001 512.001" style="enable-background:new 0 0 512.001 512.001;" xml:space="preserve">
<path style="fill:#D9D9D9;" d="M443.271,342.084l-180.4,10.932L100.707,431.01c6.499,23.664,12.717,46.146,18.377,66.566
	l178.333-12.868l162.169-75.523C454.592,388.584,449.093,365.92,443.271,342.084z"/>
<path style="fill:#CCCCCC;" d="M100.707,431.01c6.499,23.664,12.717,46.146,18.377,66.566l30.3-2.187
	c-5.634-20.333-13.557-49.024-19.832-71.867L100.707,431.01z"/>
<path style="fill:#D9D9D9;" d="M475.749,476.337l-77.594-15.744l-59.794,51.408h145.913
	C482.885,506.168,479.919,493.722,475.749,476.337z"/>
<path style="fill:#A18576;" d="M376.442,76.66c-8.269-31.883-36.866-52.05-63.867-45.045c-11.807,3.063-21.36,10.816-27.668,21.249
	c-0.344-2.143-0.788-4.276-1.344-6.429c-8.279-31.883-36.876-52.05-63.876-45.045c-19.925,5.176-33.4,23.715-35.775,45.883
	c-12.848-18.216-33.642-27.859-53.566-22.694c-27,7.016-42.174,38.544-33.904,70.427c0.556,2.143,1.213,4.235,1.951,6.268
	c-10.584-6.035-22.694-8.168-34.501-5.105c-27,7.005-42.184,38.544-33.904,70.427c14.586,57.398,33.793,129.159,52.485,197.807
	l180.4-11.388l163.933-77.994C409.739,205.95,391.615,133.905,376.442,76.66z"/>
<path style="fill:#7A6154;" d="M60.892,166.597c-7.817-30.105,5.29-59.893,29.506-69.02c-8.483-3.065-17.581-3.723-26.508-1.407
	c-27,7.005-42.184,38.544-33.904,70.427c14.586,57.397,33.793,129.159,52.485,197.807l30.383-1.918
	C94.328,294.42,75.343,223.461,60.892,166.597z"/>
<ellipse transform="matrix(-0.2513 -0.9679 0.9679 -0.2513 -65.3938 291.5475)" style="fill:#FABED5;" cx="80.062" cy="171.065" rx="33.913" ry="25.467"/>
<path style="fill:#E6A8BF;" d="M60.892,166.597c-1.6-6.163-2.31-12.309-2.241-18.27c-4.586,7.564-6.071,18.25-3.243,29.145
	c2.435,9.383,7.592,17.072,13.886,21.823C66.361,187.99,63.549,177.054,60.892,166.597z"/>
<path style="fill:#F0F0F0;" d="M443.271,342.084L100.707,431.01c-5.904-21.44-12.05-43.852-18.236-66.606l344.333-89.381
	C432.454,297.919,437.993,320.491,443.271,342.084z"/>
<path style="fill:#D9D9D9;" d="M82.47,364.404c6.186,22.755,12.332,45.165,18.236,66.606l28.845-7.488
	c-5.65-20.553-12.719-46.396-18.215-66.612L82.47,364.404z"/>
<g>
	
		<ellipse transform="matrix(-0.2513 -0.9679 0.9679 -0.2513 86.3598 270.4301)" style="fill:#FABED5;" cx="147.772" cy="101.814" rx="33.913" ry="25.467"/>
	
		<ellipse transform="matrix(0.2513 0.9679 -0.9679 0.2513 253.6318 -170.6193)" style="fill:#FABED5;" cx="237.103" cy="78.637" rx="33.913" ry="25.467"/>
	
		<ellipse transform="matrix(0.2513 0.9679 -0.9679 0.2513 349.8539 -239.8456)" style="fill:#FABED5;" cx="329.962" cy="106.221" rx="33.913" ry="25.467"/>
	<path style="fill:#FABED5;" d="M287.621,166.843c-32.318,8.389-38.935-23.726-76.273-14.034
		c-37.338,9.692-27.499,40.971-59.816,49.36c-25.167,6.532-42.496,55.76-9.627,87.941c32.869,32.182,63.106-3.765,101.518-13.736
		s82.316,6.731,95.382-37.375C351.872,194.893,312.788,160.309,287.621,166.843z"/>
</g>
<path style="fill:#F0F0F0;" d="M338.361,512.001l137.388-35.664c-4.266-17.812-9.795-40.798-16.164-67.152l-340.502,88.391
	c1.368,4.933,2.704,9.743,4.005,14.426H338.361z"/>
<path style="fill:#D9D9D9;" d="M119.084,497.576c1.368,4.931,2.704,9.743,4.005,14.425h30.905
	c-1.301-4.681-4.711-16.977-6.079-21.91L119.084,497.576z"/>
<g>
</g>
<g>
</g>
<g>
</g>
<g>
</g>
<g>
</g>
<g>
</g>
<g>
</g>
<g>
</g>
<g>
</g>
<g>
</g>
<g>
</g>
<g>
</g>
<g>
</g>
<g>
</g>
<g>
</g>
</svg>
