<?xml version="1.0" encoding="iso-8859-1"?>
<!-- Generator: Adobe Illustrator 19.0.0, SVG Export Plug-In . SVG Version: 6.00 Build 0)  -->
<svg version="1.1" id="Capa_1" xmlns="http://www.w3.org/2000/svg" xmlns:xlink="http://www.w3.org/1999/xlink" x="0px" y="0px"
	 viewBox="0 0 512 512" style="enable-background:new 0 0 512 512;" xml:space="preserve">
<path style="fill:#6B554A;" d="M366.175,33.146c51.093-50.127,98.469-33.295,118.037,0c19.568,33.295,1.03,64.193,0,98.18
	c-1.03,33.987,18.538,37.077,18.538,37.077s1.027,37.951-33.989,37.951L366.175,33.146z"/>
<g>
	<path style="fill:#7A6154;" d="M423.535,82.702L246.699,57.671L69.863,82.702c-31.041,37.869-47.922,84.34-48.004,133.332v0.113
		h449.68v-0.113C471.457,167.042,454.576,120.571,423.535,82.702z"/>
	<path style="fill:#7A6154;" d="M365.582,32.638C330.246,11.38,289.368,0,246.699,0s-83.547,11.38-118.883,32.638l118.883,25.032
		C246.699,57.671,372.204,32.638,365.582,32.638z"/>
</g>
<path style="fill:#BCBCBC;" d="M423.535,82.702H69.863c5.675-6.931,11.823-13.575,18.435-19.888
	c12.122-11.576,25.377-21.669,39.518-30.176h237.766c14.14,8.507,27.396,18.6,39.518,30.176
	C411.711,69.127,417.859,75.771,423.535,82.702z"/>
<circle style="fill:#E3E3E3;" cx="246.698" cy="57.671" r="35.017"/>
<circle style="fill:#BCBCBC;" cx="246.698" cy="57.671" r="13.903"/>
<path style="fill:#7EDEE6;" d="M116.831,356.251c-17.761,20.591-38.497,52.8-46.143,96.539c-3.11,17.827-4.048,37.56-1.731,59.21
	h355.588c2.317-21.649,1.38-41.381-1.731-59.21l0,0c-7.652-43.774-28.414-75.999-46.185-96.588L116.831,356.251z"/>
<path style="fill:#77CCD9;" d="M101.594,452.79c7.646-43.739,28.381-75.948,46.143-96.539l228.899-0.042
	c-0.002-0.002-0.003-0.004-0.005-0.005l-259.799,0.047c-17.761,20.592-38.497,52.8-46.143,96.539
	c-3.11,17.827-4.048,37.56-1.731,59.21h30.905C97.546,490.352,98.484,470.619,101.594,452.79z"/>
<path style="fill:#F0F0F0;" d="M314.673,378.234c0,0-5.741,53.619-68.003,87.742c-62.263-34.124-68.003-87.742-68.003-87.742
	H314.673z"/>
<polygon style="fill:#FC7C81;" points="175.163,438.845 155.203,438.845 155.203,418.884 129.201,418.884 129.201,438.845 
	109.24,438.845 109.24,464.848 129.201,464.848 129.201,484.808 155.203,484.808 155.203,464.848 175.163,464.848 "/>
<path style="fill:#E3B098;" d="M435.838,184.07c-21.947,2.313-39.052,20.876-39.052,43.436c0,24.125,19.557,43.682,43.682,43.682
	s43.682-19.557,43.682-43.682c0-22.561-17.104-41.123-39.052-43.436H435.838z"/>
<path style="fill:#FBC4AC;" d="M442.7,215.156c-0.405-57.631-44.098-106.005-101.397-112.202
	c-30.142-3.261-64.482,1.437-94.635,26.519c-30.033-24.983-64.213-29.737-94.261-26.548c-50.113,5.32-90.388,43.495-99.541,93.051
	c-1.333,7.22-2.163,14.112-2.175,20.116c0.197,103.453,87.873,187.261,196.005,187.261s195.809-83.807,196.005-187.261
	C442.703,215.781,442.702,215.469,442.7,215.156z"/>
<path style="fill:#E3B098;" d="M81.599,216.093c0.011-6.004,0.842-12.897,2.175-20.116c9.153-49.557,49.428-87.732,99.541-93.051
	c0.166-0.018,0.334-0.032,0.501-0.048c-10.726-1.192-21.3-1.024-31.406,0.048c-50.113,5.32-90.388,43.494-99.541,93.051
	c-1.333,7.22-2.163,14.112-2.175,20.116c0.197,103.453,87.873,187.261,196.005,187.261c5.201,0,10.353-0.198,15.453-0.579
	C161.241,395.242,81.787,314.57,81.599,216.093z"/>
<path style="fill:#3B484A;" d="M140.211,258.929c-4.268,0-7.726-3.459-7.726-7.726v-20.706c0-4.267,3.458-7.726,7.726-7.726
	s7.726,3.459,7.726,7.726v20.706C147.938,255.47,144.478,258.929,140.211,258.929z"/>
<path style="fill:#F98084;" d="M154.311,289.362H126.11c-4.268,0-7.726-3.459-7.726-7.726c0-4.267,3.458-7.726,7.726-7.726h28.201
	c4.268,0,7.726,3.459,7.726,7.726C162.038,285.903,158.579,289.362,154.311,289.362z"/>
<path style="fill:#3B484A;" d="M353.187,258.929c-4.268,0-7.726-3.459-7.726-7.726v-20.706c0-4.267,3.458-7.726,7.726-7.726
	c4.268,0,7.726,3.459,7.726,7.726v20.706C360.913,255.47,357.455,258.929,353.187,258.929z"/>
<path style="fill:#F98084;" d="M367.287,289.362h-28.201c-4.268,0-7.726-3.459-7.726-7.726c0-4.267,3.458-7.726,7.726-7.726h28.201
	c4.268,0,7.726,3.459,7.726,7.726C375.013,285.903,371.555,289.362,367.287,289.362z"/>
<path style="fill:#3B484A;" d="M246.699,288.193c-9.652,0-18.714-4.034-24.863-11.068c-2.809-3.213-2.481-8.093,0.731-10.902
	c3.213-2.809,8.094-2.481,10.902,0.731c3.214,3.677,8.036,5.786,13.23,5.786c5.193,0,10.015-2.109,13.23-5.786
	c2.808-3.213,7.689-3.542,10.902-0.731c3.212,2.808,3.541,7.689,0.731,10.902C265.413,284.159,256.351,288.193,246.699,288.193z"/>
<path style="fill:#E3B098;" d="M57.56,184.07c21.947,2.313,12.303,20.998,12.303,43.559c0,24.125,7.191,43.559-16.934,43.559
	S9.246,251.63,9.246,227.505c0-22.561,17.104-41.123,39.052-43.436H57.56z"/>
<g>
</g>
<g>
</g>
<g>
</g>
<g>
</g>
<g>
</g>
<g>
</g>
<g>
</g>
<g>
</g>
<g>
</g>
<g>
</g>
<g>
</g>
<g>
</g>
<g>
</g>
<g>
</g>
<g>
</g>
</svg>
