<?xml version="1.0" encoding="iso-8859-1"?>
<!-- Generator: Adobe Illustrator 19.0.0, SVG Export Plug-In . SVG Version: 6.00 Build 0)  -->
<svg version="1.1" id="Capa_1" xmlns="http://www.w3.org/2000/svg" xmlns:xlink="http://www.w3.org/1999/xlink" x="0px" y="0px"
	 viewBox="0 0 512 512" style="enable-background:new 0 0 512 512;" xml:space="preserve">
<g>
	<path style="fill:#FAA330;" d="M283.254,95.529C298.105,67.627,303.011,19.741,256,19.741s-42.105,47.886-27.253,75.788H283.254z"
		/>
	<path style="fill:#FAA330;" d="M433.298,218.966c38.556-64.359,119.881-29.795,53.464,35.265c29.82,0,34.564,43.374-1.356,43.374
		c27.108,29.142-15.515,79.805-49.436,33.803L433.298,218.966z"/>
</g>
<g>
	<path style="fill:#E0922B;" d="M427.809,272.068c-2.514,0-4.978-1.225-6.462-3.482c-2.345-3.564-1.355-8.356,2.21-10.7
		c9.495-6.247,36.024-25.374,44.641-38.688c2.318-3.583,7.103-4.608,10.684-2.289c3.583,2.318,4.607,7.102,2.289,10.684
		c-12.147,18.77-47.619,42.216-49.123,43.205C430.738,271.657,429.264,272.068,427.809,272.068z"/>
	<path style="fill:#E0922B;" d="M429.978,296.521c-0.094,0-0.162,0-0.2,0c-4.267-0.031-7.702-3.515-7.671-7.782
		c0.031-4.248,3.484-7.671,7.725-7.671c0.022,0,0.016,0,0.072,0c0.906,0,26.203-0.113,43.522-10.057
		c3.7-2.124,8.423-0.847,10.547,2.855c2.124,3.7,0.847,8.423-2.855,10.547C460.576,296.207,432.836,296.521,429.978,296.521z"/>
</g>
<path style="fill:#FAA330;" d="M78.703,218.966c-38.556-64.359-119.881-29.795-53.465,35.265c-29.82,0-34.564,43.374,1.356,43.374
	c-27.108,29.142,15.515,79.805,49.436,33.803L78.703,218.966z"/>
<g>
	<path style="fill:#E0922B;" d="M84.193,272.068c-1.457,0-2.93-0.411-4.237-1.271c-1.504-0.989-36.977-24.435-49.123-43.205
		c-2.318-3.583-1.294-8.366,2.289-10.684c3.582-2.318,8.366-1.294,10.684,2.289c8.629,13.335,35.149,32.449,44.639,38.687
		c3.565,2.345,4.555,7.135,2.212,10.7C89.172,270.843,86.706,272.068,84.193,272.068z"/>
	<path style="fill:#E0922B;" d="M82.022,296.521c-2.855,0-30.596-0.313-51.142-12.108c-3.7-2.124-4.979-6.847-2.855-10.547
		c2.124-3.7,6.848-4.979,10.547-2.855c17.558,10.079,43.32,10.069,43.546,10.057c0.013,0,0.028,0,0.041,0
		c4.245,0,7.703,3.428,7.729,7.679c0.027,4.264-3.403,7.743-7.667,7.774C82.183,296.521,82.116,296.521,82.022,296.521z"/>
</g>
<path style="fill:#FAA330;" d="M271.927,413.499c-9.478,24.954-24.373,49.458-47.198,64.257
	c-14.851,9.629-34.357,15.398-52.084,14.391c-24.623-1.399-27.723-17.748-41.065-34.416c-11.454-14.308-30.564-14.993-47.18-18.144
	c-16.783-3.182-27.955-20.952-18.32-36.959c13.529-22.478,52.076-16.248,72.723-12.185L271.927,413.499z"/>
<g>
	<path style="fill:#E0922B;" d="M195.349,461.205c-2.278,0-4.533-1.002-6.058-2.926c-2.652-3.343-2.09-8.202,1.253-10.855
		c17.387-13.789,24.352-37.262,24.42-37.498c1.187-4.093,5.468-6.458,9.562-5.279c4.095,1.181,6.463,5.447,5.291,9.544
		c-0.33,1.152-8.319,28.405-29.671,45.34C198.725,460.659,197.032,461.205,195.349,461.205z"/>
	<path style="fill:#E0922B;" d="M140.444,435.454c-3.504,0-6.677-2.399-7.514-5.959c-0.978-4.154,1.598-8.314,5.751-9.291
		c20.44-4.809,36.248-20.934,36.405-21.097c2.967-3.061,7.855-3.147,10.921-0.188c3.066,2.96,3.161,7.838,0.207,10.91
		c-0.765,0.795-19.018,19.54-43.993,25.417C141.624,435.387,141.029,435.454,140.444,435.454z"/>
</g>
<path style="fill:#FFBA4D;" d="M255.999,413.917c39.98,0,79.961-7.824,117.198-23.474c44.345-18.637,67.244-46.754,69.801-95.678
	C448.803,183.683,369.823,88.868,256,88.868S63.198,183.683,69.003,294.765c2.557,48.924,25.456,77.04,69.801,95.678
	C176.039,406.092,216.018,413.917,255.999,413.917z"/>
<g>
	<path style="fill:#3B484A;" d="M165.267,288.488c-4.267,0-7.726-3.459-7.726-7.726v-16.421c0-4.267,3.459-7.726,7.726-7.726
		s7.726,3.459,7.726,7.726v16.421C172.993,285.029,169.534,288.488,165.267,288.488z"/>
	<path style="fill:#3B484A;" d="M346.734,288.488c-4.267,0-7.726-3.459-7.726-7.726v-16.421c0-4.267,3.459-7.726,7.726-7.726
		c4.267,0,7.726,3.459,7.726,7.726v16.421C354.46,285.029,351.001,288.488,346.734,288.488z"/>
	<path style="fill:#3B484A;" d="M256,297.254c-10.957,0-21.24-4.574-28.212-12.55c-2.808-3.213-2.481-8.094,0.732-10.902
		s8.094-2.481,10.902,0.732c4.036,4.618,10.079,7.267,16.577,7.267c6.497,0,12.54-2.649,16.578-7.267
		c2.807-3.213,7.689-3.542,10.902-0.731c3.213,2.808,3.541,7.689,0.731,10.902C277.241,292.68,266.957,297.254,256,297.254z"/>
</g>
<g>
	<path style="fill:#FAA330;" d="M131.789,354.602c-1.134,0-2.286-0.25-3.374-0.78c-16.141-7.851-24.971-20.669-26.577-23.158
		c-2.313-3.586-1.282-8.368,2.305-10.681c3.586-2.311,8.368-1.281,10.681,2.305c0.745,1.155,7.643,11.459,20.349,17.639
		c3.837,1.867,5.435,6.49,3.569,10.328C137.406,353.003,134.653,354.602,131.789,354.602z"/>
	<path style="fill:#FAA330;" d="M145.25,333.786c-1.134,0-2.286-0.25-3.374-0.78c-13.415-6.526-20.72-17.685-21.025-18.157
		c-2.314-3.585-1.282-8.368,2.303-10.681c3.575-2.307,8.341-1.288,10.661,2.274c0.094,0.141,5.446,8.109,14.819,12.669
		c3.837,1.867,5.434,6.49,3.568,10.328C150.865,332.188,148.113,333.786,145.25,333.786z"/>
	<path style="fill:#FAA330;" d="M380.212,354.602c-2.865,0-5.617-1.599-6.954-4.348c-1.867-3.837-0.269-8.461,3.569-10.328
		c12.704-6.179,19.605-16.485,20.351-17.64c2.314-3.586,7.097-4.616,10.681-2.302c3.585,2.314,4.616,7.096,2.302,10.681
		c-1.607,2.49-10.439,15.308-26.576,23.157C382.497,354.352,381.346,354.602,380.212,354.602z"/>
	<path style="fill:#FAA330;" d="M366.751,333.786c-2.864,0-5.617-1.599-6.954-4.348c-1.867-3.837-0.27-8.461,3.568-10.328
		c9.422-4.583,14.748-12.559,14.8-12.639c2.314-3.586,7.097-4.616,10.681-2.303c3.585,2.314,4.617,7.096,2.303,10.681
		c-0.304,0.472-7.61,11.631-21.025,18.157C369.037,333.536,367.885,333.786,366.751,333.786z"/>
</g>
<circle style="fill:#7EDEE6;" cx="427.804" cy="117.616" r="22.084"/>
<circle style="fill:#CBFDFF;" cx="396.867" cy="64.469" r="16.658"/>
<circle style="fill:#7EDEE6;" cx="451.24" cy="36.407" r="16.658"/>
<g>
</g>
<g>
</g>
<g>
</g>
<g>
</g>
<g>
</g>
<g>
</g>
<g>
</g>
<g>
</g>
<g>
</g>
<g>
</g>
<g>
</g>
<g>
</g>
<g>
</g>
<g>
</g>
<g>
</g>
</svg>
