<?xml version="1.0" encoding="iso-8859-1"?>
<!-- Generator: Adobe Illustrator 19.0.0, SVG Export Plug-In . SVG Version: 6.00 Build 0)  -->
<svg version="1.1" id="Capa_1" xmlns="http://www.w3.org/2000/svg" xmlns:xlink="http://www.w3.org/1999/xlink" x="0px" y="0px"
	 viewBox="0 0 512 512" style="enable-background:new 0 0 512 512;" xml:space="preserve">
<polygon style="fill:#7EDEE6;" points="256,52.5 212.59,75 212.59,106.19 256,121 299.41,106.19 299.41,75 "/>
<polygon style="fill:#77CCD9;" points="233.194,106.19 233.194,75 266.302,57.84 256,52.5 212.59,75 212.59,106.19 256,121 
	266.302,117.485 "/>
<path style="fill:#F0F0F0;" d="M299.41,21.54V75h-86.82V21.54C212.59,9.64,222.23,0,234.13,0h43.74
	C289.77,0,299.41,9.64,299.41,21.54z"/>
<path style="fill:#D9D9D9;" d="M254.734,0H234.13c-11.9,0-21.54,9.64-21.54,21.54V75h20.604V21.54C233.194,9.64,242.833,0,254.734,0
	z"/>
<ellipse style="fill:#3B484A;" cx="256" cy="37.5" rx="9" ry="13.495"/>
<path style="fill:#7EDEE6;" d="M350.859,177.166l-28.814-16.686L256,121l-66.044,39.481l-28.814,16.686
	c-26.642,15.428-43.044,43.882-43.044,74.668v215.082c0,24.9,20.185,45.084,45.084,45.084h185.637
	c24.899,0,45.084-20.185,45.084-45.084V251.834C393.903,221.048,377.5,192.594,350.859,177.166z"/>
<path style="fill:#77CCD9;" d="M138.702,466.916V251.834c0-30.786,16.403-59.24,43.044-74.668l28.814-16.686l55.742-33.322L256,121
	l-66.044,39.481l-28.814,16.686c-26.642,15.428-43.044,43.882-43.044,74.668v215.082c0,24.899,20.185,45.084,45.084,45.084h20.604
	C158.886,512,138.702,491.816,138.702,466.916z"/>
<path style="fill:#CBFDFF;" d="M299.413,106.188h-86.826c-12.499,0-22.631,10.133-22.631,22.631v31.662h132.089v-31.662
	C322.044,116.32,311.912,106.188,299.413,106.188z"/>
<path style="fill:#7EDEE6;" d="M233.191,106.187h-20.604c-12.499,0-22.631,10.133-22.631,22.632v31.662h20.604v-31.662
	C210.56,116.32,220.692,106.187,233.191,106.187z"/>
<path style="fill:#F0F0F0;" d="M358.865,249.885c-0.914-23.839-21.082-42.43-44.938-42.43H198.072
	c-23.856,0-44.024,18.591-44.938,42.43c-0.025,0.648-0.037,1.298-0.037,1.949v215.082c0,5.569,4.515,10.084,10.084,10.084h185.638
	c5.569,0,10.084-4.515,10.084-10.084V251.834C358.903,251.182,358.89,250.533,358.865,249.885z"/>
<g>
	<path style="fill:#7A6154;" d="M278.662,293.326c-1.57,0-3.155-0.477-4.526-1.469c-3.45-2.498-4.227-7.316-1.74-10.771
		c1.908-2.683,3.484-6.615,3.182-7.943c-0.946-4.161,1.661-8.301,5.822-9.247c4.164-0.944,8.301,1.661,9.247,5.822
		c2.06,9.064-4.404,18.594-5.721,20.412C283.416,292.217,281.056,293.326,278.662,293.326z"/>
	<path style="fill:#7A6154;" d="M233.337,293.326c-2.394,0-4.753-1.108-6.265-3.196c-1.317-1.818-7.781-11.348-5.721-20.411
		c0.946-4.161,5.088-6.768,9.247-5.822c4.161,0.946,6.767,5.085,5.822,9.247c-0.325,1.429,1.502,5.622,3.169,7.924
		c2.502,3.456,1.73,8.287-1.727,10.789C236.493,292.849,234.908,293.326,233.337,293.326z"/>
</g>
<g>
	<path style="fill:#6B554A;" d="M211.08,338.745c-4.195,0-16.446-0.769-24.039-9.225c-3.39-3.776-7.067-10.554-5.337-21.403
		c0.672-4.214,4.633-7.089,8.846-6.414c4.214,0.672,7.086,4.633,6.414,8.846c-0.929,5.829,0.94,7.93,1.554,8.622
		c3.252,3.659,10.755,4.209,13.131,4.11c4.25-0.148,7.858,3.119,8.051,7.367c0.194,4.247-3.061,7.853-7.307,8.067
		C212.17,338.728,211.719,338.745,211.08,338.745z"/>
	<path style="fill:#6B554A;" d="M189.458,381.631c-5.021,0-12.017-1.744-18.836-9.264c-2.866-3.162-2.627-8.048,0.534-10.914
		c3.162-2.866,8.048-2.626,10.914,0.534c3.981,4.39,6.804,4.232,7.73,4.183c5.061-0.281,10.253-6.096,11.367-7.637
		c2.498-3.458,7.328-4.238,10.787-1.739c3.459,2.498,4.238,7.328,1.739,10.787c-0.981,1.358-9.963,13.291-23.036,14.017
		C190.271,381.618,189.871,381.631,189.458,381.631z"/>
	<path style="fill:#6B554A;" d="M202.156,424.609c-3.671,0-6.926-2.626-7.597-6.365c-1.938-10.815,1.609-17.662,4.926-21.502
		c8.559-9.908,23.495-9.735,25.168-9.681c4.265,0.134,7.614,3.699,7.48,7.964c-0.133,4.255-3.668,7.586-7.933,7.481
		c-2.381-0.055-9.865,0.646-13.043,4.363c-0.601,0.703-2.428,2.839-1.388,8.649c0.752,4.2-2.042,8.216-6.243,8.968
		C203.066,424.569,202.608,424.609,202.156,424.609z"/>
	<path style="fill:#6B554A;" d="M300.919,338.745c-0.639,0-1.09-0.018-1.31-0.029c-4.262-0.215-7.541-3.846-7.326-8.108
		c0.215-4.249,3.842-7.519,8.073-7.328c2.382,0.101,9.877-0.454,13.128-4.11c0.614-0.691,2.483-2.793,1.554-8.622
		c-0.672-4.213,2.199-8.174,6.414-8.846c4.212-0.675,8.174,2.199,8.846,6.414c1.73,10.85-1.948,17.627-5.338,21.403
		C317.366,337.977,305.116,338.745,300.919,338.745z"/>
	<path style="fill:#6B554A;" d="M322.542,381.631c-0.413,0-0.814-0.012-1.199-0.034c-13.073-0.726-22.055-12.659-23.036-14.017
		c-2.499-3.459-1.72-8.289,1.739-10.787c3.45-2.493,8.265-1.725,10.768,1.713c1.415,1.915,6.536,7.417,11.42,7.664
		c0.926,0.048,3.731,0.19,7.697-4.184c2.867-3.161,7.752-3.401,10.914-0.534c3.161,2.867,3.4,7.752,0.534,10.914
		C334.56,379.885,327.564,381.631,322.542,381.631z"/>
	<path style="fill:#6B554A;" d="M309.844,424.609c-0.452,0-0.911-0.04-1.372-0.123c-4.2-0.752-6.995-4.768-6.243-8.968
		c1.04-5.809-0.787-7.947-1.388-8.649c-3.18-3.72-10.665-4.423-13.049-4.362c-4.229,0.053-7.796-3.27-7.909-7.52
		s3.211-7.792,7.462-7.925c1.678-0.053,16.61-0.227,25.168,9.681c3.317,3.839,6.864,10.687,4.926,21.502
		C316.77,421.983,313.515,424.609,309.844,424.609z"/>
</g>
<path style="fill:#886A5E;" d="M313.673,338.16c7.517,30.17-6.812,75.007-57.673,75.007s-65.19-44.838-57.673-75.007H313.673z"/>
<path style="fill:#7A6154;" d="M313.673,338.16c-8.829,14.085-31.326,24.097-57.673,24.097s-48.844-10.012-57.673-24.097
	c3.812-15.296,13.235-26.82,26.363-26.82h62.617C300.438,311.34,309.861,322.864,313.673,338.16z"/>
<path style="fill:#886A5E;" d="M256,324.9c23.907,0,33.063-10.851,33.063-10.851c5.765-16.956-6.104-37.302-33.063-37.302
	c-26.959,0-38.828,20.346-33.063,37.302C222.937,314.048,232.093,324.9,256,324.9z"/>
<g>
</g>
<g>
</g>
<g>
</g>
<g>
</g>
<g>
</g>
<g>
</g>
<g>
</g>
<g>
</g>
<g>
</g>
<g>
</g>
<g>
</g>
<g>
</g>
<g>
</g>
<g>
</g>
<g>
</g>
</svg>
