<?xml version="1.0" encoding="iso-8859-1"?>
<!-- Generator: Adobe Illustrator 19.0.0, SVG Export Plug-In . SVG Version: 6.00 Build 0)  -->
<svg version="1.1" id="Capa_1" xmlns="http://www.w3.org/2000/svg" xmlns:xlink="http://www.w3.org/1999/xlink" x="0px" y="0px"
	 viewBox="0 0 512 512" style="enable-background:new 0 0 512 512;" xml:space="preserve">
<path style="fill:#CBFDFF;" d="M306,302.937V50c0-27.614-22.386-50-50-50l0,0c-27.614,0-50,22.386-50,50v35.774l6.252,7.726
	L206,101.227v18.547l6.252,7.726L206,135.227v18.547l6.252,7.726L206,169.227v18.547l6.252,7.726L206,203.227v18.547l6.252,7.726
	L206,237.227v18.547l6.252,7.726L206,271.227v31.711c-35.901,18.249-60.5,55.532-60.5,98.564C145.5,462.528,194.972,512,256,512
	s110.5-49.472,110.5-110.5C366.5,358.469,341.902,321.186,306,302.937z"/>
<path style="fill:#FC7C81;" d="M274,325.835V68.964c0-9.941-8.059-18-18-18s-18,8.059-18,18v256.869
	c-34.275,8.124-59.782,38.907-59.782,75.666c0,42.958,34.824,77.782,77.782,77.782s77.782-34.824,77.782-77.782
	C333.782,364.741,308.274,333.959,274,325.835z"/>
<g>
	<path style="fill:#3B484A;" d="M211.246,411.114c-4.268,0-7.726-3.459-7.726-7.726v-8.099c0-4.267,3.458-7.726,7.726-7.726
		c4.268,0,7.726,3.459,7.726,7.726v8.099C218.972,407.655,215.514,411.114,211.246,411.114z"/>
	<path style="fill:#3B484A;" d="M300.754,411.114c-4.268,0-7.726-3.459-7.726-7.726v-8.099c0-4.267,3.458-7.726,7.726-7.726
		c4.268,0,7.726,3.459,7.726,7.726v8.099C308.48,407.655,305.022,411.114,300.754,411.114z"/>
	<path style="fill:#3B484A;" d="M256,415.438c-6.535,0-12.682-2.744-16.863-7.529c-2.808-3.213-2.48-8.094,0.734-10.902
		s8.093-2.48,10.902,0.732c1.247,1.427,3.152,2.245,5.227,2.245c2.075,0,3.982-0.818,5.229-2.246
		c2.808-3.212,7.688-3.541,10.902-0.731c3.212,2.809,3.541,7.69,0.731,10.902C268.679,412.694,262.534,415.438,256,415.438z"/>
</g>
<g>
	<path style="fill:#77CCD9;" d="M206,85.774h47c4.268,0,7.726,3.459,7.726,7.726c0,4.267-3.458,7.726-7.726,7.726h-47V85.774z"/>
	<path style="fill:#77CCD9;" d="M206,119.774h47c4.268,0,7.726,3.459,7.726,7.726s-3.458,7.726-7.726,7.726h-47V119.774z"/>
	<path style="fill:#77CCD9;" d="M206,153.774h47c4.268,0,7.726,3.459,7.726,7.726c0,4.267-3.458,7.726-7.726,7.726h-47V153.774z"/>
	<path style="fill:#77CCD9;" d="M206,187.773h47c4.268,0,7.726,3.459,7.726,7.726c0,4.267-3.458,7.726-7.726,7.726h-47V187.773z"/>
	<path style="fill:#77CCD9;" d="M206,221.773h47c4.268,0,7.726,3.459,7.726,7.726c0,4.267-3.458,7.726-7.726,7.726h-47V221.773z"/>
	<path style="fill:#77CCD9;" d="M206,255.773h47c4.268,0,7.726,3.459,7.726,7.726c0,4.267-3.458,7.726-7.726,7.726h-47V255.773z"/>
</g>
<g>
</g>
<g>
</g>
<g>
</g>
<g>
</g>
<g>
</g>
<g>
</g>
<g>
</g>
<g>
</g>
<g>
</g>
<g>
</g>
<g>
</g>
<g>
</g>
<g>
</g>
<g>
</g>
<g>
</g>
</svg>
