<?xml version="1.0" encoding="iso-8859-1"?>
<!-- Generator: Adobe Illustrator 19.0.0, SVG Export Plug-In . SVG Version: 6.00 Build 0)  -->
<svg version="1.1" id="Capa_1" xmlns="http://www.w3.org/2000/svg" xmlns:xlink="http://www.w3.org/1999/xlink" x="0px" y="0px"
	 viewBox="0 0 511.999 511.999" style="enable-background:new 0 0 511.999 511.999;" xml:space="preserve">
<g>
	<path style="fill:#80A878;" d="M319.694,134.683c46.884-29.211,70.003-109.921-0.334-131.17s-95.772,58.76-72.905,109.044
		l28.124,39.185L319.694,134.683z"/>
	<path style="fill:#80A878;" d="M377.316,192.305c29.211-46.884,109.921-70.003,131.17,0.334
		c21.248,70.337-58.76,95.773-109.044,72.905l-39.185-28.124L377.316,192.305z"/>
</g>
<g>
	<path style="fill:#A2D497;" d="M274.582,159.469c-0.741,0-1.493-0.107-2.238-0.332c-4.085-1.234-6.395-5.545-5.162-9.631
		l29.678-98.237c1.234-4.085,5.553-6.394,9.631-5.162c4.085,1.234,6.395,5.545,5.162,9.631l-29.678,98.237
		C280.967,157.316,277.9,159.469,274.582,159.469z"/>
	<path style="fill:#A2D497;" d="M360.254,245.149c-3.318,0-6.384-2.154-7.394-5.494c-1.233-4.085,1.078-8.396,5.162-9.631
		l98.237-29.678c4.085-1.235,8.397,1.078,9.631,5.162c1.234,4.085-1.078,8.396-5.162,9.631l-98.237,29.678
		C361.748,245.041,360.994,245.149,360.254,245.149z"/>
	<path style="fill:#A2D497;" d="M382.792,183.307c55.122-3.598,113.625-63.815,61.67-115.77s-112.171,6.549-115.77,61.67
		l6.277,47.822L382.792,183.307z"/>
</g>
<path style="fill:#80A878;" d="M334.969,184.755c-1.977,0-3.955-0.754-5.464-2.263c-3.017-3.017-3.017-7.91,0-10.926l72.565-72.565
	c3.018-3.017,7.91-3.017,10.927,0c3.017,3.017,3.017,7.91,0,10.926l-72.565,72.565C338.924,184.001,336.946,184.755,334.969,184.755
	z"/>
<path style="fill:#FAA330;" d="M358.586,153.413C216.041,10.869-21.177,207.189,1.517,479.047
	c1.418,16.987,14.448,30.017,31.435,31.435C304.81,533.176,501.13,295.958,358.586,153.413z"/>
<path style="fill:#E0922B;" d="M358.586,153.413c-5.323-5.323-10.781-10.164-16.35-14.555
	C455.447,282.41,263.752,501.424,2.047,479.577c-0.161-0.013-0.319-0.035-0.479-0.051c1.622,16.751,14.559,29.552,31.384,30.956
	C304.81,533.177,501.13,295.958,358.586,153.413z"/>
<g>
	<path style="fill:#3B484A;" d="M165.379,254.026c-1.977,0-3.955-0.754-5.464-2.263c-3.017-3.017-3.017-7.91,0-10.926l9.079-9.079
		c3.018-3.017,7.91-3.017,10.927,0c3.017,3.017,3.017,7.91,0,10.926l-9.079,9.079C169.334,253.27,167.356,254.026,165.379,254.026z"
		/>
	<path style="fill:#3B484A;" d="M265.7,354.346c-1.978,0-3.955-0.754-5.464-2.263c-3.017-3.017-3.017-7.91,0.001-10.926l9.079-9.078
		c3.017-3.017,7.91-3.017,10.926,0c3.016,3.017,3.017,7.91-0.001,10.926l-9.079,9.078
		C269.655,353.592,267.677,354.346,265.7,354.346z"/>
	<path style="fill:#3B484A;" d="M227.091,315.983c-8.067,0-15.941-3.297-21.859-9.214c-6.402-6.403-9.736-15.091-9.149-23.839
		c0.286-4.258,3.947-7.485,8.227-7.191c4.258,0.285,7.477,3.969,7.191,8.226c-0.288,4.299,1.408,8.628,4.657,11.877
		c3.247,3.248,7.575,4.94,11.876,4.657c4.253-0.297,7.941,2.934,8.227,7.191c0.285,4.258-2.934,7.941-7.191,8.226
		C228.409,315.961,227.749,315.983,227.091,315.983z"/>
</g>
<g>
</g>
<g>
</g>
<g>
</g>
<g>
</g>
<g>
</g>
<g>
</g>
<g>
</g>
<g>
</g>
<g>
</g>
<g>
</g>
<g>
</g>
<g>
</g>
<g>
</g>
<g>
</g>
<g>
</g>
</svg>
