<?xml version="1.0" encoding="iso-8859-1"?>
<!-- Generator: Adobe Illustrator 19.0.0, SVG Export Plug-In . SVG Version: 6.00 Build 0)  -->
<svg version="1.1" id="Capa_1" xmlns="http://www.w3.org/2000/svg" xmlns:xlink="http://www.w3.org/1999/xlink" x="0px" y="0px"
	 viewBox="0 0 512 512" style="enable-background:new 0 0 512 512;" xml:space="preserve">
<polygon style="fill:#77CCD9;" points="371.97,428.957 371.969,428.957 371.969,368.958 328.486,368.958 260.491,327.338 
	184.751,368.958 140.031,368.958 140.031,398.958 106,460.973 140.031,502.974 371.969,502.974 371.969,502.974 371.97,502.974 
	400,470.966 "/>
<g>
	<path style="fill:#CC811F;" d="M153.024,292.129c-0.971-2.4-4.416-2.325-5.291,0.111c-4.695,13.083-9.947,38.714,15.317,49.506
		l7.305-34.032C160.011,304.428,155.231,297.582,153.024,292.129z"/>
	<path style="fill:#CC811F;" d="M323.02,327.338v-89.08h-42.471V347.85c0,11.658-4.887,21.107,6.77,21.107h41.166
		c9.983,0,18.077-8.093,18.077-18.077l0,0C346.562,337.878,336.022,327.338,323.02,327.338z"/>
</g>
<path style="fill:#FAA330;" d="M100.01,9.1c-10.663,0.299-19.23,8.876-19.458,19.542c-2.09,97.926,87.993,139.575,87.993,139.575
	L217.275,48.47C217.274,48.47,173.799,7.031,100.01,9.1z"/>
<path style="fill:#E0922B;" d="M135.757,146.269c17.689,14.962,32.787,21.948,32.787,21.948L217.275,48.47
	c0,0-9.36-8.916-26.756-18.27C157.208,57.947,135.925,99.665,135.757,146.269z"/>
<path style="fill:#FFE182;" d="M129.283,47.918c-5.605-0.49-10.218,4.343-9.529,9.928c3.113,25.237,14.258,47.98,33.262,67.799
	c4.584,4.78,12.54,11.203,16.926,14.771l27.746-70.096C184.23,62.125,159.572,50.57,129.283,47.918z"/>
<path style="fill:#FAA330;" d="M474.987,9.1c10.663,0.299,19.23,8.876,19.458,19.542c2.09,97.926-87.993,139.575-87.993,139.575
	L357.722,48.47C357.722,48.47,401.199,7.031,474.987,9.1z"/>
<path style="fill:#FFE182;" d="M445.714,47.918c5.605-0.49,10.218,4.343,9.529,9.928c-3.113,25.237-14.258,47.98-33.262,67.799
	c-4.584,4.78-12.54,11.203-16.926,14.771l-27.746-70.096C390.766,62.125,415.425,50.57,445.714,47.918z"/>
<g>
	<path style="fill:#E0922B;" d="M281.854,327.338c0,0,34.504-25.497,41.066-64.955l-20.534-37.305l-52.127,14.928l-13.706,58.928
		L281.854,327.338z"/>
	<path style="fill:#E0922B;" d="M223.934,249.605c0,0-64.851,35.134-60.715,99.273c0.729,11.311,10.197,20.08,21.532,20.08h75.739
		V246.472L223.934,249.605z"/>
</g>
<path style="fill:#CC811F;" d="M250.263,335.065c-2.13,0-4.251-0.876-5.777-2.593c-0.258-0.286-15.722-17.28-37.252-21.267
	c-4.196-0.777-6.967-4.808-6.19-9.004s4.802-6.968,9.004-6.19c26.947,4.99,45.231,25.34,45.997,26.205
	c2.83,3.195,2.533,8.078-0.661,10.907C253.913,334.424,252.084,335.065,250.263,335.065z"/>
<path style="fill:#FAA330;" d="M281.854,327.338v-89.08h-42.471V347.85c0,11.658,9.45,21.107,21.107,21.107h26.829
	c9.984,0,18.077-8.093,18.077-18.077l0,0C305.396,337.878,294.856,327.338,281.854,327.338z"/>
<path style="fill:#E6CB75;" d="M166.178,55.771c-12.038,15.999-20.982,34.446-25.954,54.446c3.769,5.322,8.034,10.467,12.792,15.428
	c4.584,4.78,12.54,11.203,16.926,14.771l27.746-70.096C190.275,65.806,179.458,60.274,166.178,55.771z"/>
<path style="fill:#E0922B;" d="M439.239,146.269c-17.689,14.962-32.787,21.948-32.787,21.948L357.722,48.47
	c0,0,9.36-8.916,26.756-18.27C417.79,57.947,439.071,99.665,439.239,146.269z"/>
<path style="fill:#E6CB75;" d="M408.818,55.771c12.038,15.999,20.982,34.446,25.954,54.446c-3.769,5.322-8.034,10.467-12.792,15.428
	c-4.584,4.78-12.54,11.203-16.926,14.771l-27.746-70.096C384.721,65.806,395.539,60.274,408.818,55.771z"/>
<circle style="fill:#FFBA4D;" cx="287.503" cy="146.821" r="120.84"/>
<g>
	<path style="fill:#3B484A;" d="M232.29,175.943c-4.267,0-7.726-3.459-7.726-7.726v-9.992c0-4.267,3.459-7.726,7.726-7.726
		s7.726,3.459,7.726,7.726v9.992C240.017,172.484,236.558,175.943,232.29,175.943z"/>
	<path style="fill:#3B484A;" d="M342.706,175.943c-4.267,0-7.726-3.459-7.726-7.726v-9.992c0-4.267,3.459-7.726,7.726-7.726
		c4.267,0,7.726,3.459,7.726,7.726v9.992C350.433,172.484,346.973,175.943,342.706,175.943z"/>
	<path style="fill:#3B484A;" d="M300.606,162.82h-26.214c-5.208,0-6.665,7.132-1.883,9.192c4.556,1.964,9.635,3.059,14.99,3.059
		c5.355,0,10.433-1.096,14.99-3.059C307.271,169.952,305.813,162.82,300.606,162.82z"/>
	<path style="fill:#3B484A;" d="M317.015,181.147c-3.213-2.807-8.092-2.48-10.902,0.733c-1.534,1.755-3.866,2.763-6.397,2.763
		s-4.863-1.008-6.398-2.763c-0.025-0.029-0.053-0.053-0.078-0.08c-2.906-3.229-8.13-3.371-11.199-0.289
		c-0.095,0.095-0.191,0.19-0.279,0.288c-0.026,0.028-0.054,0.053-0.078,0.081c-1.535,1.756-3.866,2.763-6.398,2.763
		s-4.865-1.008-6.398-2.763c-2.809-3.214-7.69-3.542-10.902-0.732c-3.213,2.808-3.542,7.689-0.732,10.902
		c4.469,5.114,11.043,8.047,18.033,8.047c4.373,0,8.582-1.148,12.216-3.259c3.633,2.111,7.843,3.259,12.216,3.259
		c6.992,0,13.564-2.933,18.033-8.048C320.556,188.836,320.228,183.955,317.015,181.147z"/>
</g>
<rect y="398.958" style="fill:#FC7C81;" width="140.033" height="104.017"/>
<rect x="371.967" y="428.956" style="fill:#A2D497;" width="140.033" height="74.016"/>
<rect x="108.911" y="398.958" style="fill:#E67176;" width="31.122" height="104.017"/>
<rect x="371.967" y="428.956" style="fill:#80A878;" width="31.122" height="74.016"/>
<g>
</g>
<g>
</g>
<g>
</g>
<g>
</g>
<g>
</g>
<g>
</g>
<g>
</g>
<g>
</g>
<g>
</g>
<g>
</g>
<g>
</g>
<g>
</g>
<g>
</g>
<g>
</g>
<g>
</g>
</svg>
