<?xml version="1.0" encoding="iso-8859-1"?>
<!-- Generator: Adobe Illustrator 19.0.0, SVG Export Plug-In . SVG Version: 6.00 Build 0)  -->
<svg version="1.1" id="Capa_1" xmlns="http://www.w3.org/2000/svg" xmlns:xlink="http://www.w3.org/1999/xlink" x="0px" y="0px"
	 viewBox="0 0 512 512" style="enable-background:new 0 0 512 512;" xml:space="preserve">
<path style="fill:#77CCD9;" d="M256,137.766c117.332,0,216.222,51.187,246.474,121c6.202-14.311,9.526-29.403,9.526-45
	c0-91.679-114.615-166-256-166s-256,74.321-256,166c0,15.597,3.324,30.689,9.526,45C39.778,188.952,138.668,137.766,256,137.766z"/>
<path style="fill:#7EDEE6;" d="M502.474,168.766c-16.792,38.749-54.736,71.754-105.235,93.459
	c-40.483,17.4-89.031,27.541-141.239,27.541c-117.332,0-216.222-51.187-246.474-121C3.324,183.077,0,198.169,0,213.765
	c0,91.679,114.615,166,256,166c57.799,0,111.118-12.426,153.968-33.376l0,0C471.935,316.093,512,267.965,512,213.765
	C512,198.169,508.676,183.077,502.474,168.766z"/>
<path style="fill:#77CCD9;" d="M171.502,370.497c26.456,5.997,54.886,9.267,84.498,9.267c29.613,0,58.042-3.269,84.498-9.267
	c-12.329-34.776-45.548-59.753-84.498-59.753C217.052,310.745,183.833,335.722,171.502,370.497z"/>
<path style="fill:#FFE182;" d="M233.291,460.082c-24.061-9.161-41.159-32.434-41.159-59.714c0-35.274,28.593-63.868,63.868-63.868
	s63.868,28.593,63.868,63.868c0,27.28-17.098,50.553-41.159,59.714H233.291z"/>
<g>
	<path style="fill:#FFBA4D;" d="M256,417.297c-26.785,0-52.347-4.879-70.133-13.387c-7.268-3.476-10.342-12.186-6.865-19.455
		c3.477-7.268,12.186-10.342,19.455-6.865c13.991,6.692,34.964,10.531,57.543,10.531c22.578,0,43.552-3.838,57.543-10.53
		c7.27-3.479,15.98-0.403,19.455,6.865c3.477,7.269,0.403,15.979-6.865,19.456C308.347,412.418,282.785,417.297,256,417.297z"/>
	<path style="fill:#FFBA4D;" d="M278.709,460.082c-7.051,2.685-14.705,4.153-22.709,4.153c-8.005,0-15.658-1.469-22.709-4.153
		c1.955-10.776,11.379-18.936,22.709-18.936C267.33,441.148,276.754,449.307,278.709,460.082z"/>
</g>
<path style="fill:#77CCD9;" d="M160.102,347.472c-7.25-22.814-22.95-41.441-44.21-52.448c-12.697-6.573-26.927-10.047-41.154-10.047
	c-14.894,0-29.17,3.64-41.801,10.28c29.066,33.38,75.43,59.581,131.207,73.49C163.664,361.604,162.327,354.469,160.102,347.472z"/>
<path style="fill:#FFE182;" d="M27.067,417.202c-17.156-19.198-21.638-47.726-9.096-71.953
	c16.218-31.326,54.756-43.572,86.081-27.353c31.325,16.218,43.572,54.756,27.353,86.081c-12.542,24.226-38.426,37.033-64.005,34.106
	L27.067,417.202z"/>
<g>
	<path style="fill:#FFBA4D;" d="M66.905,389.647c-23.786-12.315-44.243-28.4-56.126-44.133c-4.856-6.428-3.581-15.577,2.847-20.434
		c6.429-4.855,15.577-3.581,20.434,2.848c9.348,12.376,26.209,25.427,46.259,35.807c20.05,10.381,40.441,16.616,55.942,17.105
		c8.056,0.253,14.376,6.989,14.121,15.041c-0.254,8.053-6.989,14.375-15.042,14.122C115.635,409.382,90.69,401.962,66.905,389.647z"
		/>
	<path style="fill:#FFBA4D;" d="M67.401,438.084c-7.496-0.858-14.969-3.073-22.076-6.753c-7.107-3.68-13.23-8.503-18.258-14.129
		c6.69-8.671,18.811-11.584,28.873-6.375S70.619,427.615,67.401,438.084z"/>
</g>
<path style="fill:#77CCD9;" d="M479.069,295.262c-12.634-6.643-26.912-10.284-41.81-10.284c-14.227,0-28.457,3.475-41.154,10.047
	c-21.26,11.006-36.96,29.633-44.209,52.448c-2.224,6.999-3.562,14.136-4.043,21.281c22.39-5.585,43.266-13.148,62.114-22.363l0,0
	C438.072,332.649,461.67,315.241,479.069,295.262z"/>
<path style="fill:#FFE182;" d="M484.933,417.202c17.156-19.198,21.638-47.726,9.095-71.953
	c-16.218-31.326-54.756-43.572-86.081-27.353c-31.326,16.218-43.571,54.756-27.353,86.081
	c12.542,24.226,38.426,37.033,64.005,34.106L484.933,417.202z"/>
<g>
	<path style="fill:#FFBA4D;" d="M445.095,389.647c23.786-12.315,44.243-28.4,56.126-44.133c4.856-6.428,3.581-15.577-2.847-20.434
		c-6.429-4.855-15.577-3.581-20.434,2.848c-9.348,12.376-26.209,25.427-46.259,35.807c-20.05,10.381-40.441,16.616-55.942,17.105
		c-8.056,0.253-14.376,6.989-14.121,15.041c0.254,8.053,6.989,14.375,15.042,14.122C396.365,409.382,421.31,401.962,445.095,389.647
		z"/>
	<path style="fill:#FFBA4D;" d="M444.599,438.084c7.496-0.858,14.969-3.073,22.076-6.753c7.108-3.68,13.23-8.503,18.258-14.129
		c-6.69-8.671-18.811-11.584-28.873-6.375C445.998,416.036,441.381,427.615,444.599,438.084z"/>
</g>
<g>
</g>
<g>
</g>
<g>
</g>
<g>
</g>
<g>
</g>
<g>
</g>
<g>
</g>
<g>
</g>
<g>
</g>
<g>
</g>
<g>
</g>
<g>
</g>
<g>
</g>
<g>
</g>
<g>
</g>
</svg>
