<?xml version="1.0" encoding="iso-8859-1"?>
<!-- Generator: Adobe Illustrator 19.0.0, SVG Export Plug-In . SVG Version: 6.00 Build 0)  -->
<svg version="1.1" id="Capa_1" xmlns="http://www.w3.org/2000/svg" xmlns:xlink="http://www.w3.org/1999/xlink" x="0px" y="0px"
	 viewBox="0 0 512 512" style="enable-background:new 0 0 512 512;" xml:space="preserve">
<polygon style="fill:#7EDEE6;" points="256,215.823 54.404,248.789 54.404,377.562 256,406.407 457.586,377.562 457.586,248.789 "/>
<polygon style="fill:#CBFDFF;" points="457.586,161.78 457.586,248.789 54.404,248.789 54.404,168.899 256,40.62 "/>
<path style="fill:#7EDEE6;" d="M54.404,168.899v70.132c5.88-1.076,11.519-3.281,16.621-6.534L256,114.549l184.976,117.949
	c5.098,3.251,10.734,5.455,16.611,6.531V161.78L256,40.62L54.404,168.899z"/>
<path style="fill:#77CCD9;" d="M495.908,146.348L275.157,5.588c-11.685-7.451-26.631-7.45-38.316,0L16.093,146.348
	c-7.262,4.631-9.395,14.272-4.765,21.534l21.547,33.792c4.631,7.262,14.272,9.395,21.534,4.765L256,77.894l201.591,128.544
	c7.262,4.631,16.903,2.497,21.534-4.765l21.547-33.792C505.303,160.619,503.169,150.979,495.908,146.348z"/>
<rect x="54.404" y="377.562" style="fill:#CBFDFF;" width="403.182" height="101.864"/>
<path style="fill:#77CCD9;" d="M256,233.404L256,233.404c-72.431,0-120.967,58.716-120.967,131.147v114.869h241.933V364.552
	C376.967,292.121,328.431,233.404,256,233.404z"/>
<path style="fill:#3B484A;" d="M171.09,474.27V364.552c0-26.863,8.581-51.27,24.163-68.722c15.4-17.25,36.407-26.37,60.748-26.37
	c24.341,0,45.348,9.119,60.748,26.37c15.581,17.452,24.163,41.859,24.163,68.722V474.27L171.09,474.27L171.09,474.27z"/>
<polygon style="fill:#FC7C81;" points="291.989,149.824 271.121,149.824 271.121,128.956 240.879,128.956 240.879,149.824 
	220.011,149.824 220.011,180.066 240.879,180.066 240.879,200.934 271.121,200.934 271.121,180.066 291.989,180.066 "/>
<rect x="25.369" y="446.841" style="fill:#7EDEE6;" width="461.264" height="65.159"/>
<g>
</g>
<g>
</g>
<g>
</g>
<g>
</g>
<g>
</g>
<g>
</g>
<g>
</g>
<g>
</g>
<g>
</g>
<g>
</g>
<g>
</g>
<g>
</g>
<g>
</g>
<g>
</g>
<g>
</g>
</svg>
