<?xml version="1.0" encoding="iso-8859-1"?>
<!-- Generator: Adobe Illustrator 19.0.0, SVG Export Plug-In . SVG Version: 6.00 Build 0)  -->
<svg version="1.1" id="Capa_1" xmlns="http://www.w3.org/2000/svg" xmlns:xlink="http://www.w3.org/1999/xlink" x="0px" y="0px"
	 viewBox="0 0 512 512" style="enable-background:new 0 0 512 512;" xml:space="preserve">
<path style="fill:#7EDEE6;" d="M126.098,356.21c-17.765,20.597-38.506,52.813-46.155,96.565
	c-3.111,17.832-4.049,37.571-1.731,59.225h355.68c2.318-21.654,1.38-41.393-1.731-59.225l0,0
	c-7.654-43.786-28.422-76.018-46.196-96.612L126.098,356.21z"/>
<path style="fill:#77CCD9;" d="M110.849,452.775c7.648-43.752,28.39-75.968,46.155-96.565l228.967-0.042
	c-0.001-0.002-0.003-0.004-0.005-0.006l-259.867,0.048c-17.765,20.597-38.506,52.813-46.155,96.565
	c-3.111,17.832-4.049,37.571-1.731,59.225h30.905C106.8,490.346,107.737,470.607,110.849,452.775z"/>
<path style="fill:#F0F0F0;" d="M323.992,378.199c0,0-5.742,53.632-68.022,87.764c-62.28-34.132-68.022-87.764-68.022-87.764H323.992
	z"/>
<g>
	<path style="fill:#3B484A;" d="M350.382,362.245c-3.343-2.625-8.159-2.041-10.801,1.286c-2.643,3.326-2.085,8.179,1.225,10.842
		c0.853,0.686,20.894,17.205,20.894,52.123c0,4.267,3.458,7.726,7.726,7.726c4.268,0,7.726-3.459,7.726-7.726
		C377.153,383.75,351.475,363.103,350.382,362.245z"/>
	<path style="fill:#3B484A;" d="M153.145,415.165c1.601-22.7,14.585-33.555,15.255-34.1c3.321-2.641,3.891-7.473,1.266-10.817
		c-2.635-3.356-7.493-3.941-10.848-1.307c-0.827,0.649-19.33,15.546-21.134,46.054c-14.731,7.755-25.648,21.329-30.015,37.423
		c-1.118,4.119,1.315,8.363,5.433,9.48c0.677,0.183,1.358,0.272,2.028,0.272c3.402,0,6.518-2.264,7.451-5.705
		c3.281-12.094,11.539-22.278,22.674-28.002c11.135,5.726,19.393,15.908,22.674,28.002c0.933,3.441,4.051,5.705,7.451,5.705
		c0.67,0,1.352-0.088,2.028-0.272c4.119-1.117,6.551-5.362,5.433-9.48C178.508,436.439,167.714,422.947,153.145,415.165z"/>
</g>
<path style="fill:#7A6154;" d="M474.021,59.649c-1.874-10.116-10.719-17.457-21.007-17.346C400.304,42.867,366.346,0,256,0
	C132.447,0,31.93,96.748,31.93,215.667l30.006,26.788l194.117,30.033l192.959-23.806l20.757-33.014
	C486.128,147.953,479.4,88.677,474.021,59.649z"/>
<path style="fill:#6B554A;" d="M74.643,235.27c0-121.253,93.834-221.365,213.892-233.93C278.466,0.483,267.664,0,256,0
	C132.447,0,31.93,96.748,31.93,215.667l30.006,26.788l24.802,3.837L74.643,235.27z"/>
<path style="fill:#FBC4AC;" d="M451.642,227.949l-0.008,0.006v-0.001l-1.813-0.523c0,0-60.643-15.305-60.643-85.781
	c0,0-56.199,14.423-133.178,14.423S122.822,141.65,122.822,141.65c0,70.476-60.643,85.781-60.643,85.781l-1.808,0.698l-6.496,21.265
	l14.637,21.265v-0.001c24.558,76.805,99.2,132.667,187.488,132.667s162.925-55.863,187.483-132.669l19.89-16.872L451.642,227.949z"
	/>
<g>
	<path style="fill:#E3B098;" d="M451.583,228.69c-1.039,14.507-3.813,28.555-8.102,41.97c2.071,0.301,4.186,0.466,6.34,0.466
		c24.131,0,43.694-19.562,43.694-43.694c0-22.566-17.108-41.133-39.061-43.447c-0.252,21.917-2.811,43.965-2.811,43.965
		L451.583,228.69z"/>
	<path style="fill:#E3B098;" d="M60.358,227.949c0,0-2.558-22.047-2.811-43.965c-21.954,2.314-39.061,20.881-39.061,43.447
		c0,24.131,19.562,43.694,43.694,43.694c2.151,0,4.264-0.164,6.331-0.465v-0.001C91.41,342.275,157.854,395.672,238.3,402.563
		c-68.966-31.898-122.041-90.313-144.778-161.419v0.001l0,0c-2.693-8.42-4.961-17.018-6.782-25.769
		c-13.015,9.14-24.562,12.055-24.562,12.055l-1.806,0.697L60.358,227.949z"/>
</g>
<g>
	<path style="fill:#F98084;" d="M163.589,289.303H135.38c-4.267,0-7.726-3.459-7.726-7.726s3.459-7.726,7.726-7.726h28.208
		c4.267,0,7.726,3.459,7.726,7.726S167.856,289.303,163.589,289.303z"/>
	<path style="fill:#F98084;" d="M376.62,289.303h-28.208c-4.267,0-7.726-3.459-7.726-7.726s3.459-7.726,7.726-7.726h28.208
		c4.267,0,7.726,3.459,7.726,7.726S380.887,289.303,376.62,289.303z"/>
</g>
<g>
	<path style="fill:#3B484A;" d="M149.484,258.861c-4.268,0-7.726-3.459-7.726-7.726v-20.711c0-4.267,3.458-7.726,7.726-7.726
		c4.268,0,7.726,3.459,7.726,7.726v20.711C157.211,255.401,153.751,258.861,149.484,258.861z"/>
	<path style="fill:#3B484A;" d="M362.517,258.861c-4.268,0-7.726-3.459-7.726-7.726v-20.711c0-4.267,3.458-7.726,7.726-7.726
		c4.268,0,7.726,3.459,7.726,7.726v20.711C370.243,255.401,366.784,258.861,362.517,258.861z"/>
	<path style="fill:#3B484A;" d="M256,288.132c-9.655,0-18.719-4.035-24.869-11.07c-2.809-3.213-2.481-8.094,0.732-10.902
		c3.211-2.808,8.093-2.481,10.901,0.732c3.215,3.678,8.04,5.788,13.235,5.788c5.195,0,10.02-2.109,13.235-5.788
		c2.808-3.213,7.689-3.541,10.901-0.732c3.213,2.808,3.542,7.689,0.732,10.902C274.719,284.097,265.655,288.132,256,288.132z"/>
</g>
<g>
	<circle style="fill:#E3E3E3;" cx="175.388" cy="454.444" r="13.683"/>
	<circle style="fill:#E3E3E3;" cx="115.123" cy="454.444" r="13.683"/>
	<circle style="fill:#E3E3E3;" cx="369.423" cy="437.312" r="20.147"/>
</g>
<g>
</g>
<g>
</g>
<g>
</g>
<g>
</g>
<g>
</g>
<g>
</g>
<g>
</g>
<g>
</g>
<g>
</g>
<g>
</g>
<g>
</g>
<g>
</g>
<g>
</g>
<g>
</g>
<g>
</g>
</svg>
