<?xml version="1.0" encoding="iso-8859-1"?>
<!-- Generator: Adobe Illustrator 19.0.0, SVG Export Plug-In . SVG Version: 6.00 Build 0)  -->
<svg version="1.1" id="Capa_1" xmlns="http://www.w3.org/2000/svg" xmlns:xlink="http://www.w3.org/1999/xlink" x="0px" y="0px"
	 viewBox="0 0 512 512" style="enable-background:new 0 0 512 512;" xml:space="preserve">
<path style="fill:#FABED5;" d="M106.345,0H82.484c-8.323,0-15.069,6.747-15.069,15.069v37.853c0,8.323,6.748,15.069,15.069,15.069
	h23.86l17.873-33.996L106.345,0z"/>
<path style="fill:#FC7C81;" d="M165.783,67.992c0,0-11.864,48.048-53.232,74.131c-5.569,3.511-7.735,10.565-5.078,16.587l0,0
	c3.051,6.916,11.244,9.895,18.021,6.548c18.286-9.034,51.805-28.295,68.354-54.845l4.213-34.865L165.783,67.992z"/>
<path style="fill:#E67176;" d="M151.037,101.714l21.696,32.794c8.133-7.143,15.577-15.208,21.116-24.094l4.213-34.865l-32.279-7.556
	C165.783,67.992,161.946,83.521,151.037,101.714z"/>
<path style="fill:#FABED5;" d="M390.706,71.086l-44.153-50.2C334.876,7.609,318.05,0,300.369,0h-158.28l-17.873,33.996
	l17.873,33.996h23.694l41.575,62.841l60.413,20.261l60.413-20.261c0,0,12.73-36.056,50.847-36.056
	C391.241,94.777,398.145,80.768,390.706,71.086z"/>
<polygon style="fill:#FC7C81;" points="207.358,130.833 207.358,192.644 267.771,211.187 328.184,192.644 328.184,130.833 "/>
<polygon style="fill:#E67176;" points="238.264,192.644 238.264,130.833 207.358,130.833 207.358,192.644 267.771,211.187 
	283.224,206.444 "/>
<rect x="106.346" style="fill:#FC7C81;" width="35.744" height="67.992"/>
<path style="fill:#CBFDFF;" d="M352.246,229.73l-84.475-18.543l-84.475,18.543c-112.34,64.332-124.449,199.363-23.815,268.298
	C172.814,507.161,188.625,512,204.787,512h125.968c16.16,0,31.973-4.839,45.305-13.971
	C476.695,429.093,464.586,294.062,352.246,229.73z"/>
<path style="fill:#FABED5;" d="M328.184,192.644H207.358c-13.289,0-24.062,10.773-24.062,24.062v13.025h168.95v-13.025
	C352.246,203.416,341.472,192.644,328.184,192.644z"/>
<path style="fill:#E6A8BF;" d="M238.264,192.644h-30.905c-13.289,0-24.062,10.774-24.062,24.062v13.025h30.905v-13.025
	C214.202,203.416,224.974,192.644,238.264,192.644z"/>
<path style="fill:#7EDEE6;" d="M355.685,468.282c35.577-24.371,54.315-59.069,52.759-97.7c-0.815-20.214-7.448-40.558-19.185-58.833
	c-2.241-3.489-4.647-6.883-7.212-10.181c-9.655-2.391-19.836-1.93-29.284,1.401c-11,3.879-22.996,3.879-33.996,0
	c-11-3.879-22.996-3.879-33.996,0c-11,3.879-22.996,3.879-33.996,0c-11-3.879-22.996-3.879-33.996,0
	c-11,3.879-22.996,3.879-33.996,0c-9.448-3.331-19.629-3.792-29.285-1.401c-2.565,3.299-4.972,6.692-7.212,10.181
	c-11.737,18.274-18.371,38.618-19.185,58.833c-1.557,38.631,17.18,73.329,52.761,97.701c7.315,5.012,15.935,7.661,24.927,7.661
	h125.969C339.747,475.944,348.366,473.295,355.685,468.282z"/>
<g>
	<path style="fill:#3B484A;" d="M195.397,395.149c-4.268,0-7.726-3.459-7.726-7.726v-13.099c0-4.267,3.458-7.726,7.726-7.726
		c4.268,0,7.726,3.459,7.726,7.726v13.099C203.123,391.689,199.665,395.149,195.397,395.149z"/>
	<path style="fill:#3B484A;" d="M340.145,395.149c-4.268,0-7.726-3.459-7.726-7.726v-13.099c0-4.267,3.458-7.726,7.726-7.726
		s7.726,3.459,7.726,7.726v13.099C347.872,391.689,344.413,395.149,340.145,395.149z"/>
	<path style="fill:#3B484A;" d="M267.771,402.14c-9.192,0-17.823-3.844-23.68-10.545c-2.809-3.213-2.481-8.094,0.732-10.902
		c3.212-2.808,8.094-2.48,10.901,0.732c2.924,3.344,7.314,5.262,12.046,5.262c4.732,0,9.122-1.918,12.046-5.262
		c2.808-3.213,7.688-3.541,10.902-0.731c3.212,2.809,3.541,7.689,0.731,10.902C285.593,398.297,276.961,402.14,267.771,402.14z"/>
</g>
<g>
</g>
<g>
</g>
<g>
</g>
<g>
</g>
<g>
</g>
<g>
</g>
<g>
</g>
<g>
</g>
<g>
</g>
<g>
</g>
<g>
</g>
<g>
</g>
<g>
</g>
<g>
</g>
<g>
</g>
</svg>
