<?xml version="1.0" encoding="iso-8859-1"?>
<!-- Generator: Adobe Illustrator 19.0.0, SVG Export Plug-In . SVG Version: 6.00 Build 0)  -->
<svg version="1.1" id="Capa_1" xmlns="http://www.w3.org/2000/svg" xmlns:xlink="http://www.w3.org/1999/xlink" x="0px" y="0px"
	 viewBox="0 0 512 512" style="enable-background:new 0 0 512 512;" xml:space="preserve">
<g>
	<path style="fill:#F0F0F0;" d="M15.293,375.458c20.67,71.746,52.539,142.84,99.731,136.097
		c47.192-6.742,78.344-78.344,78.344-78.344L15.293,375.458z"/>
	<path style="fill:#F0F0F0;" d="M375.458,15.293c71.746,20.67,142.84,52.539,136.097,99.731
		c-6.742,47.192-78.344,78.344-78.344,78.344L375.458,15.293z"/>
</g>
<g>
	<path style="fill:#D9D9D9;" d="M112.637,278.114c-105.479,33.644-166.155,64.9-48.175,132.623s148.493,87.206,176.75-4.049
		l-34.789-80.756L112.637,278.114z"/>
	<path style="fill:#D9D9D9;" d="M278.114,112.637c33.644-105.479,64.9-166.155,132.623-48.175s87.206,148.493-4.049,176.75
		l-80.756-34.789L278.114,112.637z"/>
</g>
<rect x="142.649" y="168.755" transform="matrix(-0.7071 0.7071 -0.7071 -0.7071 626.8738 259.6755)" style="fill:#F0F0F0;" width="234.014" height="181.825"/>
<g>
	<path style="fill:#3B484A;" d="M214.704,316.309c-1.977,0-3.955-0.754-5.463-2.263l-8.496-8.496c-3.017-3.017-3.017-7.91,0-10.926
		c3.017-3.017,7.91-3.017,10.926,0l8.496,8.496c3.017,3.017,3.017,7.91,0,10.926C218.659,315.555,216.681,316.309,214.704,316.309z"
		/>
	<path style="fill:#3B484A;" d="M308.583,222.431c-1.977,0-3.955-0.754-5.463-2.263l-8.496-8.496c-3.017-3.017-3.017-7.91,0-10.926
		c3.017-3.017,7.91-3.017,10.926,0l8.496,8.496c3.017,3.017,3.017,7.91,0,10.926C312.538,221.676,310.561,222.431,308.583,222.431z"
		/>
	<path style="fill:#3B484A;" d="M250.835,280.41c-0.627,0-1.256-0.021-1.885-0.063c-4.258-0.286-7.477-3.969-7.192-8.227
		c0.285-4.258,3.965-7.484,8.227-7.191c3.879,0.251,7.792-1.276,10.73-4.214c2.939-2.939,4.474-6.85,4.214-10.73
		c-0.286-4.258,2.934-7.941,7.191-8.226c4.265-0.293,7.941,2.934,8.226,7.191c0.559,8.329-2.614,16.6-8.705,22.692
		C266.01,277.272,258.516,280.41,250.835,280.41z"/>
</g>
<g>
</g>
<g>
</g>
<g>
</g>
<g>
</g>
<g>
</g>
<g>
</g>
<g>
</g>
<g>
</g>
<g>
</g>
<g>
</g>
<g>
</g>
<g>
</g>
<g>
</g>
<g>
</g>
<g>
</g>
</svg>
