<?xml version="1.0" encoding="iso-8859-1"?>
<!-- Generator: Adobe Illustrator 19.0.0, SVG Export Plug-In . SVG Version: 6.00 Build 0)  -->
<svg version="1.1" id="Capa_1" xmlns="http://www.w3.org/2000/svg" xmlns:xlink="http://www.w3.org/1999/xlink" x="0px" y="0px"
	 viewBox="0 0 512 512" style="enable-background:new 0 0 512 512;" xml:space="preserve">
<path style="fill:#FC7C81;" d="M429.661,359.855C428.198,297.518,407.44,120.344,256,120.344S83.802,297.518,82.339,359.855
	C-124.978,141.185,106.786-70.84,256,74.985C405.214-70.84,636.978,141.185,429.661,359.855z"/>
<path style="fill:#FFBA4D;" d="M355.243,155.892c16.305-10.44,36.996-18.315,56.071-10.769c16.762,6.631,25.76,22.534,32.513,38.286
	c6.61,15.419,20.77,30.198,22.373,47.222c1.509,16.032-11.245,37.817-29.619,34.624c-11.025-1.916-20.336-12.051-26.463-20.83
	L355.243,155.892z"/>
<path style="fill:#FFE182;" d="M429.661,359.855v0.01c-40.147,42.352-96.777,84.95-173.661,125.252
	c-76.884-40.301-133.514-82.9-173.661-125.252v-0.01C83.802,297.518,104.561,120.344,256,120.344S428.198,297.518,429.661,359.855z"
	/>
<path style="fill:#FFBA4D;" d="M250.001,120.445c-145.988,4.623-166.219,177.906-167.662,239.41v0.01
	c8.276,8.73,17.264,17.47,26.974,26.199C111.846,318.6,132.855,162.194,250.001,120.445z"/>
<g>
	<path style="fill:#3B484A;" d="M183.625,254.859c-4.267,0-7.726-3.459-7.726-7.727v-13.099c0-4.267,3.459-7.727,7.726-7.727
		c4.267,0,7.727,3.459,7.727,7.727v13.099C191.351,251.4,187.892,254.859,183.625,254.859z"/>
	<path style="fill:#3B484A;" d="M328.376,254.859c-4.267,0-7.727-3.459-7.727-7.727v-13.099c0-4.267,3.459-7.727,7.727-7.727
		s7.727,3.459,7.727,7.727v13.099C336.102,251.4,332.643,254.859,328.376,254.859z"/>
	<path style="fill:#3B484A;" d="M273.183,240.059h-34.366c-6.827,0-8.738,9.35-2.468,12.051c5.973,2.573,12.631,4.01,19.651,4.01
		s13.678-1.436,19.651-4.01C281.921,249.41,280.01,240.059,273.183,240.059z"/>
	<path style="fill:#3B484A;" d="M293.114,265.895c-3.213-2.808-8.094-2.48-10.903,0.732c-2.468,2.824-6.185,4.443-10.197,4.443
		c-4.013,0-7.729-1.619-10.197-4.443c-1.447-1.656-3.628-2.634-5.825-2.634c-2.198,0-4.362,0.978-5.81,2.634
		c-2.468,2.824-6.185,4.443-10.198,4.443s-7.729-1.619-10.197-4.443c-2.808-3.214-7.689-3.542-10.903-0.732
		c-3.213,2.808-3.542,7.689-0.732,10.903c5.402,6.182,13.361,9.727,21.832,9.727c5.797,0,11.353-1.662,16.014-4.691
		c4.662,3.029,10.218,4.691,16.014,4.691c8.472,0,16.43-3.545,21.832-9.727C296.655,273.584,296.326,268.702,293.114,265.895z"/>
</g>
<path style="fill:#FFBA4D;" d="M156.756,155.892c-16.305-10.44-36.995-18.315-56.071-10.769
	c-16.762,6.631-25.76,22.534-32.513,38.286c-6.61,15.419-20.77,30.198-22.373,47.222c-1.509,16.032,11.245,37.817,29.619,34.624
	c11.025-1.916,20.336-12.051,26.463-20.83L156.756,155.892z"/>
<g>
</g>
<g>
</g>
<g>
</g>
<g>
</g>
<g>
</g>
<g>
</g>
<g>
</g>
<g>
</g>
<g>
</g>
<g>
</g>
<g>
</g>
<g>
</g>
<g>
</g>
<g>
</g>
<g>
</g>
</svg>
