<?xml version="1.0" encoding="iso-8859-1"?>
<!-- Generator: Adobe Illustrator 19.0.0, SVG Export Plug-In . SVG Version: 6.00 Build 0)  -->
<svg version="1.1" id="Capa_1" xmlns="http://www.w3.org/2000/svg" xmlns:xlink="http://www.w3.org/1999/xlink" x="0px" y="0px"
	 viewBox="0 0 512.001 512.001" style="enable-background:new 0 0 512.001 512.001;" xml:space="preserve">
<path style="fill:#7A6154;" d="M27.284,147.132c1.167-8.18,8.71-13.866,16.895-12.736c23.312,3.218,70.681,13.519,108.719,45.937
	L41.517,264.296C20.823,218.802,23.961,170.428,27.284,147.132z"/>
<path style="fill:#FABED5;" d="M49.509,168.922c0.344-4.657,4.716-7.953,9.288-7.001c17.07,3.552,39.221,10.208,60.5,22.644
	l-64.674,48.753C48.526,209.437,48.226,186.31,49.509,168.922z"/>
<path style="fill:#7A6154;" d="M396.505,105.154c2.513,9.928,6.97,19.474,13.31,28.285c22.597,31.377,34.222,56.063-8.294,111.041
	c-6.412,8.294-4.881,20.218,3.413,26.63c3.454,2.678,7.539,3.971,11.594,3.971c5.677,0,11.294-2.545,15.038-7.374
	c25.844-33.436,37.448-61.855,36.496-89.437c-0.92-26.692-13.734-47.987-27.437-67.015c-3.858-5.347-6.143-10.642-7.374-15.658
	l-16.433-19.03L396.505,105.154z"/>
<path style="fill:#F0F0F0;" d="M456.612,45.78c-10.424,4.468-19.412,15.471-22.897,28.016c-1.593,5.75-2.534,13.372-0.466,21.801
	c-18.895,11.614-36.744,9.556-36.744,9.556c-3.403-13.424-3.247-27.551,0.63-41.502c6.64-23.931,23.28-43.653,44.502-52.765
	c9.638-4.127,20.797,0.32,24.935,9.959C470.709,30.483,466.251,41.644,456.612,45.78z"/>
<path style="fill:#6B554A;" d="M404.934,271.111c3.454,2.678,7.539,3.971,11.594,3.971c5.677,0,11.293-2.545,15.038-7.374
	c14.873-19.241,25.02-36.82,30.782-53.534c-9.175-11.807-20.03-21.893-32.316-30.139c-0.788,16.115-8.868,35.047-28.509,60.445
	C395.109,252.775,396.639,264.699,404.934,271.111z"/>
<path style="fill:#7A6154;" d="M460.656,330.255c22.418-66.17-28.926-164.52-157.43-144.25l-49.393,4.962l-39.235,91.4
	l21.83,118.722l212.659-6.834L460.656,330.255z"/>
<path style="fill:#6B554A;" d="M319.262,331.811l0.774-3.919l2.215-23.318c0.48-5.046,0.723-10.183,0.723-15.268
	c0-12.473-1.447-24.842-4.311-36.88c7.692-24.507,10.181-48.588,10.332-68.963c-8.22,0.31-16.8,1.127-25.771,2.542l-49.393,4.962
	l-39.237,91.4l21.83,118.722l41.865-1.345C297.784,379.594,312.539,358.761,319.262,331.811z"/>
<path style="fill:#7A6154;" d="M300.852,147.132c-1.167-8.18-8.71-13.866-16.895-12.736c-23.312,3.218-70.681,13.519-108.719,45.937
	l111.381,83.964C307.312,218.802,304.174,170.428,300.852,147.132z"/>
<path style="fill:#FABED5;" d="M278.626,168.922c-0.344-4.657-4.716-7.953-9.288-7.001c-17.07,3.552-39.221,10.208-60.5,22.644
	l64.674,48.753C279.61,209.437,279.91,186.31,278.626,168.922z"/>
<path style="fill:#F0F0F0;" d="M201.752,161.566c-11.943-3.525-24.591-5.413-37.684-5.413c-13.093,0-25.741,1.887-37.684,5.413
	l-94.85,140.572c6.454,67.515,63.327,120.32,132.534,120.32s126.08-52.805,132.534-120.32L201.752,161.566z"/>
<path style="fill:#7EDEE6;" d="M256,360.086l-226.169,29.83l31.003,75.857c7.058,21.978,27.5,36.883,50.583,36.883h289.168
	c23.083,0,43.525-14.906,50.583-36.883l31.003-75.857L256,360.086z"/>
<path style="fill:#77CCD9;" d="M102.04,465.773l-31.003-75.857l205.566-27.112L256,360.086l-226.169,29.83l31.003,75.857
	c7.058,21.978,27.5,36.883,50.583,36.883h41.207C129.54,502.655,109.098,487.751,102.04,465.773z"/>
<path style="fill:#6B554A;" d="M347.111,351.361c-3.558,0-6.759-2.471-7.543-6.09c-5.927-27.33,1.701-51.938,22.058-71.164
	c14.96-14.13,31.533-20.279,32.231-20.534c4.009-1.461,8.443,0.601,9.907,4.609c1.463,4.008-0.601,8.444-4.609,9.907
	c-2.274,0.841-55.89,21.322-44.486,73.907c0.904,4.17-1.743,8.284-5.913,9.188C348.204,351.303,347.653,351.361,347.111,351.361z"/>
<path style="fill:#CBFDFF;" d="M482.169,330.255H29.831C13.355,330.255,0,343.61,0,360.086l0,0
	c0,16.475,13.355,29.831,29.831,29.831H482.17c16.475,0,29.831-13.355,29.831-29.831l0,0
	C512,343.61,498.645,330.255,482.169,330.255z"/>
<path style="fill:#7EDEE6;" d="M41.207,360.086L41.207,360.086c0-16.475,13.355-29.831,29.831-29.831H29.831
	C13.355,330.255,0,343.61,0,360.086l0,0c0,16.475,13.355,29.831,29.831,29.831h41.207C54.563,389.916,41.207,376.56,41.207,360.086z
	"/>
<g>
	<path style="fill:#A18576;" d="M297.221,289.306c0,4.328-0.206,8.613-0.608,12.833h-0.011
		c-96.076,28.843-112.195-71.137-94.85-140.377v-0.196C256.944,177.816,297.221,228.863,297.221,289.306z"/>
	<path style="fill:#A18576;" d="M31.534,302.138h-0.011c-0.402-4.22-0.608-8.504-0.608-12.833
		c0-60.442,40.277-111.49,95.469-127.739v0.196C143.729,231.001,127.61,330.981,31.534,302.138z"/>
</g>
<g>
	<path style="fill:#3B484A;" d="M87.86,278.919c-4.267,0-7.726-3.459-7.726-7.726V257.4c0-4.267,3.459-7.726,7.726-7.726
		s7.726,3.459,7.726,7.726v13.792C95.586,275.459,92.127,278.919,87.86,278.919z"/>
	<path style="fill:#3B484A;" d="M240.275,278.919c-4.267,0-7.726-3.459-7.726-7.726V257.4c0-4.267,3.459-7.726,7.726-7.726
		s7.726,3.459,7.726,7.726v13.792C248.002,275.459,244.542,278.919,240.275,278.919z"/>
	<path style="fill:#3B484A;" d="M193.995,276.549c-3.213-2.808-8.093-2.482-10.902,0.732c-1.585,1.814-3.992,2.855-6.604,2.855
		c-2.612,0-5.018-1.04-6.603-2.855c-1.288-1.473-3.158-2.421-5.102-2.601c-2.402-0.224-4.839,0.732-6.455,2.522
		c-0.025,0.028-0.053,0.051-0.076,0.079c-1.586,1.814-3.993,2.855-6.604,2.855s-5.019-1.04-6.604-2.855
		c-2.808-3.212-7.689-3.541-10.902-0.732s-3.541,7.689-0.732,10.902c4.52,5.172,11.168,8.136,18.239,8.136
		c4.449,0,8.731-1.176,12.421-3.337c3.69,2.16,7.972,3.337,12.421,3.337c7.071,0,13.719-2.966,18.239-8.136
		C197.536,284.239,197.209,279.358,193.995,276.549z"/>
</g>
<g>
</g>
<g>
</g>
<g>
</g>
<g>
</g>
<g>
</g>
<g>
</g>
<g>
</g>
<g>
</g>
<g>
</g>
<g>
</g>
<g>
</g>
<g>
</g>
<g>
</g>
<g>
</g>
<g>
</g>
</svg>
