<?xml version="1.0" encoding="iso-8859-1"?>
<!-- Generator: Adobe Illustrator 19.0.0, SVG Export Plug-In . SVG Version: 6.00 Build 0)  -->
<svg version="1.1" id="Capa_1" xmlns="http://www.w3.org/2000/svg" xmlns:xlink="http://www.w3.org/1999/xlink" x="0px" y="0px"
	 viewBox="0 0 512 512" style="enable-background:new 0 0 512 512;" xml:space="preserve">
<path style="fill:#77CCD9;" d="M339.441,104.482c39.855,0,43.452,75.495-28.165,90.64L339.441,104.482z"/>
<path style="fill:#7EDEE6;" d="M338.692,88.01c3.931,40.385-7.18,86.01-39.266,122.256h-86.851
	c-32.087-36.246-43.199-81.871-39.266-122.256H338.692z"/>
<g>
	<path style="fill:#77CCD9;" d="M172.558,104.482c-39.855,0-43.452,75.495,28.165,90.64L172.558,104.482z"/>
	<path style="fill:#77CCD9;" d="M233.177,210.266c-32.087-36.246-43.199-81.871-39.266-122.256h-20.604
		c-0.369,3.786-0.605,7.618-0.705,11.484c-0.132,5.155-0.021,10.37,0.346,15.618c0.183,2.624,0.431,5.256,0.743,7.891
		c0.157,1.318,0.329,2.637,0.518,3.957c0.378,2.64,0.822,5.282,1.334,7.923c1.79,9.244,4.407,18.477,7.912,27.545
		c6.51,16.84,16.083,33.113,29.118,47.839h20.604V210.266z"/>
</g>
<rect x="238.507" y="403.233" style="fill:#FFBA4D;" width="34.991" height="108.767"/>
<rect x="238.507" y="403.233" style="fill:#FAA330;" width="17.513" height="108.767"/>
<polygon style="fill:#FFE182;" points="259.059,213.251 162.095,287.196 162.095,319.752 178.424,440.366 256,457.615 
	333.576,440.366 349.906,319.752 356.023,286.536 "/>
<g>
	<circle style="fill:#FFBA4D;" cx="256" cy="393.158" r="17.496"/>
	<path style="fill:#FFBA4D;" d="M162.095,287.195v32.556l3.598,26.583c4.48-1.312,8.706-3.474,12.394-6.395L256,278.213
		l77.913,61.725c3.688,2.922,7.914,5.083,12.394,6.395l3.599-26.583l6.117-33.216l-96.965-73.284L162.095,287.195z"/>
</g>
<path style="fill:#FC7C81;" d="M383.729,277.057L256,175.864L128.271,277.057c-4.613,3.654-5.39,10.356-1.735,14.97l20.59,25.989
	c3.654,4.613,10.356,5.39,14.97,1.735l93.905-74.397l93.905,74.397c4.613,3.654,11.314,2.877,14.97-1.735l20.59-25.989
	C389.119,287.413,388.342,280.712,383.729,277.057z"/>
<ellipse style="fill:#3B484A;" cx="256" cy="319.026" rx="23.441" ry="29.239"/>
<path style="fill:#FFE182;" d="M338.692,88.01c-21.56,23.105-50.655,37.266-82.693,37.266s-61.133-14.162-82.693-37.266
	C178.566,33.839,210.89,0,256,0S333.433,33.839,338.692,88.01z"/>
<path style="fill:#FFBA4D;" d="M266.293,0.634c-1.341-0.162-2.698-0.286-4.065-0.388c-0.428-0.031-0.853-0.068-1.283-0.092
	c-0.501-0.03-1.004-0.05-1.509-0.072C258.298,0.037,257.156,0,256,0c-45.11,0-77.434,33.839-82.693,88.01
	c6.061,6.494,12.716,12.282,19.865,17.247c-0.057-5.825,0.188-11.589,0.739-17.247c4.849-49.947,32.716-82.585,72.39-87.376
	C266.299,0.635,266.296,0.635,266.293,0.634z"/>
<g>
	<path style="fill:#3B484A;" d="M218.038,64.356c-4.268,0-7.726-3.459-7.726-7.726v-6.87c0-4.267,3.458-7.726,7.726-7.726
		c4.268,0,7.726,3.459,7.726,7.726v6.87C225.764,60.897,222.305,64.356,218.038,64.356z"/>
	<path style="fill:#3B484A;" d="M293.963,64.356c-4.268,0-7.726-3.459-7.726-7.726v-6.87c0-4.267,3.458-7.726,7.726-7.726
		s7.726,3.459,7.726,7.726v6.87C301.689,60.897,298.23,64.356,293.963,64.356z"/>
</g>
<path style="fill:#FAA330;" d="M273.568,65.916c0.921,7.091-1.149,14.855-8.18,21.015c-5.337,4.674-13.439,4.674-18.777,0
	c-7.031-6.159-9.101-13.924-8.18-21.015H273.568z"/>
<path style="fill:#FFBA4D;" d="M273.568,65.916c-4.833,3.377-10.933,5.388-17.569,5.388c-6.635,0-12.736-2.01-17.569-5.388
	c1.367-10.607,9.428-19.698,17.569-19.698C264.14,46.218,272.201,55.31,273.568,65.916z"/>
<path style="fill:#7EDEE6;" d="M336.808,440.366H175.192c-9.526,0-17.248,7.722-17.248,17.248s7.722,17.248,17.248,17.248h161.616
	c9.526,0,17.248-7.722,17.248-17.248S346.334,440.366,336.808,440.366z"/>
<path style="fill:#77CCD9;" d="M188.85,457.615c0-9.526,7.722-17.248,17.248-17.248h-30.905c-9.526,0-17.248,7.722-17.248,17.248
	s7.722,17.248,17.248,17.248h30.905C196.572,474.863,188.85,467.141,188.85,457.615z"/>
<g>
</g>
<g>
</g>
<g>
</g>
<g>
</g>
<g>
</g>
<g>
</g>
<g>
</g>
<g>
</g>
<g>
</g>
<g>
</g>
<g>
</g>
<g>
</g>
<g>
</g>
<g>
</g>
<g>
</g>
</svg>
