<?xml version="1.0" encoding="iso-8859-1"?>
<!-- Generator: Adobe Illustrator 19.0.0, SVG Export Plug-In . SVG Version: 6.00 Build 0)  -->
<svg version="1.1" id="Capa_1" xmlns="http://www.w3.org/2000/svg" xmlns:xlink="http://www.w3.org/1999/xlink" x="0px" y="0px"
	 viewBox="0 0 512 512" style="enable-background:new 0 0 512 512;" xml:space="preserve">
<path style="fill:#7A6154;" d="M167.676,100.698c-52.881-32.22-130.744,24.633-131.981,98.787
	c-0.533,31.913-15.357,55.565-29.303,82.917c-12.136,23.799-6.829,56.615,14.537,73.481c26.513,20.928,62.219,2.879,81.661-19.141
	L167.676,100.698z"/>
<path style="fill:#6B554A;" d="M51.834,355.883c-21.366-16.865-26.672-49.68-14.537-73.481
	c13.947-27.352,28.772-51.004,29.303-82.917c0.884-52.981,40.882-97.119,82.938-106.261C98.661,81.138,36.797,133.45,35.696,199.485
	c-0.533,31.913-15.357,55.565-29.303,82.917c-12.136,23.799-6.829,56.615,14.537,73.481c13.079,10.323,28.393,11.152,42.89,6.709
	C59.684,361.089,55.661,358.905,51.834,355.883z"/>
<path style="fill:#7A6154;" d="M344.323,100.698c52.88-32.22,130.743,24.633,131.981,98.787
	c0.533,31.913,15.357,55.565,29.304,82.917c12.135,23.799,6.829,56.615-14.537,73.481c-26.513,20.928-62.219,2.879-81.661-19.141
	L344.323,100.698z"/>
<path style="fill:#F0F0F0;" d="M366.751,122.572C342.28,92.353,306.463,73.518,256,73.518s-86.28,18.836-110.752,49.054
	L102.59,336.742c0.306,3.309,0.649,6.609,1.02,9.9h304.78c0.371-3.29,0.714-6.59,1.02-9.9L366.751,122.572z"/>
<g>
	<path style="fill:#A18576;" d="M127.367,338.495c-8.444,0.862-16.759,0.223-24.777-1.752
		c-7.591-79.866,1.372-163.207,42.658-214.171c31.331,15.23,55.459,51.204,59.927,95.16
		C211.441,279.42,176.607,333.489,127.367,338.495z"/>
	<path style="fill:#A18576;" d="M409.409,336.742c-8.018,1.975-16.332,2.614-24.777,1.752
		c-49.24-5.006-84.074-59.075-77.808-120.763c4.468-43.956,28.596-79.931,59.927-95.16
		C408.037,173.535,417.001,256.876,409.409,336.742z"/>
</g>
<g>
	<path style="fill:#3B484A;" d="M163.305,243.718c-4.268,0-7.726-3.459-7.726-7.726v-16.777c0-4.267,3.458-7.726,7.726-7.726
		c4.268,0,7.726,3.459,7.726,7.726v16.777C171.031,240.259,167.573,243.718,163.305,243.718z"/>
	<path style="fill:#3B484A;" d="M348.694,243.718c-4.268,0-7.726-3.459-7.726-7.726v-16.777c0-4.267,3.458-7.726,7.726-7.726
		c4.268,0,7.726,3.459,7.726,7.726v16.777C356.421,240.259,352.962,243.718,348.694,243.718z"/>
</g>
<path style="fill:#D9D9D9;" d="M290.995,165.808l12.992-12.991c4.068-4.067,4.068-10.662,0-14.731l-37.843-37.844
	c-4.067-4.068-10.662-4.068-14.731,0l-12.992,12.992c-4.068,4.067-4.067,10.662,0,14.731l37.844,37.843
	C280.333,169.876,286.928,169.876,290.995,165.808z"/>
<path style="fill:#E6E6E6;" d="M303.987,113.235l-12.991-12.992c-4.067-4.068-10.662-4.068-14.731,0l-37.844,37.843
	c-4.068,4.067-4.068,10.662,0,14.731l12.992,12.992c4.067,4.068,10.662,4.067,14.731,0l37.843-37.844
	C308.055,123.896,308.055,117.302,303.987,113.235z"/>
<path style="fill:#7A6154;" d="M256,405.269c24.771,0,41.768,20.41,63.839,28.253c23.325,8.289,52.056,6.352,73.187-7.036
	c28.434-18.016,30.947-56.548,22.679-86.066c-18.943-67.64-93.08-106.326-159.705-106.326S115.238,272.778,96.295,340.419
	c-8.267,29.52-5.755,68.051,22.679,86.066c21.131,13.388,49.861,15.325,73.187,7.036C214.232,425.678,231.229,405.269,256,405.269z"
	/>
<path style="fill:#6B554A;" d="M149.88,426.485c-28.434-18.016-30.947-56.548-22.679-86.066
	c17.488-62.446,82.019-100.212,144.252-105.644c-5.177-0.452-10.337-0.682-15.453-0.682c-66.625,0-140.762,38.686-159.705,106.326
	c-8.267,29.52-5.755,68.051,22.679,86.066c17.069,10.815,39.095,14.154,59.227,10.67
	C168.096,435.394,158.374,431.867,149.88,426.485z"/>
<path style="fill:#3B484A;" d="M256,234.093c-10.058,0-20.286,0.888-30.47,2.618c1.329,15.668,14.459,27.971,30.47,27.971
	s29.141-12.304,30.47-27.971C276.286,234.98,266.057,234.093,256,234.093z"/>
<g>
</g>
<g>
</g>
<g>
</g>
<g>
</g>
<g>
</g>
<g>
</g>
<g>
</g>
<g>
</g>
<g>
</g>
<g>
</g>
<g>
</g>
<g>
</g>
<g>
</g>
<g>
</g>
<g>
</g>
</svg>
