<?xml version="1.0" encoding="iso-8859-1"?>
<!-- Generator: Adobe Illustrator 19.0.0, SVG Export Plug-In . SVG Version: 6.00 Build 0)  -->
<svg version="1.1" id="Capa_1" xmlns="http://www.w3.org/2000/svg" xmlns:xlink="http://www.w3.org/1999/xlink" x="0px" y="0px"
	 viewBox="0 0 512.001 512.001" style="enable-background:new 0 0 512.001 512.001;" xml:space="preserve">
<polygon style="fill:#FFE182;" points="256.001,23.217 82.234,46.444 82.234,110.075 256.001,134.312 429.767,110.075 
	429.767,46.444 "/>
<polygon style="fill:#FFBA4D;" points="113.139,110.075 113.139,46.444 271.453,25.283 256.001,23.217 82.234,46.444 
	82.234,110.075 256.001,134.312 271.453,132.156 "/>
<path style="fill:#FFE182;" d="M256.001,398.895L82.234,426.01v29.509c0,12.785,10.362,23.156,23.146,23.156l150.621,16.662
	l150.621-16.663c12.785,0,23.146-10.371,23.146-23.156v-29.509L256.001,398.895z"/>
<g>
	<path style="fill:#FFBA4D;" d="M136.285,478.675c-12.785,0-23.146-10.372-23.146-23.156V426.01l158.314-24.703l-15.453-2.412
		L82.234,426.01v29.509c0,12.785,10.362,23.156,23.146,23.156l150.621,16.662l15.453-1.709L136.285,478.675z"/>
	<path style="fill:#FFBA4D;" d="M403.377,0H108.624C88.511,0,72.206,16.305,72.206,36.418l0,0c0,5.536,4.487,10.024,10.024,10.024
		h347.542c5.536,0,10.024-4.487,10.024-10.024l0,0C439.795,16.305,423.49,0,403.377,0z"/>
</g>
<path style="fill:#FAA330;" d="M103.111,36.418L103.111,36.418C103.111,16.305,119.416,0,139.529,0h-30.905
	C88.511,0,72.206,16.305,72.206,36.418l0,0c0,5.536,4.487,10.024,10.024,10.024h30.905
	C107.599,46.442,103.111,41.954,103.111,36.418z"/>
<path style="fill:#FFBA4D;" d="M105.383,478.675v8.989c0,13.441,10.895,24.336,24.336,24.336h252.562
	c13.441,0,24.336-10.896,24.336-24.336v-8.989H105.383z"/>
<path style="fill:#FAA330;" d="M136.288,487.664v-8.989h-30.905v8.989c0,13.441,10.895,24.337,24.336,24.337h30.905
	C147.185,512,136.288,501.104,136.288,487.664z"/>
<rect x="82.23" y="110.075" style="fill:#7EDEE6;" width="347.532" height="315.936"/>
<rect x="82.23" y="110.075" style="fill:#77CCD9;" width="30.905" height="315.936"/>
<path style="fill:#D99337;" d="M387.449,154.528c-2.142-5.387-7.26-9.025-13.051-9.28c-47.748-2.093-69.497,41.177-69.497,41.177
	l66.478,47.268C371.378,233.695,405.107,198.94,387.449,154.528z"/>
<path style="fill:#FABED5;" d="M323.834,188.581c1.469-1.656,3.13-3.377,4.984-5.084c11.009-10.14,23.708-15.282,37.744-15.282
	c0.404,0,0.812,0.004,1.221,0.012c7.378,19.916,0.663,38.162-5.435,49.038L323.834,188.581z"/>
<path style="fill:#D99337;" d="M124.552,154.528c2.142-5.387,7.26-9.025,13.051-9.28c47.747-2.093,69.497,41.177,69.497,41.177
	l-66.478,47.268C140.623,233.695,106.895,198.94,124.552,154.528z"/>
<path style="fill:#FABED5;" d="M188.167,188.581c-1.469-1.656-3.13-3.377-4.984-5.084c-11.009-10.14-23.708-15.282-37.744-15.282
	c-0.404,0-0.812,0.004-1.221,0.012c-7.378,19.916-0.663,38.162,5.435,49.038L188.167,188.581z"/>
<path style="fill:#FAA330;" d="M386.64,306.714c0,39.825-5.838,73.687-96.345,80.194v-0.005
	c77.564-36.313,53.367-108.668,17.965-108.668s-28.659-58.441-52.26-58.441s-16.858,58.441-52.26,58.441
	s-59.599,72.355,17.965,108.668l0.005,0.005c-90.512-6.501-96.35-40.37-96.35-80.194c0-44.353,20.325-146.143,130.639-146.143
	S386.64,262.36,386.64,306.714z"/>
<path style="fill:#F0F0F0;" d="M290.295,386.902v0.005c-10.301,0.737-21.69,1.124-34.295,1.124s-23.995-0.387-34.29-1.124
	l-0.005-0.005c-77.564-36.313-53.368-108.668-17.965-108.668s28.659-58.441,52.26-58.441s16.858,58.441,52.26,58.441
	S367.86,350.59,290.295,386.902z"/>
<g>
	<path style="fill:#3B484A;" d="M205.988,269.026c-4.267,0-7.726-3.459-7.726-7.726v-9.051c0-4.267,3.459-7.726,7.726-7.726
		s7.726,3.459,7.726,7.726v9.051C213.715,265.566,210.255,269.026,205.988,269.026z"/>
	<path style="fill:#3B484A;" d="M306.013,269.026c-4.267,0-7.726-3.459-7.726-7.726v-9.051c0-4.267,3.459-7.726,7.726-7.726
		c4.267,0,7.726,3.459,7.726,7.726v9.051C313.739,265.566,310.28,269.026,306.013,269.026z"/>
	<path style="fill:#3B484A;" d="M256.001,294.952c-7.784,0-15.186-2.638-20.307-7.239c-3.175-2.852-3.437-7.737-0.585-10.911
		c2.852-3.175,7.737-3.437,10.911-0.585c2.288,2.055,6.019,3.282,9.981,3.282c3.962,0,7.693-1.227,9.981-3.282
		c3.175-2.85,8.059-2.59,10.912,0.585c2.852,3.175,2.589,8.059-0.585,10.911C271.186,292.314,263.785,294.952,256.001,294.952z"/>
	<path style="fill:#3B484A;" d="M267.126,263.258h-22.252c-4.421,0-5.658,6.054-1.598,7.804c3.868,1.666,8.179,2.596,12.724,2.596
		c4.545,0,8.856-0.93,12.724-2.596C272.784,269.312,271.547,263.258,267.126,263.258z"/>
</g>
<g>
</g>
<g>
</g>
<g>
</g>
<g>
</g>
<g>
</g>
<g>
</g>
<g>
</g>
<g>
</g>
<g>
</g>
<g>
</g>
<g>
</g>
<g>
</g>
<g>
</g>
<g>
</g>
<g>
</g>
</svg>
