<?xml version="1.0" encoding="iso-8859-1"?>
<!-- Generator: Adobe Illustrator 19.0.0, SVG Export Plug-In . SVG Version: 6.00 Build 0)  -->
<svg version="1.1" id="Capa_1" xmlns="http://www.w3.org/2000/svg" xmlns:xlink="http://www.w3.org/1999/xlink" x="0px" y="0px"
	 viewBox="0 0 512 512" style="enable-background:new 0 0 512 512;" xml:space="preserve">
<path style="fill:#7EDEE6;" d="M248.039,455.455c-8.331,0-15.086-6.754-15.086-15.086c0-8.331,6.754-15.086,15.086-15.086
	c65.908,0,109.577-2.874,133.505-8.786c15.422-3.81,17.225-7.087,19.509-11.235c10.783-19.588,26.229-25.692,96.394-23.215
	c8.327,0.293,14.839,7.28,14.544,15.607c-0.293,8.327-7.293,14.859-15.607,14.544c-31.386-1.107-51.697-0.277-62.104,2.533
	c-4.699,1.269-4.856,1.557-6.796,5.081C415.632,441.342,396.739,455.455,248.039,455.455z"/>
<path style="fill:#CBFDFF;" d="M251.179,56.747c-0.01,0-0.01,0-0.01,0h-40.084l-67.688,12.28l-80.081,71.577l3.647,35.346
	l25.713,41.795h31.637l166.673-80.499l36.685-44.658C305.305,75.713,279.355,63.319,251.179,56.747z"/>
<g>
	<path style="fill:#7EDEE6;" d="M204.574,51.421c-70.176,0-132.1,35.335-168.95,89.183v30.926l31.338,4.419
		C72,166.75,124.024,77.33,251.169,56.747C236.2,53.265,220.603,51.421,204.574,51.421z"/>
	<path style="fill:#7EDEE6;" d="M327.681,92.587h-0.01C189.677,120.33,131.235,206.278,124.312,217.744l36.87,42.382l45.483-6.562
		l108.015-31.039l71.69-60.431C372.215,134.741,352.086,111.006,327.681,92.587z"/>
</g>
<path style="fill:#77CCD9;" d="M386.37,205.01l-40.084-35.438c-25.425,7.005-48.419,17.668-68.074,29.051l2.328,247.368
	c37.983-15.185,70.351-41.455,93.118-74.802l-0.01-0.01l7.994-49.243L386.37,205.01z"/>
<path style="fill:#CBFDFF;" d="M278.211,198.624c-44.226,25.621-71.546,54.94-71.546,54.94l-38.967,80.738l28.387,126.092
	c2.812,0.124,5.645,0.185,8.489,0.185c26.847,0,52.478-5.171,75.966-14.587C330.081,307.36,280.746,203.796,278.211,198.624z"/>
<path style="fill:#7EDEE6;" d="M217.564,342.674L100.99,271.942L1.576,230.58C0.536,238.904,0,247.383,0,255.995
	c0,20.192,2.926,39.693,8.375,58.113l13.688,24.447l47.58,50.938l113.072,39.743l27.957-13.985l-1.136-1.919
	c0.695-0.002,1.224-0.01,1.548-0.018c1.104-5.298,2.104-10.622,2.885-15.978c2.419-16.583,3.626-33.298,3.626-50.057
	C217.595,345.734,217.585,344.198,217.564,342.674z"/>
<path style="fill:#CBFDFF;" d="M409.158,255.994c0,42.711-13.104,82.384-35.5,115.195l-0.01-0.01
	c12.208-105.604-18.512-182.208-27.362-201.607c12.785-3.544,26.187-6.16,40.084-7.479h0.01
	C400.927,190.218,409.158,222.142,409.158,255.994z"/>
<g>
	<path style="fill:#77CCD9;" d="M211.085,413.313c-0.134,0.649-0.278,1.288-0.412,1.937c-1.726,8.363-4.051,16.594-6.717,24.704
		c-1.885,5.735-4.014,11.373-6.356,16.936c-0.494,1.174-0.999,2.339-1.514,3.503c-89.059-3.626-163.439-64.201-187.71-146.286
		C93.056,414.241,203.544,413.489,211.085,413.313z"/>
	<path style="fill:#77CCD9;" d="M217.564,342.674c-13.794-0.525-120.902-7.922-215.988-112.094
		c4.09-33.1,16.091-63.737,34.048-89.976c9.323,13.063,19.996,24.817,31.338,35.346c18.265,16.977,38.302,30.782,57.35,41.795
		c43.783,25.312,82.353,35.819,82.353,35.819s0.165,0.608,0.443,1.762c0.041,0.144,0.072,0.288,0.113,0.453
		c6.532,26.169,9.47,53.234,10.21,80.164C217.444,336.394,217.539,342.673,217.564,342.674z"/>
</g>
<g>
</g>
<g>
</g>
<g>
</g>
<g>
</g>
<g>
</g>
<g>
</g>
<g>
</g>
<g>
</g>
<g>
</g>
<g>
</g>
<g>
</g>
<g>
</g>
<g>
</g>
<g>
</g>
<g>
</g>
</svg>
