<?xml version="1.0" encoding="iso-8859-1"?>
<!-- Generator: Adobe Illustrator 19.0.0, SVG Export Plug-In . SVG Version: 6.00 Build 0)  -->
<svg version="1.1" id="Capa_1" xmlns="http://www.w3.org/2000/svg" xmlns:xlink="http://www.w3.org/1999/xlink" x="0px" y="0px"
	 viewBox="0 0 511.999 511.999" style="enable-background:new 0 0 511.999 511.999;" xml:space="preserve">
<g>
	<path style="fill:#FC7C81;" d="M158.366,284.579c-3.045,55.133-55.169,135.056-79.868,170.054
		c-4.089,5.794,1.37,13.507,8.192,11.571l46.47-13.182c3.609-1.024,7.419,0.769,8.932,4.201l17.423,50.281
		c2.262,5.132,9.164,6.086,12.704,1.734c57.703-70.96,78.799-173.55,78.799-173.55L158.366,284.579z"/>
	<path style="fill:#FC7C81;" d="M353.633,284.579c3.045,55.133,55.169,135.056,79.868,170.054c4.089,5.794-1.37,13.507-8.192,11.571
		l-46.47-13.183c-3.609-1.024-7.419,0.769-8.932,4.201l-17.423,50.281c-2.262,5.132-9.164,6.086-12.704,1.734
		c-57.702-70.96-78.799-173.55-78.799-173.55L353.633,284.579z"/>
</g>
<g>
	<path style="fill:#E67176;" d="M377.8,362.052c-12.938-26.753-22.888-54.302-24.167-77.474l-92.652,51.108
		c0,0,5.427,26.371,18.291,61.614c9.868-3.676,18.848-9.656,26.068-17.58c0.932-1.024,2.263-1.611,3.65-1.611
		c0.503,0,1.005,0.079,1.493,0.234c6.585,2.096,13.405,3.16,20.271,3.16c14.941,0,29.647-5.122,41.409-14.424
		C374.144,365.512,376.02,363.826,377.8,362.052z"/>
	<path style="fill:#E67176;" d="M134.199,362.052c1.781,1.774,3.656,3.46,5.64,5.028c11.763,9.3,26.468,14.424,41.408,14.424
		c6.866,0,13.686-1.063,20.272-3.16c0.487-0.155,0.989-0.234,1.492-0.234c1.387,0,2.718,0.587,3.651,1.612
		c7.219,7.923,16.199,13.903,26.067,17.578c12.864-35.242,18.291-61.614,18.291-61.614l-92.652-51.108
		C157.087,307.75,147.137,335.299,134.199,362.052z"/>
</g>
<path style="fill:#FAA330;" d="M429.602,158.812L429.602,158.812c-10.35-9.43-14.261-24.025-10.012-37.367l0,0
	c6.405-20.112-5.872-41.376-26.492-45.885l0,0c-13.679-2.992-24.363-13.676-27.354-27.354l0,0
	c-4.51-20.62-25.773-32.897-45.885-26.492l0,0c-13.342,4.248-27.936,0.338-37.367-10.012l0,0c-14.215-15.602-38.769-15.602-52.984,0
	l0,0c-9.43,10.35-24.025,14.261-37.367,10.012l0,0c-20.112-6.405-41.376,5.872-45.885,26.492l0,0
	c-2.992,13.679-13.676,24.363-27.354,27.354l0,0c-20.62,4.51-32.897,25.773-26.492,45.885l0,0
	c4.248,13.342,0.338,27.936-10.012,37.367l0,0c-15.603,14.215-15.603,38.769,0,52.984l0,0c10.35,9.43,14.261,24.025,10.012,37.367
	l0,0c-6.405,20.112,5.872,41.376,26.492,45.885l0,0c13.679,2.992,24.363,13.676,27.354,27.354l0,0
	c4.51,20.62,25.773,32.897,45.885,26.492l0,0c13.342-4.248,27.936-0.338,37.367,10.012l0,0c14.215,15.602,38.769,15.602,52.984,0
	l0,0c9.43-10.35,24.025-14.261,37.367-10.012l0,0c20.112,6.405,41.376-5.872,45.885-26.492l0,0
	c2.992-13.679,13.676-24.363,27.354-27.354l0,0c20.62-4.51,32.897-25.773,26.492-45.885l0,0
	c-4.248-13.342-0.338-27.936,10.012-37.367l0,0C445.206,197.581,445.206,173.028,429.602,158.812z"/>
<circle style="fill:#FFE182;" cx="255.999" cy="185.308" r="135.798"/>
<g>
	<path style="fill:#FFBA4D;" d="M143.891,185.304c0-71.009,54.503-129.278,123.956-135.282c-3.905-0.338-7.854-0.52-11.847-0.52
		c-75.001,0-135.803,60.801-135.803,135.803c0,75.002,60.801,135.803,135.803,135.803c3.993,0,7.942-0.182,11.847-0.52
		C198.394,314.583,143.891,256.314,143.891,185.304z"/>
	
		<ellipse transform="matrix(-0.2699 0.9629 -0.9629 -0.2699 560.7704 -114.9143)" style="fill:#FFBA4D;" cx="323.952" cy="155.143" rx="18.053" ry="13.557"/>
	
		<ellipse transform="matrix(-0.1634 0.9866 -0.9866 -0.1634 455.1535 -127.6001)" style="fill:#FFBA4D;" cx="281.679" cy="129.186" rx="19.572" ry="14.698"/>
	
		<ellipse transform="matrix(-0.2699 -0.9629 0.9629 -0.2699 89.3948 378.0625)" style="fill:#FFBA4D;" cx="188.029" cy="155.14" rx="18.053" ry="13.557"/>
	
		<ellipse transform="matrix(-0.1634 -0.9866 0.9866 -0.1634 140.499 377.5475)" style="fill:#FFBA4D;" cx="230.33" cy="129.202" rx="19.572" ry="14.698"/>
	<path style="fill:#FFBA4D;" d="M307.287,192.614c-24.36,0-23.145-23.892-51.288-23.892s-26.929,23.892-51.288,23.892
		c-18.97,0-40.23,31.585-22.918,60.337c17.312,28.751,45.253,8.909,74.206,8.909s56.894,19.842,74.206-8.909
		C347.518,224.199,326.257,192.614,307.287,192.614z"/>
</g>
<g>
</g>
<g>
</g>
<g>
</g>
<g>
</g>
<g>
</g>
<g>
</g>
<g>
</g>
<g>
</g>
<g>
</g>
<g>
</g>
<g>
</g>
<g>
</g>
<g>
</g>
<g>
</g>
<g>
</g>
</svg>
