<?xml version="1.0" encoding="iso-8859-1"?>
<!-- Generator: Adobe Illustrator 19.0.0, SVG Export Plug-In . SVG Version: 6.00 Build 0)  -->
<svg version="1.1" id="Capa_1" xmlns="http://www.w3.org/2000/svg" xmlns:xlink="http://www.w3.org/1999/xlink" x="0px" y="0px"
	 viewBox="0 0 512 512" style="enable-background:new 0 0 512 512;" xml:space="preserve">
<g>
	<path style="fill:#BCBCBC;" d="M43.128,0c-7.607,0-13.774,6.167-13.774,13.774v56.75l13.774,12.991l13.774-12.991v-56.75
		C56.901,6.167,50.735,0,43.128,0z"/>
	<path style="fill:#BCBCBC;" d="M96.346,0c-7.607,0-13.774,6.167-13.774,13.774v56.75l13.774,12.991l13.774-12.991v-56.75
		C110.12,6.167,103.953,0,96.346,0z"/>
	<path style="fill:#BCBCBC;" d="M149.564,0c-7.607,0-13.774,6.167-13.774,13.774v56.75l13.774,12.991l13.774-12.991v-56.75
		C163.337,6.167,157.171,0,149.564,0z"/>
	<path style="fill:#BCBCBC;" d="M202.781,0c-7.607,0-13.774,6.167-13.774,13.774v56.75l13.774,12.991l13.774-12.991v-56.75
		C216.555,6.167,210.388,0,202.781,0z"/>
	<path style="fill:#BCBCBC;" d="M255.999,0c-7.607,0-13.774,6.167-13.774,13.774v56.75l13.774,12.991l13.773-12.991v-56.75
		C269.773,6.167,263.606,0,255.999,0z"/>
	<path style="fill:#BCBCBC;" d="M309.217,0c-7.607,0-13.773,6.167-13.773,13.774v56.75l13.773,12.991l13.774-12.991v-56.75
		C322.99,6.167,316.824,0,309.217,0z"/>
	<path style="fill:#BCBCBC;" d="M362.435,0c-7.607,0-13.774,6.167-13.774,13.774v56.75l13.774,12.991l13.773-12.991v-56.75
		C376.208,6.167,370.041,0,362.435,0z"/>
	<path style="fill:#BCBCBC;" d="M415.653,0c-7.607,0-13.774,6.167-13.774,13.774v56.75l13.774,12.991l13.774-12.991v-56.75
		C429.426,6.167,423.26,0,415.653,0z"/>
	<path style="fill:#BCBCBC;" d="M468.871,0c-7.607,0-13.773,6.167-13.773,13.774v56.75l13.773,12.991l13.774-12.991v-56.75
		C482.643,6.167,476.477,0,468.871,0z"/>
</g>
<path style="fill:#A2D497;" d="M221.613,266.851c0,122.88-23.473,93.404-23.473,169.822s57.859,75.326,57.859,75.326
	s57.859,1.092,57.859-75.326s-23.473-46.942-23.473-169.822l-34.386-29.956L221.613,266.851z"/>
<path style="fill:#80A878;" d="M229.046,436.673c0-69.084,19.183-51.632,22.865-138.432c0.134-3.147,2.715-5.635,5.865-5.635h33.006
	c-0.257-7.764-0.397-16.306-0.397-25.755l-34.385-29.957l-34.386,29.956c0,1.709-0.006,3.378-0.015,5.028
	c-0.031,5.692-0.115,11.386-0.272,17.075c-2.669,97.376-23.186,76.272-23.186,147.719c0,76.418,57.859,75.326,57.859,75.326
	s6.657,0.122,15.453-2.693C254.312,503.821,229.046,487.175,229.046,436.673z"/>
<path style="fill:#A2D497;" d="M255.999,106.767L29.355,143.011v21.779c0,56.363,45.686,102.061,102.061,102.061h249.166
	c56.375,0,102.061-45.698,102.061-102.061v-21.779L255.999,106.767z"/>
<path style="fill:#80A878;" d="M60.261,164.79v-21.779l211.191-33.772l-15.453-2.471L29.355,143.011v21.779
	c0,56.363,45.686,102.061,102.061,102.061h30.905C105.947,266.851,60.261,221.153,60.261,164.79z"/>
<rect x="29.355" y="70.526" style="fill:#E3E3E3;" width="453.29" height="72.484"/>
<g>
	<circle style="fill:#BCBCBC;" cx="80.055" cy="106.5" r="13.693"/>
	<circle style="fill:#BCBCBC;" cx="431.944" cy="106.5" r="13.693"/>
</g>
<g>
	<path style="fill:#3B484A;" d="M169.479,209.089c-4.268,0-7.726-3.459-7.726-7.726v-15.659c0-4.267,3.458-7.726,7.726-7.726
		s7.726,3.459,7.726,7.726v15.659C177.205,205.629,173.747,209.089,169.479,209.089z"/>
	<path style="fill:#3B484A;" d="M342.519,209.089c-4.268,0-7.726-3.459-7.726-7.726v-15.659c0-4.267,3.458-7.726,7.726-7.726
		c4.268,0,7.726,3.459,7.726,7.726v15.659C350.245,205.629,346.787,209.089,342.519,209.089z"/>
	<path style="fill:#3B484A;" d="M255.999,217.448c-10.552,0-20.455-4.406-27.171-12.089c-2.809-3.213-2.481-8.094,0.732-10.902
		c3.212-2.808,8.093-2.48,10.901,0.732c3.782,4.326,9.445,6.806,15.537,6.806s11.756-2.481,15.538-6.806
		c2.808-3.212,7.688-3.541,10.902-0.731c3.212,2.808,3.541,7.689,0.731,10.902C276.454,213.04,266.551,217.448,255.999,217.448z"/>
</g>
<g>
</g>
<g>
</g>
<g>
</g>
<g>
</g>
<g>
</g>
<g>
</g>
<g>
</g>
<g>
</g>
<g>
</g>
<g>
</g>
<g>
</g>
<g>
</g>
<g>
</g>
<g>
</g>
<g>
</g>
</svg>
