<?xml version="1.0" encoding="iso-8859-1"?>
<!-- Generator: Adobe Illustrator 19.0.0, SVG Export Plug-In . SVG Version: 6.00 Build 0)  -->
<svg version="1.1" id="Capa_1" xmlns="http://www.w3.org/2000/svg" xmlns:xlink="http://www.w3.org/1999/xlink" x="0px" y="0px"
	 viewBox="0 0 512 512" style="enable-background:new 0 0 512 512;" xml:space="preserve">
<polygon style="fill:#FFBA4D;" points="54.409,206.438 54.409,479.421 457.591,479.421 457.591,206.438 457.591,161.775 256,40.621 
	54.409,168.902 "/>
<path style="fill:#FAA330;" d="M54.409,168.902v37.537v32.592c5.878-1.076,11.515-3.281,16.616-6.532L256,114.548l184.976,117.949
	c5.099,3.251,10.738,5.456,16.616,6.532v-32.591v-44.662L256,40.621L54.409,168.902z"/>
<path style="fill:#FC7C81;" d="M495.908,146.348L275.157,5.588c-11.685-7.451-26.631-7.45-38.316,0L16.093,146.348
	c-7.262,4.631-9.395,14.272-4.765,21.534l21.547,33.792c4.631,7.262,14.272,9.395,21.534,4.765L256,77.894l201.591,128.544
	c7.262,4.631,16.903,2.497,21.534-4.765l21.547-33.792C505.303,160.619,503.169,150.979,495.908,146.348z"/>
<path style="fill:#F0F0F0;" d="M299.351,137.341h-86.702c-3.61,0-6.535,2.926-6.535,6.535v25.616c0,3.61,2.926,6.535,6.535,6.535
	h86.702c3.61,0,6.535-2.926,6.535-6.535v-25.616C305.887,140.267,302.961,137.341,299.351,137.341z"/>
<g>
	<path style="fill:#D9D9D9;" d="M299.351,137.34h-7.608l14.143,9.018v-2.483C305.887,140.267,302.961,137.34,299.351,137.34z"/>
	<path style="fill:#D9D9D9;" d="M220.256,137.34h-7.607c-3.61,0-6.535,2.926-6.535,6.535v2.483L220.256,137.34z"/>
</g>
<path style="fill:#3B484A;" d="M256,202.499L256,202.499c-72.431,0-120.967,58.716-120.967,131.147v145.775h241.933V333.646
	C376.967,261.215,328.431,202.499,256,202.499z"/>
<g>
	<path style="fill:#886A5E;" d="M171.392,315.752c-34.51-24.339-39.261,6.204-63.695,22.493s6.15,47.272,41.424,22.618
		L171.392,315.752z"/>
	<path style="fill:#886A5E;" d="M340.607,315.752c34.51-24.339,39.261,6.204,63.695,22.493s-6.15,47.272-41.424,22.618
		L340.607,315.752z"/>
</g>
<path style="fill:#F0F0F0;" d="M403.879,426.905c-5.942-15.113-20.036-24.23-28.637-37.554
	c-8.091-12.534-11.879-27.097-16.277-41.187c-11.593-37.14-43.645-59.467-82.603-59.467h-40.723
	c-38.958,0-71.01,22.327-82.603,59.467c-4.398,14.09-8.187,28.652-16.277,41.187c-8.6,13.324-22.695,22.441-28.637,37.554
	c-2.495,6.347-3.63,13.128-3.63,19.937L256,479.421l151.509-32.579C407.509,440.033,406.375,433.252,403.879,426.905z"/>
<path style="fill:#D9D9D9;" d="M129.215,446.842c0-6.809,1.135-13.589,3.63-19.937c5.942-15.113,20.036-24.23,28.637-37.554
	c8.091-12.534,11.879-27.097,16.277-41.186c11.593-37.141,43.645-59.468,82.603-59.468h-24.724
	c-38.958,0-71.01,22.327-82.603,59.468c-4.398,14.09-8.187,28.652-16.277,41.186c-8.6,13.324-22.695,22.441-28.637,37.554
	c-2.495,6.347-3.63,13.128-3.63,19.937L256,479.422l12.362-2.659L129.215,446.842z"/>
<path style="fill:#886A5E;" d="M265.7,407.136h-19.399c-21.928,0-39.705,17.777-39.705,39.705l0,0h98.811l0,0
	C305.406,424.913,287.629,407.136,265.7,407.136z"/>
<g>
	<path style="fill:#3B484A;" d="M279.055,409.445c-4.174-1.491-8.668-2.309-13.354-2.309h-19.399c-4.686,0-9.181,0.818-13.355,2.309
		c3.181,9.693,12.297,16.696,23.054,16.696C266.757,426.141,275.873,419.139,279.055,409.445z"/>
	<path style="fill:#3B484A;" d="M189.013,410.457c-6.291,0-12.211-2.643-16.24-7.252c-2.808-3.213-2.481-8.094,0.731-10.902
		c3.212-2.808,8.093-2.481,10.902,0.731c1.095,1.252,2.773,1.97,4.606,1.97c1.832,0,3.511-0.718,4.605-1.97
		c2.809-3.213,7.69-3.541,10.902-0.731c3.212,2.808,3.54,7.689,0.731,10.902C201.222,407.815,195.303,410.457,189.013,410.457z"/>
	<path style="fill:#3B484A;" d="M322.988,410.457c-6.291,0-12.211-2.643-16.24-7.252c-2.808-3.213-2.481-8.094,0.732-10.902
		c3.212-2.808,8.093-2.481,10.902,0.732c1.094,1.252,2.772,1.97,4.605,1.97c1.832,0,3.511-0.718,4.605-1.97
		c2.809-3.213,7.689-3.54,10.902-0.731c3.213,2.808,3.541,7.689,0.731,10.902C335.197,407.814,329.278,410.457,322.988,410.457z"/>
</g>
<rect x="25.369" y="446.841" style="fill:#7EDEE6;" width="461.264" height="65.159"/>
<g>
</g>
<g>
</g>
<g>
</g>
<g>
</g>
<g>
</g>
<g>
</g>
<g>
</g>
<g>
</g>
<g>
</g>
<g>
</g>
<g>
</g>
<g>
</g>
<g>
</g>
<g>
</g>
<g>
</g>
</svg>
