<?xml version="1.0" encoding="iso-8859-1"?>
<!-- Generator: Adobe Illustrator 19.0.0, SVG Export Plug-In . SVG Version: 6.00 Build 0)  -->
<svg version="1.1" id="Capa_1" xmlns="http://www.w3.org/2000/svg" xmlns:xlink="http://www.w3.org/1999/xlink" x="0px" y="0px"
	 viewBox="0 0 512 512" style="enable-background:new 0 0 512 512;" xml:space="preserve">
<path style="fill:#FC7C81;" d="M256,456.079c459.974-241.09,172.887-517.074,0-348.111C83.113-60.995-203.974,214.989,256,456.079z"
	/>
<path style="fill:#E67176;" d="M163.08,58.176C12.86,31.862-117.465,240.728,219.082,435.742
	C-20.617,258.113,46.66,80.072,163.08,58.176z"/>
<path style="fill:#A2D497;" d="M212.552,358.677h-0.53c-2.464,0-4.771-1.21-6.171-3.238c-0.996-1.442-1.443-3.166-1.304-4.871
	l-36.829-123.911l-36.107,95.384c-1.104,2.916-3.896,4.845-7.014,4.845H7.5c-4.142,0-7.5-3.358-7.5-7.5s3.358-7.5,7.5-7.5h111.917
	l42.144-111.329c1.139-3.01,4.076-4.952,7.288-4.84c3.216,0.117,5.999,2.273,6.916,5.358l37.411,125.872l35.811-94.6
	c1.046-2.764,3.619-4.656,6.57-4.832c2.945-0.175,5.729,1.399,7.095,4.021l34.839,66.847l38.708-139.565
	c0.9-3.248,3.857-5.496,7.227-5.496s6.327,2.248,7.227,5.496l42.454,153.066H504.5c4.142,0,7.5,3.358,7.5,7.5s-3.358,7.5-7.5,7.5
	H387.403c-3.37,0-6.327-2.248-7.227-5.496l-36.75-132.504L307.44,318.633c0.161,1.596-0.192,3.228-1.05,4.642
	c-1.359,2.242-3.791,3.611-6.413,3.611h-0.53c-2.343,0-4.552-1.095-5.97-2.96c-0.811-1.066-1.31-2.313-1.472-3.607l-34.919-67.002
	l-37.035,97.833c0.006,1.607-0.505,3.194-1.488,4.512C217.148,357.559,214.919,358.677,212.552,358.677z"/>
<g>
</g>
<g>
</g>
<g>
</g>
<g>
</g>
<g>
</g>
<g>
</g>
<g>
</g>
<g>
</g>
<g>
</g>
<g>
</g>
<g>
</g>
<g>
</g>
<g>
</g>
<g>
</g>
<g>
</g>
</svg>
