<?xml version="1.0" encoding="iso-8859-1"?>
<!-- Generator: Adobe Illustrator 19.0.0, SVG Export Plug-In . SVG Version: 6.00 Build 0)  -->
<svg version="1.1" id="Capa_1" xmlns="http://www.w3.org/2000/svg" xmlns:xlink="http://www.w3.org/1999/xlink" x="0px" y="0px"
	 viewBox="0 0 512 512" style="enable-background:new 0 0 512 512;" xml:space="preserve">
<path style="fill:#E69C3A;" d="M510.79,44.966c-1.005-11.962-11.468-20.843-23.435-19.891
	c-34.081,2.71-103.649,13.673-161.542,57.497l154.495,131.132C514.142,149.459,513.652,79.034,510.79,44.966z"/>
<path style="fill:#FABED5;" d="M476.723,74.704c-0.108-6.784-6.172-11.931-12.883-10.934c-25.056,3.719-57.742,11.511-89.65,27.763
	l89.708,76.142C474.749,133.55,477.126,100.031,476.723,74.704z"/>
<path style="fill:#E69C3A;" d="M1.21,44.966c1.005-11.962,11.469-20.844,23.436-19.892c34.081,2.71,103.649,13.673,161.542,57.497
	L31.692,213.704C-2.142,149.459-1.652,79.034,1.21,44.966z"/>
<path style="fill:#D99337;" d="M12.201,164.837c4.673,16.229,11,32.742,19.492,48.867L186.188,82.572
	c-15.228-11.528-31.264-20.763-47.25-28.191c-33.49,14.196-63.706,34.45-88.472,59.712C35.252,129.612,22.44,146.68,12.201,164.837z
	"/>
<path style="fill:#FABED5;" d="M35.276,74.704c0.108-6.784,6.172-11.931,12.883-10.934c25.056,3.719,57.742,11.511,89.65,27.763
	l-89.708,76.142C37.251,133.55,34.874,100.031,35.276,74.704z"/>
<path style="fill:#F0F0F0;" d="M23.911,334.858C53.559,422.825,146.244,486.995,256,486.995s202.441-64.17,232.089-152.137
	L294.312,64.446c-12.475-1.751-25.27-2.658-38.312-2.658c-13.042,0-25.837,0.907-38.312,2.658L23.911,334.858"/>
<path style="fill:#E6A8BF;" d="M38.714,126.941c1.993,13.143,4.983,26.883,9.387,40.733l89.708-76.143
	c-13.156-6.7-26.439-11.945-39.269-16.076c-17.569,11.066-33.735,24.012-48.074,38.638
	C46.375,118.267,42.457,122.552,38.714,126.941z"/>
<path style="fill:#D99337;" d="M499.799,164.837c-4.673,16.229-11,32.742-19.492,48.867L325.812,82.572
	c15.228-11.528,31.264-20.763,47.25-28.191c33.49,14.196,63.706,34.45,88.472,59.712C476.748,129.612,489.56,146.68,499.799,164.837
	z"/>
<path style="fill:#E6A8BF;" d="M473.285,126.941c-1.993,13.143-4.983,26.883-9.387,40.733L374.19,91.532
	c13.156-6.7,26.439-11.945,39.269-16.076c17.569,11.066,33.735,24.012,48.074,38.638
	C465.625,118.267,469.543,122.552,473.285,126.941z"/>
<path style="fill:#FAA330;" d="M238.374,149.456c0,103.265-84.928,186.988-189.698,186.988c-8.396,0-16.658-0.536-24.766-1.586
	c-6.459-19.161-9.931-39.466-9.931-60.472c0-105.954,88.245-193.818,203.708-209.941C230.915,89.953,238.374,118.85,238.374,149.456
	z"/>
<g>
	<path style="fill:#3B484A;" d="M149.954,282.441c-4.267,0-7.726-3.459-7.726-7.726v-19.192c0-4.267,3.459-7.726,7.726-7.726
		s7.726,3.459,7.726,7.726v19.192C157.681,278.981,154.222,282.441,149.954,282.441z"/>
	<path style="fill:#3B484A;" d="M238.377,301.952c-9.099,0-17.642-3.804-23.441-10.439c-2.808-3.212-2.481-8.093,0.731-10.902
		c3.213-2.808,8.093-2.481,10.902,0.732c2.865,3.277,7.168,5.156,11.807,5.156c4.639,0,8.942-1.879,11.806-5.156
		c2.809-3.213,7.69-3.54,10.902-0.732c3.213,2.808,3.541,7.689,0.732,10.902C256.019,298.148,247.474,301.952,238.377,301.952z"/>
	<path style="fill:#3B484A;" d="M273.624,301.952c-9.099,0-17.642-3.804-23.441-10.439c-2.808-3.212-2.481-8.094,0.731-10.902
		c3.212-2.808,8.093-2.481,10.902,0.731c2.865,3.277,7.169,5.156,11.807,5.156c4.639,0,8.942-1.879,11.806-5.156
		c2.809-3.213,7.69-3.541,10.902-0.732c3.213,2.808,3.542,7.689,0.732,10.902C291.266,298.148,282.723,301.952,273.624,301.952z"/>
</g>
<path style="fill:#F0F0F0;" d="M492.385,228.564l-52.507-60.889l-46.205-68.162c-14.629-8.901-30.442-16.421-47.172-22.355h-26.578
	l-20.95,78.996l44.67,102.333l115.21,50.15l39.053-27.999c0.082-2.071,0.113-4.162,0.113-6.253
	C498.02,258.656,496.073,243.315,492.385,228.564z"/>
<g>
	<path style="fill:#D9D9D9;" d="M497.907,280.64c-0.608,18.79-3.997,36.963-9.818,54.218c-8.108,1.051-16.37,1.586-24.766,1.586
		c-104.769,0-189.698-83.723-189.698-186.988c0-30.607,7.458-59.503,20.686-85.011c18.152,2.534,35.624,6.84,52.189,12.712
		c-13.526,20.933-21.366,45.73-21.366,72.298c0,74.698,61.986,135.479,138.189,135.479
		C475.264,284.935,486.853,283.442,497.907,280.64z"/>
	<path style="fill:#D9D9D9;" d="M492.385,228.564c-9.086,3.152-18.873,4.862-29.061,4.862c-47.8,0-86.679-37.674-86.679-83.97
		c0-18.687,6.336-35.974,17.029-49.943C443.04,129.564,479.075,175.324,492.385,228.564z"/>
</g>
<g>
</g>
<g>
</g>
<g>
</g>
<g>
</g>
<g>
</g>
<g>
</g>
<g>
</g>
<g>
</g>
<g>
</g>
<g>
</g>
<g>
</g>
<g>
</g>
<g>
</g>
<g>
</g>
<g>
</g>
</svg>
