<?xml version="1.0" encoding="iso-8859-1"?>
<!-- Generator: Adobe Illustrator 19.0.0, SVG Export Plug-In . SVG Version: 6.00 Build 0)  -->
<svg version="1.1" id="Capa_1" xmlns="http://www.w3.org/2000/svg" xmlns:xlink="http://www.w3.org/1999/xlink" x="0px" y="0px"
	 viewBox="0 0 512 512" style="enable-background:new 0 0 512 512;" xml:space="preserve">
<path style="fill:#FFE182;" d="M4.465,266.681C12.081,130.557,108.754,0,256,0s243.919,130.557,251.535,266.681l-37.688,114.607
	L256,460.655L50.972,373.572L4.465,266.681z"/>
<path style="fill:#A2D497;" d="M501.407,346.775c-10.174,46.903-33.256,91.557-73.899,118.862C378.026,498.883,313.596,512,256,512
	s-122.025-13.117-171.508-46.363c-40.642-27.304-63.724-71.958-73.899-118.862c-5.699-26.279-7.639-53.296-6.129-80.094
	C51.125,334.055,146.255,380.186,256,380.186s204.875-46.132,251.535-113.504C509.046,293.478,507.106,320.497,501.407,346.775z"/>
<path style="fill:#FFBA4D;" d="M50.972,373.572l9.622,4.087c-3.606-10.072-6.523-20.421-8.793-30.884
	c-5.699-26.279-7.639-53.296-6.129-80.095c7.256-129.668,95.321-254.282,230.932-265.81c-0.503-0.043-1.011-0.073-1.515-0.112
	c-1.505-0.118-3.014-0.227-4.531-0.316c-0.744-0.044-1.491-0.081-2.237-0.118c-1.378-0.069-2.762-0.128-4.151-0.173
	c-0.675-0.022-1.348-0.047-2.024-0.065c-2.021-0.05-4.049-0.084-6.088-0.084c-0.02,0-0.039,0-0.059,0
	C127.16,0,37.04,99.957,11.421,216.14c-2.745,12.448-4.749,25.082-5.982,37.799c-0.411,4.239-0.736,8.488-0.974,12.741
	L50.972,373.572z"/>
<g>
	<path style="fill:#3B484A;" d="M158.997,243.155c-4.268,0-7.726-3.459-7.726-7.726v-17.556c0-4.267,3.458-7.726,7.726-7.726
		c4.268,0,7.726,3.459,7.726,7.726v17.556C166.724,239.695,163.264,243.155,158.997,243.155z"/>
	<path style="fill:#3B484A;" d="M353.003,243.155c-4.268,0-7.726-3.459-7.726-7.726v-17.556c0-4.267,3.458-7.726,7.726-7.726
		c4.268,0,7.726,3.459,7.726,7.726v17.556C360.73,239.695,357.271,243.155,353.003,243.155z"/>
</g>
<path style="fill:#FAA330;" d="M301.432,254.743c0,21.089-20.339,38.184-45.432,38.184c-25.093,0-45.432-17.095-45.432-38.184
	c0-0.549,0.01-1.088,0.042-1.627c11.094,8.865,27.322,14.453,45.39,14.453s34.296-5.589,45.39-14.453
	C301.422,253.655,301.432,254.194,301.432,254.743z"/>
<path style="fill:#FFBA4D;" d="M301.39,253.117c-11.094,8.865-27.322,14.453-45.39,14.453s-34.296-5.589-45.39-14.453
	c1.015-20.339,20.94-36.557,45.39-36.557S300.375,232.778,301.39,253.117z"/>
<g>
	<circle style="fill:#FC7C81;" cx="117.657" cy="277.85" r="31.05"/>
	<circle style="fill:#FC7C81;" cx="394.343" cy="277.85" r="31.05"/>
</g>
<path style="fill:#80A878;" d="M261.197,511.963c5.138-0.07,10.276-0.249,15.407-0.527c-51.965-2.811-107.25-16.468-150.904-45.799
	c-40.642-27.304-63.724-71.959-73.899-118.861c-2.522-11.631-4.305-23.406-5.382-35.241c-16.505-13.472-30.655-28.536-41.955-44.853
	c-0.283,5.025-0.448,10.058-0.483,15.09c-0.167,21.812,1.982,43.652,6.613,65.003c5.378,24.787,14.349,49.035,27.842,70.584
	c1.575,2.516,3.21,4.991,4.907,7.423c6.734,9.652,14.618,18.816,23.368,26.843c9.713,8.911,20.626,16.347,32.076,22.837
	c9.82,5.567,20.043,10.409,30.52,14.605C169.676,505.223,214.603,512,256,512C257.726,512,259.459,511.987,261.197,511.963z"/>
<g>
</g>
<g>
</g>
<g>
</g>
<g>
</g>
<g>
</g>
<g>
</g>
<g>
</g>
<g>
</g>
<g>
</g>
<g>
</g>
<g>
</g>
<g>
</g>
<g>
</g>
<g>
</g>
<g>
</g>
</svg>
