<?xml version="1.0" encoding="iso-8859-1"?>
<!-- Generator: Adobe Illustrator 19.0.0, SVG Export Plug-In . SVG Version: 6.00 Build 0)  -->
<svg version="1.1" id="Capa_1" xmlns="http://www.w3.org/2000/svg" xmlns:xlink="http://www.w3.org/1999/xlink" x="0px" y="0px"
	 viewBox="0 0 512.001 512.001" style="enable-background:new 0 0 512.001 512.001;" xml:space="preserve">
<path style="fill:#FABED5;" d="M476.622,476.622L476.622,476.622c-47.172,47.172-123.652,47.172-170.823,0l-270.42-270.42
	c-47.171-47.171-47.171-123.652,0-170.823l0,0c47.171-47.171,123.652-47.171,170.823,0l270.42,270.42
	C523.793,352.97,523.793,429.45,476.622,476.622z"/>
<rect x="104.308" y="135.214" transform="matrix(0.7071 0.7071 -0.7071 0.7071 256.0015 -106.0385)" style="fill:#E6A8BF;" width="303.385" height="241.575"/>
<path style="fill:#FCDBEA;" d="M476.622,35.379L476.622,35.379c-47.172-47.172-123.652-47.172-170.823,0l-270.42,270.42
	c-47.171,47.171-47.171,123.652,0,170.823l0,0c47.171,47.171,123.652,47.171,170.823,0l270.42-270.42
	C523.793,159.031,523.793,82.551,476.622,35.379z"/>
<path style="fill:#FABED5;" d="M55.983,456.018L55.983,456.018c-47.171-47.172-47.172-123.652,0-170.823l-20.604,20.604
	c-47.171,47.172-47.171,123.652,0,170.823l0,0c47.171,47.172,123.652,47.172,170.823,0l20.604-20.604
	C179.634,503.19,103.155,503.19,55.983,456.018z"/>
<g>
	<circle style="fill:#F0F0F0;" cx="415.267" cy="96.735" r="15.83"/>
	<circle style="fill:#F0F0F0;" cx="375.429" cy="56.897" r="15.83"/>
	<circle style="fill:#F0F0F0;" cx="455.104" cy="136.572" r="15.83"/>
	<circle style="fill:#F0F0F0;" cx="373.441" cy="138.56" r="15.83"/>
	<circle style="fill:#F0F0F0;" cx="333.604" cy="98.723" r="15.83"/>
	<circle style="fill:#F0F0F0;" cx="413.278" cy="178.397" r="15.83"/>
	<circle style="fill:#F0F0F0;" cx="96.735" cy="415.267" r="15.83"/>
	<circle style="fill:#F0F0F0;" cx="56.897" cy="375.429" r="15.83"/>
	<circle style="fill:#F0F0F0;" cx="136.572" cy="455.104" r="15.83"/>
	<circle style="fill:#F0F0F0;" cx="138.56" cy="373.441" r="15.83"/>
	<circle style="fill:#F0F0F0;" cx="98.723" cy="333.604" r="15.83"/>
	<circle style="fill:#F0F0F0;" cx="178.397" cy="413.278" r="15.83"/>
</g>
<path style="fill:#FABED5;" d="M363.654,224.823l-76.477-76.477c-7.063-7.063-18.514-7.063-25.578,0L148.347,261.6
	c-7.063,7.063-7.063,18.514,0,25.578l76.477,76.477c7.063,7.063,18.514,7.063,25.578,0l113.253-113.253
	C370.717,243.338,370.717,231.886,363.654,224.823z"/>
<g>
	<path style="fill:#3B484A;" d="M220.191,302.69c-1.977,0-3.955-0.754-5.463-2.263l-6.766-6.766c-3.017-3.017-3.017-7.91,0-10.927
		c3.017-3.016,7.91-3.017,10.926,0l6.766,6.766c3.017,3.017,3.017,7.91,0,10.927C224.146,301.936,222.168,302.69,220.191,302.69z"/>
	<path style="fill:#3B484A;" d="M294.965,227.918c-1.977,0-3.955-0.754-5.463-2.263l-6.766-6.766c-3.017-3.017-3.017-7.91,0-10.927
		c3.017-3.017,7.91-3.017,10.926,0l6.766,6.766c3.017,3.017,3.017,7.91,0,10.927C298.919,227.164,296.942,227.918,294.965,227.918z"
		/>
	<path style="fill:#3B484A;" d="M248.97,274.098c-0.536,0-1.071-0.018-1.608-0.054c-4.258-0.286-7.477-3.969-7.191-8.227
		c0.285-4.258,3.977-7.477,8.226-7.192c2.63,0.175,5.309-0.88,7.329-2.899c2.02-2.02,3.077-4.691,2.9-7.329
		c-0.285-4.258,2.934-7.941,7.192-8.227c4.263-0.285,7.941,2.934,8.227,7.192c0.475,7.088-2.218,14.119-7.392,19.291
		C261.872,271.434,255.502,274.097,248.97,274.098z"/>
</g>
<g>
</g>
<g>
</g>
<g>
</g>
<g>
</g>
<g>
</g>
<g>
</g>
<g>
</g>
<g>
</g>
<g>
</g>
<g>
</g>
<g>
</g>
<g>
</g>
<g>
</g>
<g>
</g>
<g>
</g>
</svg>
