<?xml version="1.0" encoding="iso-8859-1"?>
<!-- Generator: Adobe Illustrator 19.0.0, SVG Export Plug-In . SVG Version: 6.00 Build 0)  -->
<svg version="1.1" id="Capa_1" xmlns="http://www.w3.org/2000/svg" xmlns:xlink="http://www.w3.org/1999/xlink" x="0px" y="0px"
	 viewBox="0 0 512 512" style="enable-background:new 0 0 512 512;" xml:space="preserve">
<path style="fill:#E3E3E3;" d="M128.19,377.791l-28.214,4.849l-89.924,89.923c-8.876,8.876-1.583,30.56,7.294,39.436
	l105.995-105.995L128.19,377.791z"/>
<path style="fill:#BCBCBC;" d="M128.19,377.791l-13.195,2.267l-2.582,15.02L9.005,498.487c2.108,5.374,5.117,10.289,8.34,13.513
	l105.995-105.995L128.19,377.791z"/>
<path style="fill:#77CCD9;" d="M164.413,348.861l-40.599-10.453l-23.838,23.838c-5.632,5.632-5.632,14.762,0,20.395l23.366,23.366
	c5.632,5.632,14.763,5.632,20.394,0l23.838-23.838L164.413,348.861z"/>
<path style="fill:#7EDEE6;" d="M193.829,312.151l-76.075-42.526c0,0-16.55,46.173,2.413,65.135l51.053,51.053
	c18.963,18.963,65.135,2.413,65.135,2.413L193.829,312.151z"/>
<path style="fill:#77CCD9;" d="M193.829,312.151l-14.018-7.836l34.69,62.057c0,0-46.173,16.55-65.135-2.413l21.853,21.853
	c18.963,18.963,65.135,2.413,65.135,2.413L193.829,312.151z"/>
<polygon style="fill:#CBFDFF;" points="364.324,167.091 338.889,141.656 277.72,109.66 117.754,269.625 236.355,388.227 
	396.32,228.261 "/>
<polygon style="fill:#7EDEE6;" points="364.324,167.091 349.755,152.522 381.751,213.691 221.786,373.657 236.355,388.227 
	396.32,228.261 "/>
<path style="fill:#FC7C81;" d="M250.703,180.435l-75.033,75.033c-7.818,7.818-7.818,20.494,0,28.312l46.529,46.529
	c7.818,7.818,20.494,7.818,28.312,0l75.033-75.033C292.707,222.439,308.333,184.52,250.703,180.435z"/>
<g>
	<path style="fill:#3B484A;" d="M223.289,245.408c-1.977,0-3.955-0.754-5.464-2.263c-3.017-3.017-3.016-7.91,0.001-10.927
		l4.073-4.073c3.017-3.017,7.909-3.016,10.926,0.001c3.017,3.017,3.016,7.91-0.001,10.927l-4.073,4.073
		C227.243,244.654,225.265,245.408,223.289,245.408z"/>
	<path style="fill:#3B484A;" d="M268.299,290.418c-1.977,0-3.955-0.754-5.463-2.263c-3.017-3.017-3.017-7.909,0-10.926l4.073-4.073
		c3.017-3.017,7.91-3.017,10.926,0c3.017,3.017,3.017,7.909,0,10.926l-4.073,4.073C272.254,289.663,270.276,290.418,268.299,290.418
		z"/>
	<path style="fill:#3B484A;" d="M250.975,273.206c-4.745,0-9.361-1.925-12.819-5.382c-3.742-3.742-5.689-8.842-5.343-13.993
		c0.285-4.258,3.967-7.476,8.226-7.192c4.258,0.286,7.477,3.969,7.191,8.227c-0.046,0.692,0.272,1.452,0.852,2.032
		c0.579,0.579,1.333,0.897,2.03,0.851c4.252-0.284,7.941,2.933,8.227,7.191c0.286,4.258-2.933,7.941-7.191,8.227
		C251.758,273.193,251.366,273.206,250.975,273.206z"/>
</g>
<rect x="383.825" y="33.172" transform="matrix(-0.7071 -0.7071 0.7071 -0.7071 612.2758 461.9456)" style="fill:#77CCD9;" width="35.97" height="141.988"/>
<path style="fill:#7EDEE6;" d="M433.385,206.98L299.001,72.596c-4.042-4.042-10.595-4.042-14.638,0l-6.644,6.644
	c-8.4,8.4-8.4,22.02,0,30.421L396.32,228.261c8.4,8.4,22.02,8.4,30.421,0l6.644-6.644
	C437.427,217.575,437.427,211.021,433.385,206.98z"/>
<path style="fill:#77CCD9;" d="M433.385,206.979l-21.853-21.853c4.042,4.042,4.042,10.595,0,14.638l-6.644,6.644
	c-8.4,8.4-22.02,8.4-30.42,0l21.853,21.853c8.4,8.4,22.02,8.4,30.42,0l6.644-6.644C437.427,217.575,437.428,211.021,433.385,206.979
	z"/>
<path style="fill:#7EDEE6;" d="M427.213,0l-12.456,12.456c-9.232,9.232-9.232,24.202,0,33.435l45.332,45.332
	c9.232,9.232,24.202,9.232,33.435,0l12.456-12.456L427.213,0z"/>
<path style="fill:#77CCD9;" d="M484.127,56.913l-12.456,12.456c-9.232,9.232-24.202,9.232-33.435,0l21.853,21.853
	c9.232,9.232,24.202,9.232,33.435,0l12.456-12.456L484.127,56.913z"/>
<g>
</g>
<g>
</g>
<g>
</g>
<g>
</g>
<g>
</g>
<g>
</g>
<g>
</g>
<g>
</g>
<g>
</g>
<g>
</g>
<g>
</g>
<g>
</g>
<g>
</g>
<g>
</g>
<g>
</g>
</svg>
