<?xml version="1.0" encoding="iso-8859-1"?>
<!-- Generator: Adobe Illustrator 19.0.0, SVG Export Plug-In . SVG Version: 6.00 Build 0)  -->
<svg version="1.1" id="Capa_1" xmlns="http://www.w3.org/2000/svg" xmlns:xlink="http://www.w3.org/1999/xlink" x="0px" y="0px"
	 viewBox="0 0 512 512" style="enable-background:new 0 0 512 512;" xml:space="preserve">
<circle style="fill:#3B484A;" cx="440.114" cy="277.459" r="11.9"/>
<g>
	<circle style="fill:#E69C3A;" cx="346.635" cy="250.159" r="33.316"/>
	<path style="fill:#E69C3A;" d="M104.537,277.879c-2.73-4.353-8.968-4.611-12.123-0.556c-6.572,8.443-12.127,22.849,3.351,40.717
		l20.872-25.665C116.637,292.375,109.139,285.219,104.537,277.879z"/>
</g>
<path style="fill:#FAA330;" d="M441.132,302.193c0.003-0.002,0.014-0.009,0.014-0.009l0.021,0.01
	c-0.534-2.314-1.152-4.628-1.874-6.921c-14.125-45.001-53.639-54.079-95.364-44.111c-31.422,7.507-62.308,16.417-94.966,15.265
	c-82.81,1.277-166.971,0.754-164.844,114.158l-1.235,25.967l75.638,57.849l46.729,7.256L418.29,359.584l22.877-57.388
	L441.132,302.193z"/>
<g>
	<path style="fill:#E69C3A;" d="M256,433.506c-73.272,0-136.339-44.499-163.617-107.888c-5.695,14.44-8.685,32.451-8.263,54.966
		l-1.235,25.967l75.638,57.849l46.729,7.256l75.917-39.938C272.942,432.888,264.542,433.506,256,433.506z"/>
	<path style="fill:#E69C3A;" d="M432.427,279.329c-4.991,37.106-21.455,70.621-45.695,96.856l31.559-16.601l22.877-57.388
		l-0.035-0.001c0.003-0.002,0.014-0.009,0.014-0.009l0.021,0.01c-0.534-2.314-1.152-4.628-1.874-6.921
		C437.432,289.342,435.118,284.052,432.427,279.329z"/>
</g>
<path style="fill:#F0F0F0;" d="M424.143,399.014l-125.989,87.061l-92.903-14.417l-4.481-14.626
	c-6.02-29.84,33.243-94.411,107.928-106.273c74.695-11.863,132.449-48.572,132.449-48.572l0.021,0.01
	C448.591,334.684,438.037,369.687,424.143,399.014z"/>
<path style="fill:#D9D9D9;" d="M441.147,302.184c0,0-5.797,3.683-16.083,9.09C401.599,382.192,334.684,433.506,256,433.506
	c-17.393,0-34.206-2.519-50.108-7.191c-4.999,11.653-6.781,22.5-5.123,30.714l4.481,14.626l92.903,14.418l125.989-87.061
	c13.894-29.327,24.448-64.33,17.025-96.818L441.147,302.184z"/>
<path style="fill:#7EDEE6;" d="M256,0C114.904,0,0.524,114.38,0.524,255.476S114.904,510.952,256,510.952
	s255.476-114.381,255.476-255.476S397.096,0,256,0z M256,464.412c-115.392,0-208.936-93.544-208.936-208.936
	S140.608,46.54,256,46.54s208.936,93.544,208.936,208.936S371.392,464.412,256,464.412z"/>
<path style="fill:#CBFDFF;" d="M423.189,512c-6.063,0-12.075-2.619-16.215-7.675L256,319.941L105.026,504.325
	c-7.328,8.947-20.521,10.262-29.468,2.936c-8.948-7.328-10.263-20.52-2.936-29.469L239.797,273.62
	c3.978-4.857,9.925-7.674,16.203-7.674s12.225,2.817,16.203,7.674l167.177,204.172c7.328,8.949,6.012,22.142-2.936,29.469
	C432.55,510.446,427.855,512,423.189,512z"/>
<path style="fill:#7EDEE6;" d="M272.203,273.62c-3.978-4.857-9.925-7.674-16.203-7.674s-12.225,2.817-16.203,7.674l-46.21,56.435
	c8.059,11.616,19.266,20.885,32.386,26.557l30.026-36.671l30.027,36.671c13.119-5.671,24.327-14.941,32.386-26.557L272.203,273.62z"
	/>
<circle style="fill:#77CCD9;" cx="256" cy="286.885" r="45.022"/>
<circle style="fill:#CBFDFF;" cx="256" cy="286.885" r="17.799"/>
<path style="fill:#3B484A;" d="M403.052,300.101c-2.498,0-4.95-1.209-6.439-3.445l-5.081-7.631
	c-2.365-3.552-1.403-8.349,2.149-10.713c3.551-2.365,8.349-1.403,10.713,2.149l5.081,7.631c2.365,3.552,1.403,8.349-2.149,10.713
	C406.011,299.682,404.523,300.101,403.052,300.101z"/>
<g>
</g>
<g>
</g>
<g>
</g>
<g>
</g>
<g>
</g>
<g>
</g>
<g>
</g>
<g>
</g>
<g>
</g>
<g>
</g>
<g>
</g>
<g>
</g>
<g>
</g>
<g>
</g>
<g>
</g>
</svg>
