<?xml version="1.0" encoding="iso-8859-1"?>
<!-- Generator: Adobe Illustrator 19.0.0, SVG Export Plug-In . SVG Version: 6.00 Build 0)  -->
<svg version="1.1" id="Capa_1" xmlns="http://www.w3.org/2000/svg" xmlns:xlink="http://www.w3.org/1999/xlink" x="0px" y="0px"
	 viewBox="0 0 512 512" style="enable-background:new 0 0 512 512;" xml:space="preserve">
<path style="fill:#7EDEE6;" d="M294.263,36.512c-0.99-21.131-18.922-37.459-40.054-36.469s-37.458,18.922-36.469,40.053
	l10.084,215.286c0.718,14.332,12.226,26.172,26.858,26.858c15.562,0.729,28.768-11.296,29.497-26.858l10.084-215.286
	C294.314,38.934,294.318,37.697,294.263,36.512z M256,65.604c-6.906,0-12.505-7.302-12.505-16.309S249.094,32.987,256,32.987
	c6.906,0,12.505,7.302,12.505,16.309S262.906,65.604,256,65.604z"/>
<path style="fill:#77CCD9;" d="M248.428,255.382L238.343,40.096c-0.852-18.191,11.134-34.001,27.965-38.682
	c-3.836-1.071-7.904-1.568-12.099-1.371c-21.131,0.989-37.459,18.922-36.469,40.053l10.084,215.286
	c0.718,14.332,12.226,26.173,26.858,26.858c4.104,0.193,8.041-0.51,11.632-1.922C256.184,276.317,248.991,266.617,248.428,255.382z"
	/>
<path style="fill:#CBFDFF;" d="M82.103,491.186c-4.006,14.971-19.389,23.86-34.359,19.853c-14.97-4.005-23.857-19.389-19.852-34.358
	l49.29-184.192c8.616-35.99,40.389-61.083,77.444-61.083h202.746c37.057,0,68.829,25.089,77.444,61.083l49.29,184.192
	c4.005,14.969-4.882,30.352-19.853,34.358c-2.429,0.65-4.87,0.96-7.271,0.96c-12.392,0-23.731-8.272-27.088-20.813L256,455.364
	L82.103,491.186z"/>
<g>
	<path style="fill:#7EDEE6;" d="M48.497,476.681l49.29-184.192c8.616-35.99,40.389-61.083,77.444-61.083h-20.604
		c-37.055,0-68.827,25.092-77.444,61.083l-49.29,184.192c-4.005,14.969,4.882,30.352,19.852,34.359
		c6.045,1.618,12.157,1.131,17.56-1.009C52.203,504.88,44.771,490.604,48.497,476.681z"/>
	<polygon style="fill:#7EDEE6;" points="429.892,491.188 82.107,491.188 121.42,344.273 390.58,344.273 	"/>
</g>
<path style="fill:#77CCD9;" d="M390.58,344.273H121.42l10.08-37.67c0.081-0.296,0.154-0.591,0.225-0.898
	c2.49-10.704,11.907-18.182,22.906-18.182h202.737c10.999,0,20.416,7.479,22.906,18.182c0.071,0.306,0.153,0.602,0.225,0.898
	L390.58,344.273z"/>
<g>
	<path style="fill:#3B484A;" d="M184.318,418.531c-4.268,0-7.726-3.459-7.726-7.726v-12.973c0-4.267,3.458-7.726,7.726-7.726
		c4.268,0,7.726,3.459,7.726,7.726v12.973C192.044,415.073,188.586,418.531,184.318,418.531z"/>
	<path style="fill:#3B484A;" d="M327.681,418.531c-4.268,0-7.726-3.459-7.726-7.726v-12.973c0-4.267,3.458-7.726,7.726-7.726
		s7.726,3.459,7.726,7.726v12.973C335.407,415.073,331.949,418.531,327.681,418.531z"/>
	<path style="fill:#3B484A;" d="M256,425.456c-9.124,0-17.694-3.816-23.509-10.47c-2.809-3.213-2.481-8.094,0.732-10.902
		s8.094-2.48,10.901,0.732c2.881,3.296,7.209,5.186,11.875,5.186c4.665,0,8.992-1.89,11.874-5.186
		c2.808-3.214,7.689-3.541,10.901-0.732c3.213,2.808,3.542,7.689,0.732,10.902C273.693,421.64,265.125,425.456,256,425.456z"/>
</g>
<g>
</g>
<g>
</g>
<g>
</g>
<g>
</g>
<g>
</g>
<g>
</g>
<g>
</g>
<g>
</g>
<g>
</g>
<g>
</g>
<g>
</g>
<g>
</g>
<g>
</g>
<g>
</g>
<g>
</g>
</svg>
