<?xml version="1.0" encoding="iso-8859-1"?>
<!-- Generator: Adobe Illustrator 19.0.0, SVG Export Plug-In . SVG Version: 6.00 Build 0)  -->
<svg version="1.1" id="Capa_1" xmlns="http://www.w3.org/2000/svg" xmlns:xlink="http://www.w3.org/1999/xlink" x="0px" y="0px"
	 viewBox="0 0 512 512" style="enable-background:new 0 0 512 512;" xml:space="preserve">
<path style="fill:#F0F0F0;" d="M411.951,43.669H141.88c-22.719,0-41.135,18.417-41.135,41.135v386.06
	c0,22.719,18.417,41.135,41.135,41.135h270.071c22.719,0,41.135-18.417,41.135-41.135V84.803
	C453.086,62.086,434.668,43.669,411.951,43.669z"/>
<path style="fill:#D9D9D9;" d="M411.951,43.669H141.88c-22.719,0-41.135,18.417-41.135,41.135v386.06
	c0,8.617,2.654,16.612,7.182,23.22h262.192c36.883,0,66.89-30.006,66.89-66.889V52.192C430.07,46.852,421.384,43.669,411.951,43.669
	z"/>
<path style="fill:#7EDEE6;" d="M370.12,0H100.049C77.331,0,58.914,18.417,58.914,41.135v386.061
	c0,22.719,18.417,41.135,41.135,41.135H370.12c22.719,0,41.135-18.417,41.135-41.135V41.135C411.254,18.417,392.838,0,370.12,0z"/>
<path style="fill:#77CCD9;" d="M89.82,427.197V41.135C89.82,18.418,108.237,0,130.956,0H100.05
	C77.332,0,58.915,18.417,58.915,41.135v386.061c0,22.718,18.417,41.135,41.135,41.135h30.905
	C108.237,468.332,89.82,449.914,89.82,427.197z"/>
<path style="fill:#F0F0F0;" d="M328.484,61.701H141.686c-15.713,0-28.452,12.738-28.452,28.452v172.994
	c0,15.713,12.738,28.452,28.452,28.452h186.798c15.713,0,28.452-12.738,28.452-28.452V90.152
	C356.935,74.439,344.197,61.701,328.484,61.701z"/>
<circle style="fill:#FFBA4D;" cx="235.087" cy="176.645" r="74.946"/>
<g>
	<path style="fill:#7A6154;" d="M180.321,148.377c-14.594,9.631-30.85,10.731-36.31,2.458s1.944-22.789,16.536-32.419
		C175.14,108.784,194.913,138.746,180.321,148.377z"/>
	<path style="fill:#7A6154;" d="M289.849,148.377c14.594,9.631,30.85,10.731,36.31,2.458c5.46-8.273-1.944-22.789-16.536-32.419
		C295.029,108.786,275.256,138.746,289.849,148.377z"/>
</g>
<g>
	<path style="fill:#3B484A;" d="M196.64,175.464c-4.267,0-7.726-3.459-7.726-7.726v-4.867c0-4.267,3.459-7.726,7.726-7.726
		s7.726,3.459,7.726,7.726v4.867C204.366,172.004,200.907,175.464,196.64,175.464z"/>
	<path style="fill:#3B484A;" d="M273.53,175.464c-4.267,0-7.726-3.459-7.726-7.726v-4.867c0-4.267,3.459-7.726,7.726-7.726
		s7.726,3.459,7.726,7.726v4.867C281.256,172.004,277.797,175.464,273.53,175.464z"/>
</g>
<path style="fill:#7A6154;" d="M221.007,204.709c9.332-1.508,18.823-1.508,28.156,0c8.115,1.311,16.723,0.969,16.723-6.385
	c0-13.911-11.674-31.049-30.8-31.049s-30.8,17.139-30.8,31.049C204.284,205.678,212.892,206.021,221.007,204.709z"/>
<g>
	<path style="fill:#3B484A;" d="M235.085,167.276c-5.284,0-9.996,1.312-14.053,3.5c0.839,7.022,6.805,12.468,14.053,12.468
		s13.214-5.447,14.053-12.468C245.08,168.588,240.369,167.276,235.085,167.276z"/>
	<path style="fill:#3B484A;" d="M327.955,347.175H142.213c-4.267,0-7.726-3.459-7.726-7.726c0-4.267,3.459-7.726,7.726-7.726
		h185.742c4.267,0,7.726,3.459,7.726,7.726C335.681,343.716,332.223,347.175,327.955,347.175z"/>
	<path style="fill:#3B484A;" d="M327.955,389.006H142.213c-4.267,0-7.726-3.459-7.726-7.726c0-4.267,3.459-7.726,7.726-7.726
		h185.742c4.267,0,7.726,3.459,7.726,7.726C335.681,385.546,332.223,389.006,327.955,389.006z"/>
</g>
<g>
</g>
<g>
</g>
<g>
</g>
<g>
</g>
<g>
</g>
<g>
</g>
<g>
</g>
<g>
</g>
<g>
</g>
<g>
</g>
<g>
</g>
<g>
</g>
<g>
</g>
<g>
</g>
<g>
</g>
</svg>
