<?xml version="1.0" encoding="iso-8859-1"?>
<!-- Generator: Adobe Illustrator 19.0.0, SVG Export Plug-In . SVG Version: 6.00 Build 0)  -->
<svg version="1.1" id="Capa_1" xmlns="http://www.w3.org/2000/svg" xmlns:xlink="http://www.w3.org/1999/xlink" x="0px" y="0px"
	 viewBox="0 0 512 512" style="enable-background:new 0 0 512 512;" xml:space="preserve">
<path style="fill:#3B484A;" d="M352.199,130.852h-38.098V53.923c0-8.726-7.099-15.825-15.825-15.825h-84.55
	c-8.726,0-15.825,7.099-15.825,15.825v76.929h-38.099V53.923C159.802,24.19,183.993,0,213.726,0h84.55
	c29.733,0,53.923,24.19,53.923,53.923L352.199,130.852L352.199,130.852z"/>
<path style="fill:#FC7C81;" d="M112.55,61.67H65.408c-8.089,0-14.646,6.557-14.646,14.646v20.897l38.218,17.061l38.218-17.061
	V76.316C127.197,68.227,120.639,61.67,112.55,61.67z"/>
<path style="fill:#E67176;" d="M81.666,97.213V76.316c0-8.089,6.557-14.646,14.646-14.646H65.407
	c-8.089,0-14.646,6.557-14.646,14.646v20.897l38.218,17.061l15.453-6.898L81.666,97.213z"/>
<path style="fill:#FC7C81;" d="M399.451,61.67h47.143c8.089,0,14.646,6.557,14.646,14.646v20.897l-38.218,17.061l-38.219-17.061
	V76.316C384.804,68.227,391.362,61.67,399.451,61.67z"/>
<path style="fill:#E67176;" d="M415.709,97.213V76.316c0-8.089,6.557-14.646,14.646-14.646H399.45
	c-8.089,0-14.646,6.557-14.646,14.646v20.897l38.218,17.061l15.453-6.898L415.709,97.213z"/>
<path style="fill:#7EDEE6;" d="M461.24,97.213H50.761c-26.142,0-47.334,21.192-47.334,47.334v320.121
	C3.428,490.808,24.62,512,50.761,512h410.479c26.142,0,47.334-21.192,47.334-47.334V144.546
	C508.573,118.405,487.381,97.213,461.24,97.213z"/>
<path style="fill:#77CCD9;" d="M106.446,464.667V144.546c0-26.142,21.192-47.334,47.334-47.334H50.762
	c-26.141,0-47.334,21.192-47.334,47.334v320.121C3.428,490.808,24.62,512,50.761,512h103.018
	C127.638,512,106.446,490.808,106.446,464.667z"/>
<path style="fill:#F0F0F0;" d="M408.921,161.19H103.08c-19.702,0-35.675,15.972-35.675,35.675v215.482
	c0,19.702,15.972,35.675,35.675,35.675h305.84c19.702,0,35.675-15.972,35.675-35.675V196.866
	C444.596,177.162,428.624,161.19,408.921,161.19z"/>
<path style="fill:#D9D9D9;" d="M103.08,161.19c-19.702,0-35.675,15.972-35.675,35.675v215.482c0,19.702,15.972,35.675,35.675,35.675
	h3.366V161.19H103.08z"/>
<path style="fill:#FC7C81;" d="M336.916,277.331h-44.454c-5.074,0-9.186-4.112-9.186-9.186V223.69c0-5.074-4.112-9.186-9.186-9.186
	h-36.178c-5.074,0-9.186,4.112-9.186,9.186v44.454c0,5.074-4.112,9.186-9.186,9.186h-44.454c-5.074,0-9.186,4.112-9.186,9.186
	v36.178c0,5.074,4.112,9.186,9.186,9.186h44.454c5.074,0,9.186,4.112,9.186,9.186v44.454c0,5.074,4.112,9.186,9.186,9.186h36.178
	c5.074,0,9.186-4.112,9.186-9.186v-44.454c0-5.074,4.112-9.186,9.186-9.186h44.454c5.074,0,9.186-4.112,9.186-9.186v-36.178
	C346.102,281.443,341.99,277.331,336.916,277.331z"/>
<g>
</g>
<g>
</g>
<g>
</g>
<g>
</g>
<g>
</g>
<g>
</g>
<g>
</g>
<g>
</g>
<g>
</g>
<g>
</g>
<g>
</g>
<g>
</g>
<g>
</g>
<g>
</g>
<g>
</g>
</svg>
