<?xml version="1.0" encoding="iso-8859-1"?>
<!-- Generator: Adobe Illustrator 19.0.0, SVG Export Plug-In . SVG Version: 6.00 Build 0)  -->
<svg version="1.1" id="Capa_1" xmlns="http://www.w3.org/2000/svg" xmlns:xlink="http://www.w3.org/1999/xlink" x="0px" y="0px"
	 viewBox="0 0 511.999 511.999" style="enable-background:new 0 0 511.999 511.999;" xml:space="preserve">
<polygon style="fill:#D9D9D9;" points="406.67,166.758 301.343,137.349 282.818,185.105 287.484,264.924 365.747,294.984 
	414.144,286.816 "/>
<polygon style="fill:#BFBFBF;" points="365.747,294.984 414.144,286.816 412.134,254.512 392.292,257.861 346.344,269.276 "/>
<path style="fill:#F0F0F0;" d="M489.526,274.097l-75.381,12.719L301.343,137.349l28.486-73.412
	c5.1-13.154,19.498-20.203,32.964-16.046C481.648,84.586,506.671,194.59,511.854,244.72
	C513.316,258.869,503.562,271.723,489.526,274.097z"/>
<path style="fill:#D9D9D9;" d="M511.857,244.72c-0.1-1.087-0.236-2.172-0.361-3.253c-1-8.697-2.409-17.339-4.177-25.911
	c-0.02-0.094-0.038-0.188-0.059-0.281c-0.648-3.105-1.366-6.291-2.163-9.548c-0.004-0.016-0.008-0.033-0.012-0.049
	c-2.832-11.565-6.646-23.995-11.781-36.682c4.59,17.173,6.998,32.737,8.248,44.819c1.462,14.15-8.293,27.003-22.328,29.378
	l-75.381,12.719l-11.551,1.95l21.853,28.955l75.381-12.719c9.65-1.632,17.275-8.218,20.624-16.772
	c0.152-0.388,0.296-0.782,0.43-1.179C511.826,252.471,512.21,248.577,511.857,244.72z"/>
<g>
	<path style="fill:#FFBA4D;" d="M112.731,444.536c-27.623,12.684-60.416,23.966-91.336,19.931
		c-5.61-0.732-20.028-3.572-21.296-10.83c-1.596-9.134,16.501-11.689,22.483-13.385c25.02-7.092,50.545-15.123,67.498-36.172
		L112.731,444.536z"/>
	<path style="fill:#FFBA4D;" d="M238.812,397.718c0,0,37.269-9.959,67.331-47.794c0,0-7.46,60.365,7.637,101.179
		c3.02,8.166,10.871,13.538,19.578,13.538h54.159v-4.32c0-20.896-16.939-37.835-37.835-37.835l0,0c0,0,14.512-57.012,16.068-127.501
		L282.82,185.105c0,0-179.604,17.622-179.604,179.331L238.812,397.718z"/>
</g>
<path style="fill:#FAA330;" d="M63.932,425.098c4.174,11.632,10.317,22.333,18.034,31.694c10.689-3.509,21.048-7.793,30.764-12.255
	L90.08,404.08C82.729,413.205,73.765,419.881,63.932,425.098z"/>
<path style="fill:#FFE182;" d="M234.444,422.486h-2.854c4.919-10.01,7.691-21.265,7.691-33.171
	c0-41.602-33.725-75.326-75.326-75.326S88.63,347.714,88.63,389.315s33.725,75.326,75.326,75.326h112.643
	C276.599,441.36,257.726,422.486,234.444,422.486z"/>
<g>
</g>
<g>
</g>
<g>
</g>
<g>
</g>
<g>
</g>
<g>
</g>
<g>
</g>
<g>
</g>
<g>
</g>
<g>
</g>
<g>
</g>
<g>
</g>
<g>
</g>
<g>
</g>
<g>
</g>
</svg>
