<?xml version="1.0" encoding="iso-8859-1"?>
<!-- Generator: Adobe Illustrator 19.0.0, SVG Export Plug-In . SVG Version: 6.00 Build 0)  -->
<svg version="1.1" id="Capa_1" xmlns="http://www.w3.org/2000/svg" xmlns:xlink="http://www.w3.org/1999/xlink" x="0px" y="0px"
	 viewBox="0 0 512 512" style="enable-background:new 0 0 512 512;" xml:space="preserve">
<path style="fill:#CBFDFF;" d="M430.022,74.667l-173.489-28.8l-174.556,28.8C31.564,121.422,0,188.22,0,262.4
	c0,92.433,48.994,173.412,122.426,218.413c15.133,9.275,32.566,14.12,50.316,14.12h166.517c17.749,0,35.182-4.846,50.316-14.12
	C463.006,435.813,512,354.834,512,262.4C512,188.22,480.436,121.422,430.022,74.667z"/>
<g>
	<path style="fill:#7EDEE6;" d="M434.134,17.068h-355.2c-15.906,0-28.8,12.894-28.8,28.8l0,0c0,15.906,12.894,28.8,28.8,28.8h355.2
		c15.906,0,28.8-12.894,28.8-28.8l0,0C462.934,29.961,450.039,17.068,434.134,17.068z"/>
	<path style="fill:#7EDEE6;" d="M455.819,173.461c-4-8.992-8.576-17.632-13.696-25.92c-17.035-6.325-35.786-6.272-52.79,0.192
		c-17.173,6.528-36.16,6.528-53.333,0s-36.16-6.528-53.333,0c-17.173,6.528-36.16,6.528-53.333,0s-36.16-6.528-53.333,0
		s-36.16,6.528-53.333,0c-17.003-6.464-35.754-6.517-52.79-0.192c-5.12,8.288-9.686,16.928-13.696,25.92
		c-12.511,28.032-18.846,57.953-18.846,88.939c0,38.101,9.941,75.605,28.746,108.448c4.747,8.288,10.037,16.256,15.808,23.829
		L256,432.533l174.112-37.856c5.771-7.574,11.061-15.541,15.808-23.829c18.805-32.842,28.746-70.347,28.746-108.448
		C474.666,231.414,468.331,201.494,455.819,173.461z"/>
</g>
<path style="fill:#77CCD9;" d="M112.793,394.678c-5.771-7.574-11.061-15.541-15.808-23.829
	C78.18,338.006,68.239,300.502,68.239,262.4c0-30.987,6.336-60.906,18.848-88.939c2.628-5.893,5.495-11.635,8.6-17.226
	c3.314-5.968,8.995-10.33,15.673-11.746l0.108-0.023c-13.805-2.906-28.225-1.888-41.59,3.074c-5.12,8.288-9.686,16.928-13.696,25.92
	c-12.513,28.032-18.848,57.953-18.848,88.939c0,38.101,9.941,75.606,28.746,108.448c4.747,8.288,10.037,16.256,15.808,23.829
	L256,432.534l15.453-3.36L112.793,394.678z"/>
<path style="fill:#8EBA85;" d="M317.884,340.428c15.052-1.882,30.617,4.414,39.917,17.708c9.299,13.294,9.877,30.075,2.948,43.569
	c-15.052,1.882-30.617-4.414-39.917-17.708C311.533,370.703,310.955,353.921,317.884,340.428z"/>
<path style="fill:#A2D497;" d="M392.949,340.428c-15.052-1.882-30.617,4.414-39.917,17.708c-9.299,13.294-9.877,30.075-2.948,43.569
	c15.052,1.882,30.617-4.414,39.917-17.708C399.3,370.703,399.878,353.921,392.949,340.428z"/>
<path style="fill:#886A5E;" d="M430.112,394.678c-16.438,21.578-36.832,40.075-60.043,54.304
	c-9.206,5.642-19.851,8.618-30.816,8.618H172.736c-10.955,0-21.6-2.976-30.806-8.618c-23.211-14.23-43.605-32.726-60.043-54.304
	H430.112z"/>
<path style="fill:#7A6154;" d="M112.793,394.678H81.888c16.438,21.578,36.832,40.074,60.043,54.304
	c9.206,5.643,19.851,8.618,30.806,8.618h30.905c-10.955,0-21.6-2.976-30.805-8.618C149.626,434.752,129.231,416.257,112.793,394.678
	z"/>
<path style="fill:#FFE182;" d="M280.1,264.713c-12.162-6.04-22.377-15.407-28.767-27.389
	c-18.296-34.307-61.102-59.084-110.913-55.732c-49.104,3.305,0,59.019,0,92.542c0,33.523-49.104,89.236,0,92.542
	c49.813,3.353,92.62-21.427,110.915-55.735c6.39-11.983,16.604-21.35,28.767-27.391c4.643-2.307,7.897-5.367,7.897-9.417
	C288,270.081,284.745,267.019,280.1,264.713z"/>
<path style="fill:#FAA330;" d="M159.108,295.719c-22.983-5.926-84.461,63.091-84.461-21.584s61.477-15.66,84.461-21.584V295.719z"/>
<path style="fill:#FFBA4D;" d="M196.819,274.134c0-32.558-7.213-63.747-19.612-89.84c-11.601-2.551-23.958-3.565-36.787-2.702
	c-49.104,3.305,0,59.019,0,92.542s-49.104,89.237,0,92.542c12.829,0.863,25.187-0.151,36.788-2.702
	C189.606,337.881,196.819,306.692,196.819,274.134z"/>
<path style="fill:#FAA330;" d="M238.414,288.337c-4.268,0-7.726-3.459-7.726-7.726v-13.562c0-4.267,3.458-7.726,7.726-7.726
	s7.726,3.459,7.726,7.726v13.562C246.14,284.878,242.682,288.337,238.414,288.337z"/>
<g>
	<circle style="fill:#CBFDFF;" cx="332.8" cy="244.267" r="19.201"/>
	<circle style="fill:#CBFDFF;" cx="386.4" cy="202.4" r="15.2"/>
</g>
<g>
</g>
<g>
</g>
<g>
</g>
<g>
</g>
<g>
</g>
<g>
</g>
<g>
</g>
<g>
</g>
<g>
</g>
<g>
</g>
<g>
</g>
<g>
</g>
<g>
</g>
<g>
</g>
<g>
</g>
</svg>
