<?xml version="1.0" encoding="iso-8859-1"?>
<!-- Generator: Adobe Illustrator 19.0.0, SVG Export Plug-In . SVG Version: 6.00 Build 0)  -->
<svg version="1.1" id="Capa_1" xmlns="http://www.w3.org/2000/svg" xmlns:xlink="http://www.w3.org/1999/xlink" x="0px" y="0px"
	 viewBox="0 0 512.001 512.001" style="enable-background:new 0 0 512.001 512.001;" xml:space="preserve">
<path style="fill:#FC7C81;" d="M484.763,178.05c-18.159-18.159-41.957-27.235-65.762-27.241c-23.798,0-47.596,9.076-65.754,27.235
	l-87.601,87.601l56.126,89.576l75.391,41.941l87.601-87.601C521.08,273.243,521.08,214.368,484.763,178.05z"/>
<path style="fill:#E67176;" d="M484.763,178.05c-3.723-3.723-7.686-7.058-11.835-10.017c25.911,36.32,22.575,87.079-10.018,119.674
	l-87.601,87.601l-62.863-34.972l9.326,14.884l75.391,41.941l87.601-87.601C521.08,273.243,521.08,214.368,484.763,178.05z"/>
<path style="fill:#FC7C81;" d="M196.348,159.867L114.84,114.84l-87.601,87.601c-36.317,36.317-36.318,95.192,0,131.51
	C45.398,352.11,69.195,361.186,93,361.192c23.798,0,47.596-9.076,65.754-27.235l87.601-87.601L196.348,159.867z"/>
<path style="fill:#E67176;" d="M196.348,159.867l-13.544-7.482l41.7,72.118l-87.601,87.601
	c-18.159,18.159-41.956,27.235-65.754,27.235c-18.924-0.005-37.842-5.748-53.927-17.225c2.96,4.149,6.295,8.113,10.019,11.836
	c18.159,18.159,41.956,27.235,65.762,27.241c23.798,0,47.596-9.076,65.754-27.235l87.601-87.601L196.348,159.867z"/>
<path style="fill:#F0F0F0;" d="M333.958,158.756l-87.601,87.601L114.84,114.84l87.601-87.601c36.317-36.318,95.192-36.318,131.51,0
	C370.268,63.557,370.276,122.438,333.958,158.756z"/>
<path style="fill:#D9D9D9;" d="M333.951,27.239c-3.723-3.723-7.687-7.058-11.836-10.017c25.912,36.321,22.583,87.087-10.011,119.681
	l-87.601,87.601l21.853,21.853l87.601-87.601C370.276,122.438,370.268,63.557,333.951,27.239z"/>
<g>
	<path style="fill:#3B484A;" d="M239.708,68.121c-1.977,0-3.955-0.754-5.463-2.263c-3.017-3.017-3.017-7.91,0-10.927l5.529-5.528
		c3.017-3.017,7.91-3.017,10.926,0c3.017,3.017,3.017,7.91,0,10.927l-5.529,5.528C243.663,67.367,241.685,68.121,239.708,68.121z"/>
	<path style="fill:#3B484A;" d="M300.801,129.215c-1.977,0-3.955-0.754-5.463-2.263c-3.017-3.017-3.017-7.91,0-10.927l5.529-5.528
		c3.017-3.016,7.91-3.017,10.926,0c3.017,3.017,3.017,7.91,0,10.927l-5.529,5.528C304.756,128.46,302.778,129.215,300.801,129.215z"
		/>
	<path style="fill:#3B484A;" d="M277.288,105.853c-5.711,0-11.274-2.324-15.448-6.496c-4.515-4.516-6.866-10.66-6.449-16.857
		c0.286-4.258,3.971-7.479,8.227-7.191c4.258,0.286,7.477,3.97,7.191,8.227c-0.117,1.748,0.596,3.531,1.958,4.893
		c1.362,1.362,3.144,2.076,4.893,1.957c4.252-0.285,7.941,2.934,8.226,7.192c0.286,4.258-2.934,7.941-7.191,8.227
		C278.227,105.837,277.757,105.853,277.288,105.853z"/>
</g>
<path style="fill:#F0F0F0;" d="M178.044,353.245l87.601-87.601l131.517,131.517l-87.602,87.601
	c-36.317,36.318-95.192,36.318-131.51,0C141.733,448.445,141.726,389.563,178.044,353.245z"/>
<path style="fill:#D9D9D9;" d="M375.308,375.308l-87.601,87.601c-32.595,32.595-83.355,35.93-119.674,10.017
	c2.96,4.15,6.294,8.113,10.019,11.836c36.318,36.318,95.193,36.318,131.51,0l87.601-87.601L375.308,375.308z"/>
<g>
	<path style="fill:#3B484A;" d="M205.671,403.768c-1.977,0-3.955-0.754-5.463-2.263c-3.017-3.017-3.017-7.91,0-10.927l5.529-5.528
		c3.017-3.016,7.91-3.017,10.926,0c3.017,3.017,3.017,7.91,0,10.927l-5.529,5.528C209.626,403.014,207.648,403.768,205.671,403.768z
		"/>
	<path style="fill:#3B484A;" d="M266.764,464.86c-1.977,0-3.955-0.754-5.464-2.263c-3.017-3.017-3.016-7.91,0-10.927l5.529-5.528
		c3.017-3.017,7.91-3.017,10.927,0c3.017,3.017,3.016,7.91,0,10.927l-5.529,5.528C270.719,464.106,268.741,464.86,266.764,464.86z"
		/>
	<path style="fill:#3B484A;" d="M243.251,441.499c-5.711,0-11.275-2.324-15.448-6.496c-4.514-4.514-6.865-10.658-6.449-16.856
		c0.285-4.258,3.969-7.477,8.226-7.192c4.258,0.285,7.477,3.969,7.191,8.226c-0.117,1.748,0.596,3.532,1.958,4.894
		c1.362,1.362,3.141,2.076,4.893,1.958c4.258-0.284,7.941,2.934,8.226,7.191c0.285,4.257-2.934,7.941-7.191,8.227
		C244.19,441.483,243.719,441.499,243.251,441.499z"/>
</g>
<g>
</g>
<g>
</g>
<g>
</g>
<g>
</g>
<g>
</g>
<g>
</g>
<g>
</g>
<g>
</g>
<g>
</g>
<g>
</g>
<g>
</g>
<g>
</g>
<g>
</g>
<g>
</g>
<g>
</g>
</svg>
