<?xml version="1.0" encoding="iso-8859-1"?>
<!-- Generator: Adobe Illustrator 19.0.0, SVG Export Plug-In . SVG Version: 6.00 Build 0)  -->
<svg version="1.1" id="Capa_1" xmlns="http://www.w3.org/2000/svg" xmlns:xlink="http://www.w3.org/1999/xlink" x="0px" y="0px"
	 viewBox="0 0 511.999 511.999" style="enable-background:new 0 0 511.999 511.999;" xml:space="preserve">
<path style="fill:#DEB899;" d="M93.325,250.093L93.325,250.093c-36.056-16.894-23.705-71.005,16.11-70.582l0,0l0,0
	c-25.156-30.865,9.45-74.26,45.138-56.602l0,0l0,0c-9.273-38.723,40.734-62.805,65.228-31.412l0,0l0,0
	c8.446-38.912,63.951-38.912,72.397,0l0,0l0,0c24.494-31.393,74.501-7.311,65.228,31.412l0,0l0,0
	c35.689-17.657,70.294,25.737,45.138,56.602l0,0l0,0c39.815-0.423,52.166,53.688,16.11,70.582l0,0L93.325,250.093L93.325,250.093z"
	/>
<path style="fill:#AF8A6E;" d="M140.341,179.511L140.341,179.511L140.341,179.511c-17.079-20.956-6.607-47.681,13.046-57.159
	c-35.262-16.13-68.827,26.636-43.952,57.159l0,0l0,0c-39.815-0.423-52.166,53.688-16.11,70.582l0,0h30.905l0,0
	C88.174,233.199,100.524,179.088,140.341,179.511z"/>
<path style="fill:#FC7C81;" d="M24.774,400.139c0-76.387,46.452-126.968,46.452-126.968l185.29-24.774l184.258,24.774
	c0,0,46.452,50.581,46.452,126.968L256,424.914L24.774,400.139z"/>
<path style="fill:#E67176;" d="M65.981,400.139c0-76.387,46.452-126.968,46.452-126.968l164.629-22.012l-20.546-2.763
	l-185.29,24.775c0,0-46.452,50.581-46.452,126.968L256,424.913l20.604-2.208L65.981,400.139z"/>
<path style="fill:#FFA6AA;" d="M440.774,223.622H71.226c-13.683,0-24.774,11.092-24.774,24.774l0,0
	c0,13.683,11.092,24.774,24.774,24.774h369.549c13.683,0,24.774-11.092,24.774-24.774l0,0
	C465.548,234.714,454.456,223.622,440.774,223.622z"/>
<path style="fill:#FC7C81;" d="M97.961,248.397L97.961,248.397c0-13.683,11.092-24.774,24.774-24.774H71.226
	c-13.682,0-24.774,11.092-24.774,24.774l0,0c0,13.683,11.092,24.774,24.774,24.774h51.509
	C109.053,273.171,97.961,262.079,97.961,248.397z"/>
<path style="fill:#FFA6AA;" d="M487.226,400.139H24.774C11.092,400.139,0,411.231,0,424.913l0,0
	c0,13.683,11.092,24.774,24.774,24.774h462.451c13.683,0,24.774-11.092,24.774-24.774l0,0
	C512,411.231,500.908,400.139,487.226,400.139z"/>
<path style="fill:#FC7C81;" d="M41.207,424.913L41.207,424.913c0-13.683,11.092-24.774,24.774-24.774H24.774
	C11.092,400.139,0,411.231,0,424.913l0,0c0,13.683,11.092,24.774,24.774,24.774h41.207
	C52.299,449.687,41.207,438.595,41.207,424.913z"/>
<g>
	<path style="fill:#3B484A;" d="M169.372,343.503c-4.267,0-7.726-3.459-7.726-7.726v-15.678c0-4.267,3.459-7.726,7.726-7.726
		s7.726,3.459,7.726,7.726v15.678C177.098,340.043,173.639,343.503,169.372,343.503z"/>
	<path style="fill:#3B484A;" d="M342.628,343.503c-4.267,0-7.726-3.459-7.726-7.726v-15.678c0-4.267,3.459-7.726,7.726-7.726
		c4.267,0,7.726,3.459,7.726,7.726v15.678C350.354,340.043,346.895,343.503,342.628,343.503z"/>
	<path style="fill:#3B484A;" d="M256,351.871c-10.562,0-20.475-4.41-27.198-12.102c-2.808-3.213-2.481-8.094,0.732-10.902
		s8.094-2.481,10.902,0.732c3.788,4.333,9.46,6.819,15.563,6.819c6.104,0,11.776-2.485,15.564-6.819
		c2.807-3.213,7.689-3.541,10.902-0.732s3.541,7.689,0.731,10.902C276.476,347.461,266.562,351.871,256,351.871z"/>
</g>
<g>
	<circle style="fill:#AF8A6E;" cx="216.101" cy="137.045" r="15.754"/>
	<circle style="fill:#AF8A6E;" cx="153.621" cy="185.433" r="15.754"/>
	<circle style="fill:#AF8A6E;" cx="295.899" cy="137.045" r="15.754"/>
	<circle style="fill:#AF8A6E;" cx="358.379" cy="185.433" r="15.754"/>
</g>
<g>
</g>
<g>
</g>
<g>
</g>
<g>
</g>
<g>
</g>
<g>
</g>
<g>
</g>
<g>
</g>
<g>
</g>
<g>
</g>
<g>
</g>
<g>
</g>
<g>
</g>
<g>
</g>
<g>
</g>
</svg>
