<?xml version="1.0" encoding="iso-8859-1"?>
<!-- Generator: Adobe Illustrator 19.0.0, SVG Export Plug-In . SVG Version: 6.00 Build 0)  -->
<svg version="1.1" id="Capa_1" xmlns="http://www.w3.org/2000/svg" xmlns:xlink="http://www.w3.org/1999/xlink" x="0px" y="0px"
	 viewBox="0 0 511.999 511.999" style="enable-background:new 0 0 511.999 511.999;" xml:space="preserve">
<path style="fill:#E69C3A;" d="M502.411,45.905c-4.015-10.098-13.609-16.92-24.465-17.396
	c-89.507-3.925-130.279,77.19-130.279,77.19l124.619,88.608C472.285,194.307,535.513,129.158,502.411,45.905z"/>
<path style="fill:#FABED5;" d="M383.159,109.739c2.754-3.104,5.868-6.33,9.343-9.531c20.637-19.009,44.443-28.647,70.755-28.647
	c0.757,0,1.522,0.007,2.289,0.024c13.831,37.335,1.243,71.539-10.19,91.925L383.159,109.739z"/>
<path style="fill:#E69C3A;" d="M9.589,45.905c4.015-10.098,13.609-16.92,24.465-17.396c89.507-3.925,130.279,77.19,130.279,77.19
	L39.714,194.307C39.714,194.307-23.513,129.158,9.589,45.905z"/>
<path style="fill:#D99337;" d="M29.607,146.958c-3.725,6.118-7.167,12.299-10.355,18.505c10.126,18.19,20.461,28.844,20.461,28.844
	l124.619-88.608c0,0-13.316-26.474-41.416-48.441C85.005,77.55,53.552,107.634,29.607,146.958z"/>
<path style="fill:#FABED5;" d="M128.84,109.739c-2.754-3.104-5.868-6.33-9.343-9.531C98.86,81.199,75.055,71.56,48.743,71.56
	c-0.757,0-1.522,0.007-2.289,0.024c-13.831,37.335-1.243,71.539,10.19,91.925L128.84,109.739z"/>
<path style="fill:#E6A8BF;" d="M56.643,163.509l72.197-53.77c-2.754-3.104-5.868-6.33-9.343-9.531
	c-9.648-8.886-19.995-15.697-30.959-20.459c-17.051,13.421-32.352,29.317-45.78,47.598
	C45.809,141.656,51.347,154.066,56.643,163.509z"/>
<path style="fill:#D99337;" d="M482.392,146.958c3.725,6.118,7.167,12.299,10.355,18.505c-10.126,18.19-20.461,28.844-20.461,28.844
	l-124.619-88.608c0,0,13.316-26.474,41.416-48.441C426.994,77.55,458.448,107.634,482.392,146.958z"/>
<path style="fill:#E6A8BF;" d="M455.356,163.509l-72.197-53.77c2.754-3.104,5.868-6.33,9.343-9.531
	c9.648-8.886,19.995-15.697,30.959-20.459c17.051,13.421,32.352,29.317,45.78,47.598
	C466.191,141.656,460.652,154.066,455.356,163.509z"/>
<path style="fill:#FAA330;" d="M256,57.231c-206.793,0-244.896,190.813-244.896,273.959c0,74.655,10.945,138.143,180.616,150.331
	l-0.01-0.01L256,439.745l64.289,41.767v0.01c169.662-12.198,180.606-75.676,180.606-150.331
	C500.895,248.045,462.793,57.231,256,57.231z"/>
<path style="fill:#D99337;" d="M197.257,477.908C61.686,459.705,52.311,400.224,52.311,331.191
	c0-80.305,35.549-261.038,224.291-273.295c-0.003,0-0.005,0-0.008,0c-1.647-0.107-3.307-0.201-4.977-0.282
	c-0.028-0.001-0.056-0.003-0.084-0.004c-1.569-0.076-3.151-0.139-4.741-0.193c-0.153-0.005-0.306-0.012-0.459-0.018
	c-1.455-0.046-2.923-0.08-4.395-0.107c-0.269-0.005-0.535-0.013-0.805-0.018c-1.7-0.027-3.411-0.042-5.134-0.042
	c-206.793,0-244.896,190.813-244.896,273.959c0,74.655,10.945,138.143,180.616,150.331l-0.01-0.01L197.257,477.908z"/>
<g>
	<path style="fill:#3B484A;" d="M162.247,253.783c-4.267,0-7.726-3.459-7.726-7.726v-16.968c0-4.267,3.459-7.726,7.726-7.726
		c4.267,0,7.726,3.459,7.726,7.726v16.968C169.973,250.324,166.514,253.783,162.247,253.783z"/>
	<path style="fill:#3B484A;" d="M349.752,253.783c-4.267,0-7.726-3.459-7.726-7.726v-16.968c0-4.267,3.459-7.726,7.726-7.726
		s7.726,3.459,7.726,7.726v16.968C357.479,250.324,354.019,253.783,349.752,253.783z"/>
</g>
<path style="fill:#F0F0F0;" d="M320.289,481.511v0.01c-19.309,1.38-40.661,2.107-64.289,2.107s-44.981-0.727-64.279-2.107
	l-0.01-0.01C46.308,413.44,91.668,277.805,158.033,277.805s53.724-109.554,97.966-109.554s31.602,109.554,97.966,109.554
	S465.69,413.44,320.289,481.511z"/>
<g>
	<path style="fill:#3B484A;" d="M256,302.385c-12.946,0-25.176-4.315-33.552-11.839c-3.175-2.852-3.437-7.737-0.586-10.911
		c2.853-3.175,7.737-3.437,10.911-0.585c5.578,5.01,14.043,7.883,23.227,7.883c9.183,0,17.649-2.873,23.226-7.883
		c3.173-2.85,8.059-2.59,10.911,0.586c2.852,3.175,2.589,8.06-0.586,10.911C281.175,298.069,268.945,302.385,256,302.385z"/>
	<path style="fill:#3B484A;" d="M276.856,249.728h-41.713c-8.286,0-10.606,11.35-2.996,14.628c7.25,3.124,15.332,4.868,23.853,4.868
		c8.521,0,16.601-1.743,23.852-4.868C287.461,261.077,285.143,249.728,276.856,249.728z"/>
</g>
<path style="fill:#D9D9D9;" d="M266.103,483.579c1.038-0.009,2.059-0.024,3.088-0.037c2.493-0.031,4.969-0.068,7.412-0.115
	c-15.608-0.301-30.159-0.939-43.676-1.905c-20.208-1.452-38.141-3.639-54.096-6.479c4.117,2.216,8.406,4.374,12.878,6.467l0.01,0.01
	c7.237,0.517,14.762,0.944,22.589,1.273c13.044,0.55,26.923,0.833,41.69,0.833c2.423,0,4.806-0.012,7.18-0.028
	C264.156,483.593,265.134,483.587,266.103,483.579z"/>
<g>
</g>
<g>
</g>
<g>
</g>
<g>
</g>
<g>
</g>
<g>
</g>
<g>
</g>
<g>
</g>
<g>
</g>
<g>
</g>
<g>
</g>
<g>
</g>
<g>
</g>
<g>
</g>
<g>
</g>
</svg>
