<?xml version="1.0" encoding="iso-8859-1"?>
<!-- Generator: Adobe Illustrator 19.0.0, SVG Export Plug-In . SVG Version: 6.00 Build 0)  -->
<svg version="1.1" id="Capa_1" xmlns="http://www.w3.org/2000/svg" xmlns:xlink="http://www.w3.org/1999/xlink" x="0px" y="0px"
	 viewBox="0 0 512 512" style="enable-background:new 0 0 512 512;" xml:space="preserve">
<path style="fill:#FFBA4D;" d="M397.879,81.106L256,40.553L114.121,81.106C44.684,269.017,17.686,512,103.445,512h305.111
	C494.314,512,467.316,269.017,397.879,81.106z"/>
<path style="fill:#FAA330;" d="M408.555,470.793H103.445c-34.065,0-50.337-38.341-53.226-96.338
	C46.773,454.804,61.838,512,103.445,512h305.111c41.607,0,56.671-57.196,53.226-137.546
	C458.892,432.451,442.62,470.793,408.555,470.793z"/>
<path style="fill:#CBFDFF;" d="M121.384,390.123c-18.158-26.332-28.788-58.266-28.788-92.666
	c0-90.252,73.152-163.416,163.404-163.416s163.404,73.163,163.404,163.416c0,34.401-10.63,66.333-28.788,92.666H121.384z"/>
<path style="fill:#886A5E;" d="M390.616,390.123c-29.477,42.733-78.775,70.738-134.616,70.738s-105.139-28.005-134.616-70.738
	c-0.614-29.71-1.017-66.821-0.794-110.739c0-24.924,17.11-45.136,38.212-45.136c9.232,0,17.692,3.864,24.3,10.302
	c-0.148-1.631-0.233-3.282-0.233-4.955c0-24.935,17.11-45.136,38.213-45.136c15.575,0,28.969,11.012,34.919,26.808
	c5.95-15.797,19.345-26.808,34.919-26.808c21.102,0,38.212,20.202,38.212,45.136c0,1.673-0.084,3.324-0.233,4.955
	c6.607-6.438,15.066-10.302,24.3-10.302c21.102,0,38.212,20.212,38.212,45.136C391.633,323.303,391.23,360.413,390.616,390.123z"/>
<g>
	<ellipse style="fill:#FABED5;" cx="221.077" cy="257.514" rx="19.269" ry="25.659"/>
	<ellipse style="fill:#FABED5;" cx="290.923" cy="257.514" rx="19.269" ry="25.659"/>
	<ellipse style="fill:#FABED5;" cx="353.671" cy="289.007" rx="19.269" ry="25.659"/>
	<ellipse style="fill:#FABED5;" cx="158.329" cy="289.007" rx="19.269" ry="25.659"/>
	<path style="fill:#FABED5;" d="M315.03,328.727c-28.036,0-26.638-27.498-59.03-27.498s-30.994,27.498-59.03,27.498
		c-21.833,0-46.303,36.353-26.378,69.445s52.084,10.253,85.408,10.253s65.482,22.837,85.408-10.253
		C361.333,365.081,336.863,328.727,315.03,328.727z"/>
</g>
<path style="fill:#FFE182;" d="M360.476,0H151.524c-20.657,0-37.404,16.746-37.404,37.404v43.702h283.758V37.404
	C397.879,16.746,381.133,0,360.476,0z"/>
<g>
	<path style="fill:#FFBA4D;" d="M350.586,88.833c-4.268,0-7.726-3.459-7.726-7.726V37.404c0-4.267,3.458-7.726,7.726-7.726
		c4.268,0,7.726,3.459,7.726,7.726v43.702C358.312,85.373,354.854,88.833,350.586,88.833z"/>
	<path style="fill:#FFBA4D;" d="M303.293,88.833c-4.268,0-7.726-3.459-7.726-7.726V37.404c0-4.267,3.458-7.726,7.726-7.726
		c4.268,0,7.726,3.459,7.726,7.726v43.702C311.019,85.373,307.561,88.833,303.293,88.833z"/>
	<path style="fill:#FFBA4D;" d="M256,88.833c-4.268,0-7.726-3.459-7.726-7.726V37.404c0-4.267,3.458-7.726,7.726-7.726
		c4.268,0,7.726,3.459,7.726,7.726v43.702C263.726,85.373,260.268,88.833,256,88.833z"/>
	<path style="fill:#FFBA4D;" d="M208.707,88.833c-4.268,0-7.726-3.459-7.726-7.726V37.404c0-4.267,3.458-7.726,7.726-7.726
		s7.726,3.459,7.726,7.726v43.702C216.434,85.373,212.974,88.833,208.707,88.833z"/>
	<path style="fill:#FFBA4D;" d="M161.415,88.833c-4.268,0-7.726-3.459-7.726-7.726V37.404c0-4.267,3.458-7.726,7.726-7.726
		c4.268,0,7.726,3.459,7.726,7.726v43.702C169.141,85.373,165.682,88.833,161.415,88.833z"/>
</g>
<g>
</g>
<g>
</g>
<g>
</g>
<g>
</g>
<g>
</g>
<g>
</g>
<g>
</g>
<g>
</g>
<g>
</g>
<g>
</g>
<g>
</g>
<g>
</g>
<g>
</g>
<g>
</g>
<g>
</g>
</svg>
