<?xml version="1.0" encoding="iso-8859-1"?>
<!-- Generator: Adobe Illustrator 19.0.0, SVG Export Plug-In . SVG Version: 6.00 Build 0)  -->
<svg version="1.1" id="Capa_1" xmlns="http://www.w3.org/2000/svg" xmlns:xlink="http://www.w3.org/1999/xlink" x="0px" y="0px"
	 viewBox="0 0 512 512" style="enable-background:new 0 0 512 512;" xml:space="preserve">
<path style="fill:#3B484A;" d="M386.171,144.834H268.525c-8.259,0-14.955-6.696-14.955-14.955V85.921
	c0-23.59,19.191-42.781,42.781-42.781h61.993c23.59,0,42.781,19.192,42.781,42.781v43.958
	C401.126,138.139,394.43,144.834,386.171,144.834z M283.48,114.924h87.736V85.921c0-7.097-5.774-12.871-12.871-12.871h-61.993
	c-7.098,0-12.871,5.774-12.871,12.871v29.003H283.48z"/>
<path style="fill:#77CCD9;" d="M359.19,250.516l-152.811,32.901v185.442h219.34c8.205,0,15.573-5.025,18.564-12.672L512,283.417
	L359.19,250.516z"/>
<path style="fill:#7EDEE6;" d="M512,283.417H206.379V97.975h219.34c8.205,0,15.573,5.025,18.564,12.672L512,283.417z"/>
<g>
	<path style="fill:#CBFDFF;" d="M323.71,245.368c-4.978,0-9.68-3.003-11.606-7.918l-28.119-71.741
		c-2.512-6.409,0.647-13.64,7.055-16.151c6.409-2.51,13.64,0.647,16.15,7.056l28.119,71.741c2.512,6.409-0.647,13.64-7.055,16.151
		C326.762,245.091,325.224,245.368,323.71,245.368z"/>
	<path style="fill:#CBFDFF;" d="M382.244,245.368c-4.978,0-9.68-3.003-11.606-7.918l-28.119-71.741
		c-2.512-6.409,0.647-13.64,7.055-16.151c6.409-2.51,13.64,0.647,16.15,7.056l28.119,71.741c2.512,6.409-0.647,13.64-7.055,16.151
		C385.296,245.091,383.758,245.368,382.244,245.368z"/>
	<path style="fill:#CBFDFF;" d="M440.778,245.368c-4.978,0-9.68-3.003-11.606-7.918l-28.119-71.741
		c-2.512-6.409,0.647-13.64,7.055-16.151c6.409-2.51,13.64,0.647,16.15,7.056l28.119,71.741c2.512,6.409-0.647,13.64-7.055,16.151
		C443.83,245.091,442.29,245.368,440.778,245.368z"/>
</g>
<polygon style="fill:#FFBA4D;" points="90.422,453.43 200.703,453.43 267.274,283.417 200.703,113.405 90.422,113.405 
	23.85,283.417 "/>
<path style="fill:#3B484A;" d="M249.77,275.692H200.5v-57.329h20.772c4.268,0,7.726-3.459,7.726-7.726s-3.458-7.726-7.726-7.726
	H200.5v-65.055c0-4.267-3.458-7.726-7.726-7.726s-7.726,3.459-7.726,7.726v65.055h-31.758v-65.055c0-4.267-3.458-7.726-7.726-7.726
	c-4.268,0-7.726,3.459-7.726,7.726v65.055h-31.758v-65.055c0-4.267-3.458-7.726-7.726-7.726s-7.726,3.459-7.726,7.726v65.055H69.852
	c-4.268,0-7.726,3.459-7.726,7.726s3.458,7.726,7.726,7.726h20.773v57.329h-49.27c-4.268,0-7.726,3.458-7.726,7.726
	c0,4.267,3.458,7.726,7.726,7.726h49.27v57.328H69.852c-4.268,0-7.726,3.459-7.726,7.726c0,4.268,3.458,7.726,7.726,7.726h20.773
	v65.055c0,4.267,3.458,7.726,7.726,7.726s7.726-3.459,7.726-7.726v-65.055h31.757v65.055c0,4.267,3.458,7.726,7.726,7.726
	c4.268,0,7.726-3.459,7.726-7.726v-65.055h31.758v65.055c0,4.267,3.458,7.726,7.726,7.726c4.268,0,7.726-3.459,7.726-7.726v-65.055
	h20.772c4.268,0,7.726-3.458,7.726-7.726c0-4.267-3.458-7.726-7.726-7.726h-20.772v-57.328h49.27c4.268,0,7.726-3.459,7.726-7.726
	C257.497,279.15,254.037,275.692,249.77,275.692z M185.046,218.363v57.329h-31.758v-57.329L185.046,218.363L185.046,218.363z
	 M106.077,218.363h31.757v57.329h-31.757V218.363z M106.077,348.472v-57.328h31.757v57.328H106.077z M185.046,348.472h-31.758
	v-57.328h31.758V348.472z"/>
<path style="fill:#FFE182;" d="M206.379,468.86H84.744c-8.206,0-15.575-5.028-18.567-12.67L1.373,290.687
	c-1.831-4.674-1.831-9.866,0-14.54l64.805-165.503c2.992-7.642,10.361-12.67,18.567-12.67h121.635
	c8.206,0,15.575,5.028,18.567,12.67l64.805,165.503c1.831,4.674,1.831,9.866,0,14.54L224.946,456.19
	C221.954,463.832,214.585,468.86,206.379,468.86z M98.351,428.98h94.421l56.998-145.563l-56.998-145.563H98.351L41.354,283.417
	L98.351,428.98z"/>
<g>
</g>
<g>
</g>
<g>
</g>
<g>
</g>
<g>
</g>
<g>
</g>
<g>
</g>
<g>
</g>
<g>
</g>
<g>
</g>
<g>
</g>
<g>
</g>
<g>
</g>
<g>
</g>
<g>
</g>
</svg>
