<?xml version="1.0" encoding="iso-8859-1"?>
<!-- Generator: Adobe Illustrator 19.0.0, SVG Export Plug-In . SVG Version: 6.00 Build 0)  -->
<svg version="1.1" id="Capa_1" xmlns="http://www.w3.org/2000/svg" xmlns:xlink="http://www.w3.org/1999/xlink" x="0px" y="0px"
	 viewBox="0 0 512 512" style="enable-background:new 0 0 512 512;" xml:space="preserve">
<g>
	<path style="fill:#886A5E;" d="M23.167,63.154c0.919-10.932,10.48-19.047,21.416-18.177C75.728,47.454,139.3,57.471,192.204,97.52
		L51.022,217.351C20.103,158.642,20.55,94.287,23.167,63.154z"/>
	<path style="fill:#886A5E;" d="M488.834,63.154c-0.919-10.932-10.48-19.047-21.416-18.177
		c-31.145,2.477-94.717,12.494-147.622,52.543l141.182,119.832C491.897,158.642,491.451,94.287,488.834,63.154z"/>
</g>
<g>
	<path style="fill:#7A6154;" d="M479.499,170.136c-12.08-20.929-27.948-40.238-47.311-57.246
		c-19.89-17.472-42.503-31.625-66.964-42.175c-15.351,6.958-30.798,15.728-45.429,26.803l141.182,119.832
		C469.185,201.768,475.165,185.789,479.499,170.136z"/>
	<path style="fill:#7A6154;" d="M32.502,170.136c4.333,15.653,10.313,31.631,18.52,47.215L192.204,97.52
		c-14.631-11.076-30.078-19.845-45.429-26.803c-24.46,10.55-47.073,24.703-66.964,42.175
		C60.45,129.898,44.582,149.208,32.502,170.136z"/>
</g>
<g>
	<path style="fill:#FABED5;" d="M457.705,90.329c-0.098-6.199-5.64-10.903-11.773-9.993c-22.897,3.399-52.767,10.52-81.926,25.371
		l81.979,69.581C455.9,144.103,458.072,113.474,457.705,90.329z"/>
	<path style="fill:#FABED5;" d="M54.296,90.329c0.098-6.199,5.64-10.903,11.773-9.993c22.897,3.399,52.767,10.52,81.926,25.371
		l-81.979,69.581C56.101,144.103,53.929,113.474,54.296,90.329z"/>
</g>
<g>
	<path style="fill:#E6A8BF;" d="M454.915,135.74c-6.937-7.993-14.51-15.632-22.726-22.85c-9.439-8.292-19.499-15.826-30.07-22.596
		c-12.409,3.877-25.329,8.901-38.113,15.412l81.979,69.582C450.269,161.814,453.102,148.447,454.915,135.74z"/>
	<path style="fill:#E6A8BF;" d="M57.086,135.739c1.813,12.708,4.646,26.075,8.93,39.549l81.979-69.582
		c-12.784-6.511-25.704-11.535-38.113-15.412c-10.57,6.77-20.63,14.304-30.07,22.596C71.596,120.107,64.024,127.747,57.086,135.739z
		"/>
</g>
<ellipse style="fill:#886A5E;" cx="255.999" cy="272.809" rx="221.169" ry="194.279"/>
<path style="fill:#7A6154;" d="M74.832,272.807c0-101.374,88.394-184.601,201.168-193.482c-6.589-0.519-13.257-0.799-20-0.799
	c-122.147,0-221.168,86.982-221.168,194.281S133.852,467.087,256,467.087c6.743,0,13.411-0.28,20-0.799
	C163.226,457.408,74.832,374.182,74.832,272.807z"/>
<g>
	<path style="fill:#3B484A;" d="M159.093,280.605c-4.142,0-7.5-3.358-7.5-7.5v-17.539c0-4.142,3.358-7.5,7.5-7.5s7.5,3.358,7.5,7.5
		v17.539C166.593,277.247,163.235,280.605,159.093,280.605z"/>
	<path style="fill:#3B484A;" d="M352.908,280.605c-4.142,0-7.5-3.358-7.5-7.5v-17.539c0-4.142,3.358-7.5,7.5-7.5
		c4.142,0,7.5,3.358,7.5,7.5v17.539C360.408,277.247,357.05,280.605,352.908,280.605z"/>
</g>
<path style="fill:#F0F0F0;" d="M256.001,249.746c-55.284,0-108.355,56.231-108.355,109.934c0,26.852,27.089,42.016,54.178,50.466
	c35.238,10.993,73.117,10.993,108.355,0c27.089-8.45,54.178-23.614,54.178-50.466C364.355,305.976,311.283,249.746,256.001,249.746z
	"/>
<g>
	<path style="fill:#3B484A;" d="M293.148,278.163c-3.119-2.726-7.856-2.408-10.583,0.711c-2.534,2.899-6.346,4.562-10.458,4.562
		s-7.925-1.663-10.458-4.562c-0.024-0.027-0.051-0.05-0.075-0.078c-0.087-0.097-0.181-0.19-0.274-0.283
		c-0.094-0.094-0.187-0.188-0.285-0.275c-0.027-0.024-0.05-0.051-0.077-0.075c-0.056-0.048-0.115-0.089-0.172-0.136
		c-0.114-0.094-0.229-0.188-0.348-0.274c-0.085-0.063-0.173-0.12-0.26-0.178c-0.118-0.079-0.237-0.157-0.358-0.229
		c-0.098-0.058-0.198-0.11-0.299-0.164c-0.114-0.06-0.227-0.119-0.343-0.173c-0.113-0.052-0.227-0.1-0.341-0.146
		c-0.108-0.043-0.216-0.087-0.326-0.125c-0.124-0.043-0.248-0.082-0.374-0.118c-0.105-0.031-0.21-0.061-0.316-0.087
		c-0.129-0.032-0.259-0.059-0.389-0.083c-0.107-0.021-0.214-0.041-0.322-0.056c-0.128-0.019-0.255-0.032-0.383-0.044
		c-0.113-0.01-0.226-0.02-0.34-0.026c-0.123-0.006-0.245-0.007-0.367-0.007c-0.12,0-0.24,0.001-0.361,0.007
		c-0.115,0.006-0.23,0.016-0.345,0.026c-0.127,0.012-0.253,0.025-0.378,0.043c-0.11,0.016-0.219,0.037-0.328,0.057
		c-0.128,0.024-0.256,0.051-0.383,0.082c-0.108,0.026-0.214,0.057-0.32,0.088c-0.124,0.037-0.248,0.074-0.371,0.118
		c-0.11,0.038-0.218,0.082-0.326,0.125c-0.115,0.046-0.229,0.093-0.341,0.146c-0.116,0.054-0.229,0.113-0.343,0.173
		c-0.101,0.053-0.201,0.106-0.3,0.165c-0.121,0.071-0.238,0.148-0.355,0.226c-0.089,0.059-0.177,0.117-0.264,0.181
		c-0.117,0.085-0.23,0.178-0.344,0.271c-0.058,0.047-0.118,0.088-0.175,0.138c-0.028,0.024-0.051,0.052-0.078,0.076
		c-0.096,0.087-0.189,0.18-0.282,0.272c-0.094,0.094-0.188,0.188-0.276,0.285c-0.024,0.027-0.051,0.05-0.075,0.077
		c-2.534,2.899-6.346,4.562-10.458,4.562s-7.925-1.663-10.458-4.562c-2.726-3.119-7.464-3.437-10.583-0.711
		c-3.119,2.726-3.437,7.464-0.711,10.583c5.383,6.158,13.311,9.689,21.752,9.689c5.839,0,11.43-1.692,16.105-4.771
		c4.675,3.079,10.267,4.771,16.105,4.771c8.441,0,16.37-3.532,21.752-9.689C296.585,285.626,296.266,280.889,293.148,278.163z"/>
	<path style="fill:#3B484A;" d="M72.139,298.436c-1.082,0-2.179-0.235-3.221-0.731l0,0c-0.341-0.162-34.377-16.197-57.457-13.348
		c-4.119,0.507-7.855-2.414-8.362-6.525c-0.508-4.111,2.414-7.855,6.524-8.362c27.442-3.388,64.199,13.955,65.75,14.695
		c3.739,1.783,5.324,6.26,3.54,9.998C77.627,296.859,74.94,298.436,72.139,298.436z"/>
	<path style="fill:#3B484A;" d="M16.686,377.681c-2.106,0-4.2-0.882-5.683-2.602c-2.705-3.137-2.355-7.873,0.781-10.578
		c20.941-18.061,61.137-24.051,62.838-24.298c4.094-0.593,7.903,2.249,8.497,6.349c0.593,4.099-2.249,7.904-6.349,8.497
		c-0.561,0.083-37.624,5.66-55.19,20.811C20.164,377.082,18.421,377.68,16.686,377.681z"/>
	<path style="fill:#3B484A;" d="M7.507,331.987c-2.725,0-5.353-1.49-6.681-4.082c-1.888-3.687-0.431-8.206,3.256-10.095
		c24.612-12.608,65.086-8.942,66.798-8.78c4.124,0.391,7.149,4.051,6.758,8.175c-0.391,4.122-4.043,7.149-8.171,6.759l0,0
		c-0.375-0.035-37.847-3.407-58.546,7.197C9.827,331.721,8.658,331.987,7.507,331.987z"/>
	<path style="fill:#3B484A;" d="M439.862,298.436c-2.801,0-5.488-1.576-6.774-4.272c-1.784-3.739-0.199-8.215,3.54-9.998
		c1.551-0.74,38.309-18.084,65.75-14.695c4.111,0.508,7.032,4.251,6.524,8.362c-0.508,4.111-4.254,7.032-8.362,6.525
		c-9.392-1.16-22.255,0.751-37.194,5.526c-11.583,3.702-20.174,7.78-20.259,7.82C442.044,298.2,440.945,298.436,439.862,298.436z"/>
	<path style="fill:#3B484A;" d="M495.314,377.681c-1.735,0-3.478-0.599-4.895-1.821c-17.611-15.19-54.82-20.757-55.193-20.812
		c-4.098-0.597-6.938-4.402-6.343-8.5c0.595-4.098,4.398-6.938,8.495-6.345c1.701,0.246,41.897,6.237,62.838,24.298
		c3.137,2.705,3.486,7.441,0.781,10.578C499.514,376.799,497.42,377.681,495.314,377.681z"/>
	<path style="fill:#3B484A;" d="M504.493,331.987c-1.151,0-2.319-0.266-3.414-0.826c-20.699-10.604-58.169-7.232-58.546-7.197
		c-4.117,0.387-7.781-2.64-8.169-6.763c-0.389-4.122,2.635-7.78,6.757-8.171c1.711-0.162,42.186-3.828,66.797,8.78
		c3.687,1.889,5.144,6.408,3.256,10.095C509.846,330.497,507.217,331.987,504.493,331.987z"/>
</g>
<g>
</g>
<g>
</g>
<g>
</g>
<g>
</g>
<g>
</g>
<g>
</g>
<g>
</g>
<g>
</g>
<g>
</g>
<g>
</g>
<g>
</g>
<g>
</g>
<g>
</g>
<g>
</g>
<g>
</g>
</svg>
