<?xml version="1.0" encoding="iso-8859-1"?>
<!-- Generator: Adobe Illustrator 19.0.0, SVG Export Plug-In . SVG Version: 6.00 Build 0)  -->
<svg version="1.1" id="Capa_1" xmlns="http://www.w3.org/2000/svg" xmlns:xlink="http://www.w3.org/1999/xlink" x="0px" y="0px"
	 viewBox="0 0 512 512" style="enable-background:new 0 0 512 512;" xml:space="preserve">
<rect x="241.98" y="36.993" style="fill:#FCDBEA;" width="37.488" height="96.373"/>
<path style="fill:#FABED5;" d="M304.271,113.377h-87.102c-11.928,0-21.598,9.67-21.598,21.598v22.171l65.149,26.957l65.149-26.957
	v-22.171C325.869,123.046,316.199,113.377,304.271,113.377z"/>
<path style="fill:#E6A8BF;" d="M236.779,157.145v-22.171c0-11.928,9.669-21.598,21.598-21.598H217.17
	c-11.928,0-21.598,9.669-21.598,21.598v22.171l65.149,26.957l20.604-8.525L236.779,157.145z"/>
<path style="fill:#FCDBEA;" d="M147.913,21.08c-28.081,0-51.419,20.692-55.571,47.628c-0.696,4.52,2.813,8.598,7.386,8.598h17.209
	c3.475,0,6.444-2.409,7.268-5.784c2.604-10.672,12.246-18.616,23.708-18.616h67.293V21.08H147.913z"/>
<polygon style="fill:#FABED5;" points="260.721,216.026 101.694,250.938 101.694,460.473 260.721,486.236 419.747,460.473 
	419.747,250.938 "/>
<polygon style="fill:#E6A8BF;" points="142.901,460.472 142.901,250.938 281.324,220.549 260.721,216.026 101.694,250.938 
	101.694,460.472 260.721,486.236 281.324,482.898 "/>
<path style="fill:#FCDBEA;" d="M419.747,250.938H101.694c0-71.705,93.877-93.793,93.877-93.793h130.297
	C325.869,157.145,419.747,179.233,419.747,250.938z"/>
<path style="fill:#FABED5;" d="M236.779,157.145h-41.207c0,0-93.877,22.088-93.877,93.793h41.207
	C142.901,179.233,236.779,157.145,236.779,157.145z"/>
<path style="fill:#FCDBEA;" d="M419.747,460.473v16.136c0,19.542-15.839,35.391-35.391,35.391H137.085
	c-19.552,0-35.391-15.849-35.391-35.391v-16.136H419.747z"/>
<path style="fill:#FABED5;" d="M142.901,476.609v-16.137h-41.207v16.137c0,19.542,15.839,35.391,35.391,35.391h41.207
	C158.74,512,142.901,496.151,142.901,476.609z"/>
<g>
	
		<ellipse transform="matrix(-0.2975 -0.9547 0.9547 -0.2975 -70.0879 619.793)" style="fill:#F0F0F0;" cx="192.981" cy="335.682" rx="20.768" ry="15.597"/>
	
		<ellipse transform="matrix(-0.1548 -0.9879 0.9879 -0.1548 -37.8439 587.2906)" style="fill:#F0F0F0;" cx="232.297" cy="309.833" rx="22.512" ry="16.905"/>
	
		<ellipse transform="matrix(-0.2975 0.9547 -0.9547 -0.2975 746.6932 121.9777)" style="fill:#F0F0F0;" cx="328.47" cy="335.702" rx="20.768" ry="15.597"/>
	
		<ellipse transform="matrix(-0.1548 0.9879 -0.9879 -0.1548 639.9858 72.0647)" style="fill:#F0F0F0;" cx="289.167" cy="309.793" rx="22.512" ry="16.905"/>
	<path style="fill:#F0F0F0;" d="M309.528,358.486c-23.181,0-22.025-22.736-48.807-22.736c-26.782,0-25.626,22.736-48.807,22.736
		c-18.052,0-38.285,30.058-21.81,57.418s43.064,8.477,70.617,8.477s54.142,18.882,70.617-8.477
		C347.812,388.544,327.579,358.486,309.528,358.486z"/>
</g>
<path style="fill:#E6A8BF;" d="M215.206,52.906V21.08h-61.897c-0.121,1.506-0.2,3.024-0.2,4.561v27.266H215.206z"/>
<path style="fill:#FABED5;" d="M311.787,0H209.655c-14.161,0-25.64,11.479-25.64,25.64v40.703h153.413V25.64
	C337.427,11.479,325.948,0,311.787,0z"/>
<g>
</g>
<g>
</g>
<g>
</g>
<g>
</g>
<g>
</g>
<g>
</g>
<g>
</g>
<g>
</g>
<g>
</g>
<g>
</g>
<g>
</g>
<g>
</g>
<g>
</g>
<g>
</g>
<g>
</g>
</svg>
