<?xml version="1.0" encoding="iso-8859-1"?>
<!-- Generator: Adobe Illustrator 19.0.0, SVG Export Plug-In . SVG Version: 6.00 Build 0)  -->
<svg version="1.1" id="Capa_1" xmlns="http://www.w3.org/2000/svg" xmlns:xlink="http://www.w3.org/1999/xlink" x="0px" y="0px"
	 viewBox="0 0 512 512" style="enable-background:new 0 0 512 512;" xml:space="preserve">
<g>
	<path style="fill:#CBFDFF;" d="M139.56,76.995H88.721L62.557,95.241l26.165,10.293h50.837c7.881,0,14.269-6.389,14.269-14.27
		C153.829,83.383,147.441,76.995,139.56,76.995z"/>
	<path style="fill:#CBFDFF;" d="M139.56,406.467H88.721l-23.429,14.269l23.429,14.27h50.837c7.881,0,14.269-6.389,14.269-14.27
		C153.829,412.855,147.441,406.467,139.56,406.467z"/>
	<path style="fill:#CBFDFF;" d="M139.56,131.906H57.772v28.539h81.788c7.881,0,14.269-6.389,14.269-14.27
		C153.829,138.295,147.441,131.906,139.56,131.906z"/>
	<path style="fill:#CBFDFF;" d="M139.56,186.818H57.772v28.539h81.788c7.881,0,14.269-6.389,14.269-14.27
		C153.829,193.207,147.441,186.818,139.56,186.818z"/>
	<path style="fill:#CBFDFF;" d="M139.56,241.731H57.772v28.539h81.788c7.881,0,14.269-6.389,14.269-14.27
		C153.829,248.119,147.441,241.731,139.56,241.731z"/>
	<path style="fill:#CBFDFF;" d="M139.56,296.643H57.772v28.539h81.788c7.881,0,14.269-6.389,14.269-14.27
		C153.829,303.031,147.441,296.643,139.56,296.643z"/>
	<path style="fill:#CBFDFF;" d="M139.56,351.554H57.772v28.539h81.788c7.881,0,14.269-6.389,14.269-14.27
		C153.829,357.944,147.441,351.554,139.56,351.554z"/>
</g>
<path style="fill:#BCBCBC;" d="M262.249,301.081l123.883-198.213c16.109-25.774,50.063-33.61,75.837-17.501l0,0L308.951,330.196
	l-19.741-24.269L262.249,301.081z"/>
<path style="fill:#E3E3E3;" d="M432.229,301.081L308.346,102.868c-16.109-25.774-50.063-33.61-75.837-17.501l0,0l153.018,244.829
	l19.741-24.269L432.229,301.081z"/>
<path style="fill:#A6A6A6;" d="M289.97,256.727l-27.721,44.353l26.961,4.846l19.741,24.269l27.653-44.245
	C324.017,272.497,308.006,262.286,289.97,256.727z"/>
<path style="fill:#FC7C81;" d="M258.525,282.912c-41.999,0-76.047,34.047-76.047,76.047s34.048,76.047,76.047,76.047
	s76.047-34.047,76.047-76.047S300.524,282.912,258.525,282.912z M258.525,398.984c-22.105,0-40.025-17.92-40.025-40.025
	c0-22.105,17.92-40.025,40.025-40.025c22.105,0,40.025,17.92,40.025,40.025C298.55,381.064,280.63,398.984,258.525,398.984z"/>
<circle style="fill:#BCBCBC;" cx="347.243" cy="215.37" r="8.005"/>
<path style="fill:#7EDEE6;" d="M53.111,76.995C23.779,76.995,0,100.772,0,130.105v251.79c0,29.332,23.779,53.111,53.111,53.111
	h35.61V76.995H53.111z"/>
<path style="fill:#77CCD9;" d="M30.905,381.895V130.105c0-29.332,23.779-53.111,53.111-53.111H53.111
	C23.779,76.994,0,100.772,0,130.105v251.791c0,29.332,23.779,53.111,53.111,53.111h30.905
	C54.684,435.006,30.905,411.228,30.905,381.895z"/>
<path style="fill:#BCBCBC;" d="M385.527,330.196l19.741-24.269l26.961-4.846l-27.721-44.353
	c-18.034,5.559-34.046,15.77-46.634,29.224L385.527,330.196z"/>
<path style="fill:#FC7C81;" d="M435.953,282.912c-41.999,0-76.047,34.047-76.047,76.047s34.047,76.047,76.047,76.047
	S512,400.959,512,358.959S477.953,282.912,435.953,282.912z M435.953,398.984c-22.105,0-40.025-17.92-40.025-40.025
	c0-22.105,17.92-40.025,40.025-40.025c22.105,0,40.025,17.92,40.025,40.025C475.978,381.064,458.059,398.984,435.953,398.984z"/>
<g>
</g>
<g>
</g>
<g>
</g>
<g>
</g>
<g>
</g>
<g>
</g>
<g>
</g>
<g>
</g>
<g>
</g>
<g>
</g>
<g>
</g>
<g>
</g>
<g>
</g>
<g>
</g>
<g>
</g>
</svg>
