<?xml version="1.0" encoding="iso-8859-1"?>
<!-- Generator: Adobe Illustrator 19.0.0, SVG Export Plug-In . SVG Version: 6.00 Build 0)  -->
<svg version="1.1" id="Capa_1" xmlns="http://www.w3.org/2000/svg" xmlns:xlink="http://www.w3.org/1999/xlink" x="0px" y="0px"
	 viewBox="0 0 512 512" style="enable-background:new 0 0 512 512;" xml:space="preserve">
<g>
	<path style="fill:#E3E3E3;" d="M165.001,297.413c-5.8,0-11.508-2.727-15.1-7.829c-5.866-8.332-3.867-19.84,4.464-25.706
		l84.751-59.672c6.722-4.733,10.734-12.466,10.734-20.686v-74.001c0-9.127-4.942-17.576-12.896-22.051l-28.302-15.919
		c-8.88-4.995-12.029-16.244-7.035-25.124c4.995-8.879,16.243-12.029,25.124-7.035l28.302,15.919
		c19.556,11,31.704,31.772,31.704,54.21v74.001c0,20.209-9.866,39.221-26.39,50.856l-84.751,59.671
		C172.378,296.32,168.671,297.413,165.001,297.413z"/>
	<path style="fill:#E3E3E3;" d="M121.747,297.413c-3.671,0-7.376-1.092-10.605-3.367l-84.751-59.671
		C9.865,222.741,0,203.729,0,183.52v-74.001c0-22.437,12.148-43.21,31.704-54.21l28.302-15.919
		c8.882-4.996,20.129-1.845,25.124,7.035s1.846,20.129-7.035,25.124L49.794,87.466c-7.954,4.475-12.896,12.924-12.896,22.051v74.001
		c0,8.221,4.013,15.953,10.734,20.686l84.751,59.672c8.331,5.865,10.33,17.374,4.464,25.706
		C133.255,294.685,127.546,297.413,121.747,297.413z"/>
</g>
<path style="fill:#7EDEE6;" d="M352.299,486.643H222.251c-52.213,0-94.69-42.477-94.69-94.69V280.017
	c0-8.733,7.08-15.813,15.813-15.813s15.813,7.08,15.813,15.813v111.936c0,34.774,28.291,63.064,63.064,63.064h130.048
	c34.774,0,63.064-28.29,63.064-63.064V233.631c0-8.733,7.08-15.813,15.813-15.813c8.734,0,15.813,7.08,15.813,15.813v158.322
	C446.989,444.166,404.512,486.643,352.299,486.643z"/>
<g>
	<path style="fill:#FC7C81;" d="M204.557,25.357h14.769c4.971,0,9.001,4.03,9.001,9.001v43.247c0,4.971-4.03,9.001-9.001,9.001
		h-14.769c-7.88,0-14.268-6.388-14.268-14.268V39.624C190.289,31.744,196.677,25.357,204.557,25.357z"/>
	<path style="fill:#FC7C81;" d="M82.191,25.357H67.422c-4.971,0-9.001,4.03-9.001,9.001v43.247c0,4.971,4.03,9.001,9.001,9.001
		h14.769c7.88,0,14.268-6.388,14.268-14.268V39.624C96.459,31.744,90.071,25.357,82.191,25.357z"/>
</g>
<path style="fill:#77CCD9;" d="M143.374,353.09c5.43,0,10.718-0.614,15.813-1.742v-71.332c0-8.734-7.079-15.813-15.813-15.813
	s-15.813,7.08-15.813,15.813v71.332C132.656,352.476,137.943,353.09,143.374,353.09z"/>
<g>
	<path style="fill:#BCBCBC;" d="M198.862,232.548l-44.498,31.33c-8.331,5.865-10.33,17.374-4.464,25.706
		c3.593,5.103,9.302,7.829,15.1,7.829c3.669,0,7.376-1.093,10.605-3.367l39.518-27.823C212.689,253.529,206.96,242,198.862,232.548z
		"/>
	<path style="fill:#BCBCBC;" d="M132.383,263.878l-44.498-31.331c-8.098,9.452-13.827,20.982-16.262,33.676l39.518,27.824
		c3.229,2.275,6.935,3.367,10.605,3.367c5.799,0,11.508-2.728,15.1-7.829C142.713,281.252,140.714,269.743,132.383,263.878z"/>
</g>
<circle style="fill:#FC7C81;" cx="143.37" cy="280.014" r="42.168"/>
<path style="fill:#77CCD9;" d="M431.176,217.817c-8.734,0-15.813,7.08-15.813,15.813v76.87c5.167,0.736,10.446,1.124,15.813,1.124
	c5.367,0,10.645-0.388,15.813-1.124v-76.87C446.989,224.898,439.91,217.817,431.176,217.817z"/>
<circle style="fill:#BCBCBC;" cx="431.172" cy="199.896" r="80.828"/>
<circle style="fill:#E3E3E3;" cx="431.172" cy="199.896" r="53.185"/>
<g>
	<path style="fill:#3B484A;" d="M401.589,208.87c-4.268,0-7.726-3.459-7.726-7.726v-5.355c0-4.267,3.458-7.726,7.726-7.726
		c4.268,0,7.726,3.459,7.726,7.726v5.355C409.316,205.411,405.857,208.87,401.589,208.87z"/>
	<path style="fill:#3B484A;" d="M460.764,208.87c-4.268,0-7.726-3.459-7.726-7.726v-5.355c0-4.267,3.458-7.726,7.726-7.726
		s7.726,3.459,7.726,7.726v5.355C468.49,205.411,465.031,208.87,460.764,208.87z"/>
	<path style="fill:#3B484A;" d="M431.177,211.729c-5.078,0-9.859-2.141-13.12-5.873c-2.808-3.213-2.479-8.094,0.735-10.902
		c3.212-2.807,8.094-2.48,10.901,0.735c0.121,0.138,0.584,0.588,1.485,0.588c0.899,0,1.363-0.45,1.483-0.588
		c2.808-3.213,7.689-3.542,10.901-0.735c3.213,2.807,3.542,7.689,0.735,10.902C441.035,209.588,436.254,211.729,431.177,211.729z"/>
</g>
<g>
</g>
<g>
</g>
<g>
</g>
<g>
</g>
<g>
</g>
<g>
</g>
<g>
</g>
<g>
</g>
<g>
</g>
<g>
</g>
<g>
</g>
<g>
</g>
<g>
</g>
<g>
</g>
<g>
</g>
</svg>
