<?xml version="1.0" encoding="iso-8859-1"?>
<!-- Generator: Adobe Illustrator 19.0.0, SVG Export Plug-In . SVG Version: 6.00 Build 0)  -->
<svg version="1.1" id="Capa_1" xmlns="http://www.w3.org/2000/svg" xmlns:xlink="http://www.w3.org/1999/xlink" x="0px" y="0px"
	 viewBox="0 0 512 512" style="enable-background:new 0 0 512 512;" xml:space="preserve">
<circle style="fill:#FAA330;" cx="89.646" cy="150.354" r="89.646"/>
<path style="fill:#D99337;" d="M29.915,217.196c15.857,14.18,36.786,22.806,59.733,22.806c49.51,0,89.647-40.137,89.647-89.647
	c0-29.927-14.668-56.424-37.202-72.707c-40.086,22.247-72.771,55.921-94.801,97.803C40.237,188.862,34.44,202.83,29.915,217.196z"/>
<circle style="fill:#FABED5;" cx="89.646" cy="150.354" r="45.186"/>
<path style="fill:#E6A8BF;" d="M134.833,150.354c0-21.004-14.333-38.658-33.75-43.723c-20.485,18.089-37.89,39.846-51.512,64.589
	c7.539,14.449,22.651,24.319,40.076,24.319C114.604,195.54,134.833,175.309,134.833,150.354z"/>
<circle style="fill:#FAA330;" cx="422.354" cy="150.354" r="89.646"/>
<path style="fill:#D99337;" d="M482.085,217.196c-15.857,14.18-36.786,22.806-59.733,22.806c-49.51,0-89.647-40.137-89.647-89.647
	c0-29.927,14.668-56.424,37.202-72.707c40.086,22.247,72.771,55.921,94.801,97.803C471.763,188.862,477.56,202.83,482.085,217.196z"
	/>
<circle style="fill:#FABED5;" cx="422.354" cy="150.354" r="45.186"/>
<path style="fill:#F0F0F0;" d="M349.309,101.665C321.776,87.501,290.272,79.457,256,79.457s-65.776,8.045-93.309,22.208
	L50.078,317.484c1.517,15.568,4.612,31.33,9.408,47.071c34.121,112.002,131.348,83.493,196.513,83.493
	s162.394,28.509,196.513-83.493c4.796-15.741,7.891-31.503,9.409-47.071L349.309,101.665z"/>
<path style="fill:#E6A8BF;" d="M377.166,150.354c0-21.004,14.333-38.658,33.75-43.723c20.485,18.089,37.89,39.846,51.512,64.589
	c-7.539,14.449-22.651,24.319-40.076,24.319C397.396,195.54,377.166,175.309,377.166,150.354z"/>
<path id="SVGCleanerId_0" style="fill:#FAA330;" d="M210.863,201.978c0,68.607-52.6,124.221-117.481,124.221
	c-15.293,0-29.905-3.085-43.305-8.715c-8.898-91.588,36.87-176.863,112.614-215.819
	C191.894,124.268,210.863,160.782,210.863,201.978z"/>
<g>
	<path style="fill:#D9D9D9;" d="M61.432,370.57c5.692,16.71,13.927,33.004,25.806,46.196c0.112,0.125,0.226,0.242,0.338,0.366
		c12.004,13.249,28.063,22.862,45.261,27.98c17.612,5.242,36.175,6.408,54.458,6.143c5.985,0,11.988-0.323,17.963-0.641
		c-43.708-3.389-84.763-21.061-104.564-86.06c-4.795-15.741-7.891-31.503-9.408-47.072c-3.801-39.125,2.381-77.096,16.608-110.798
		L50.08,317.483c1.517,15.568,4.612,31.33,9.408,47.071c0.482,1.582,0.981,3.128,1.488,4.653
		C61.125,369.662,61.277,370.117,61.432,370.57z"/>
	<path style="fill:#D9D9D9;" d="M203.899,101.665L203.899,101.665c21.918-11.275,46.36-18.655,72.705-21.203
		c-1.447-0.14-2.903-0.259-4.361-0.371c-0.455-0.034-0.911-0.069-1.368-0.101c-1.237-0.088-2.48-0.163-3.724-0.229
		c-0.87-0.044-1.744-0.081-2.619-0.115c-0.933-0.038-1.867-0.078-2.804-0.104c-1.902-0.05-3.809-0.084-5.727-0.084
		c-34.273,0-65.776,8.045-93.309,22.208l-38.277,73.357C143.964,144.058,171.121,118.523,203.899,101.665z"/>
</g>
<g>
	<path id="SVGCleanerId_0_1_" style="fill:#FAA330;" d="M210.863,201.978c0,68.607-52.6,124.221-117.481,124.221
		c-15.293,0-29.905-3.085-43.305-8.715c-8.898-91.588,36.87-176.863,112.614-215.819
		C191.894,124.268,210.863,160.782,210.863,201.978z"/>
</g>
<path style="fill:#D99337;" d="M50.078,317.483L50.078,317.483c13.086,5.499,27.332,8.563,42.236,8.703
	c-0.391-2.906-0.747-5.808-1.029-8.702l0,0l0,0c-7.875-81.043,27.061-157.137,87.688-200.576c-4.97-5.589-10.415-10.7-16.282-15.242
	c-36.543,18.795-66.106,48.372-85.921,84.237c-0.128,0.231-0.255,0.46-0.382,0.691c-8.062,14.717-14.481,30.484-19.078,46.992
	c-0.467,1.675-0.921,3.354-1.35,5.044c-4.678,18.443-7.09,37.757-6.979,57.523C49.021,303.21,49.383,310.327,50.078,317.483z"/>
<path style="fill:#FAA330;" d="M461.922,317.483c-13.4,5.631-28.011,8.715-43.305,8.715c-64.88,0-117.481-55.614-117.481-124.221
	c0-41.197,18.969-77.71,48.171-100.314C425.053,140.621,470.821,225.895,461.922,317.483z"/>
<g>
	<path style="fill:#3B484A;" d="M239.602,300.562c-8.621,0-16.719-3.608-22.216-9.897c-2.809-3.213-2.481-8.094,0.732-10.902
		c3.211-2.808,8.092-2.481,10.901,0.732c2.563,2.932,6.42,4.614,10.582,4.614c4.161,0,8.018-1.681,10.581-4.614
		c2.807-3.213,7.689-3.541,10.902-0.732c3.212,2.808,3.541,7.689,0.731,10.902C256.319,296.954,248.222,300.562,239.602,300.562z"/>
	<path style="fill:#3B484A;" d="M272.398,300.562c-8.621,0-16.718-3.607-22.215-9.897c-2.809-3.213-2.481-8.094,0.731-10.902
		c3.213-2.808,8.095-2.481,10.902,0.732c2.563,2.932,6.42,4.614,10.581,4.614c4.161,0,8.018-1.681,10.581-4.614
		c2.808-3.213,7.689-3.541,10.901-0.732c3.213,2.808,3.542,7.689,0.732,10.902C289.116,296.954,281.019,300.562,272.398,300.562z"/>
	<path style="fill:#3B484A;" d="M270.805,251.328h-29.608c-5.881,0-7.529,8.056-2.126,10.383c5.147,2.217,10.883,3.455,16.931,3.455
		c6.048,0,11.784-1.237,16.931-3.455C278.332,259.384,276.686,251.328,270.805,251.328z"/>
	<path style="fill:#3B484A;" d="M159.949,281.188c-4.268,0-7.726-3.459-7.726-7.726v-17.383c0-4.267,3.458-7.726,7.726-7.726
		c4.268,0,7.726,3.459,7.726,7.726v17.383C167.675,277.73,164.216,281.188,159.949,281.188z"/>
	<path style="fill:#3B484A;" d="M352.051,281.188c-4.268,0-7.726-3.459-7.726-7.726v-17.383c0-4.267,3.458-7.726,7.726-7.726
		c4.268,0,7.726,3.459,7.726,7.726v17.383C359.777,277.73,356.318,281.188,352.051,281.188z"/>
</g>
<g>
</g>
<g>
</g>
<g>
</g>
<g>
</g>
<g>
</g>
<g>
</g>
<g>
</g>
<g>
</g>
<g>
</g>
<g>
</g>
<g>
</g>
<g>
</g>
<g>
</g>
<g>
</g>
<g>
</g>
</svg>
