<?xml version="1.0" encoding="iso-8859-1"?>
<!-- Generator: Adobe Illustrator 19.0.0, SVG Export Plug-In . SVG Version: 6.00 Build 0)  -->
<svg version="1.1" id="Capa_1" xmlns="http://www.w3.org/2000/svg" xmlns:xlink="http://www.w3.org/1999/xlink" x="0px" y="0px"
	 viewBox="0 0 512 512" style="enable-background:new 0 0 512 512;" xml:space="preserve">
<path style="fill:#77CCD9;" d="M256,128.62c117.332,0,216.222,51.187,246.474,121c6.202-14.311,9.526-29.403,9.526-45
	c0-91.679-114.615-166-256-166S0,112.94,0,204.619c0,15.597,3.324,30.689,9.526,45C39.778,179.806,138.668,128.62,256,128.62z"/>
<path style="fill:#7EDEE6;" d="M512,204.619c0-15.597-3.324-30.689-9.526-45c-16.792,38.749-54.736,71.754-105.235,93.459
	l-13.573,48.874l26.302,35.291l0,0C471.935,306.947,512,258.819,512,204.619z"/>
<path style="fill:#CBFDFF;" d="M256,370.619c57.799,0,111.118-12.426,153.968-33.376l-0.133-0.333
	c11.421-15.471,15.202-36.155,8.292-55.644c-4.154-11.714-11.579-21.331-20.886-28.186l-0.003-0.002
	c-40.483,17.4-89.031,27.541-141.239,27.541c-117.332,0-216.222-51.187-246.474-121C3.324,173.931,0,189.023,0,204.619
	C0,296.299,114.615,370.619,256,370.619z"/>
<path style="fill:#FC7C81;" d="M348.706,377.186l-32.971-51.957c-5.284-8.326-14.46-13.371-24.32-13.371h-70.828
	c-9.861,0-19.038,5.045-24.322,13.371l-32.971,51.957c-5.978,9.421-5.978,21.446,0,30.867l32.971,51.957
	c5.284,8.326,14.46,13.371,24.322,13.371h70.828c9.861,0,19.038-5.045,24.32-13.371l32.971-51.957
	C354.684,398.632,354.684,386.607,348.706,377.186z"/>
<polygon style="fill:#FFE182;" points="221.243,443.381 189.031,392.619 221.243,341.858 290.757,341.858 322.97,392.619 
	290.757,443.381 "/>
<polygon style="fill:#FFBA4D;" points="252.148,341.858 221.243,341.858 189.031,392.62 221.243,443.381 252.148,443.381 
	219.936,392.62 "/>
<g>
</g>
<g>
</g>
<g>
</g>
<g>
</g>
<g>
</g>
<g>
</g>
<g>
</g>
<g>
</g>
<g>
</g>
<g>
</g>
<g>
</g>
<g>
</g>
<g>
</g>
<g>
</g>
<g>
</g>
</svg>
