<?xml version="1.0" encoding="iso-8859-1"?>
<!-- Generator: Adobe Illustrator 19.0.0, SVG Export Plug-In . SVG Version: 6.00 Build 0)  -->
<svg version="1.1" id="Capa_1" xmlns="http://www.w3.org/2000/svg" xmlns:xlink="http://www.w3.org/1999/xlink" x="0px" y="0px"
	 viewBox="0 0 512.001 512.001" style="enable-background:new 0 0 512.001 512.001;" xml:space="preserve">
<path style="fill:#F0F0F0;" d="M416.647,95.354c5.545-25.261-1.481-52.728-21.127-72.373c-30.641-30.641-80.319-30.641-110.959,0
	c-29.379,29.379-30.57,76.249-3.61,107.069c-27.735,15.836-57.073,38.276-84.849,66.052s-50.216,57.114-66.052,84.849
	c-30.82-26.959-77.69-25.769-107.069,3.61c-30.641,30.641-30.641,80.319,0,110.96c19.645,19.645,47.111,26.672,72.373,21.127
	c-5.545,25.261,1.482,52.728,21.127,72.373c30.641,30.641,80.319,30.641,110.959,0c29.379-29.379,30.57-76.249,3.61-107.069
	c27.735-15.836,57.073-38.276,84.849-66.052c27.776-27.776,50.216-57.114,66.052-84.849c30.82,26.959,77.69,25.769,107.069-3.61
	c30.641-30.641,30.641-80.319,0-110.959C469.374,96.835,441.908,89.808,416.647,95.354z"/>
<path style="fill:#D9D9D9;" d="M147.386,447.813c-19.645-19.646-26.672-47.111-21.127-72.373
	c-25.261,5.545-52.728-1.481-72.373-21.127c-21.475-21.475-27.877-52.296-19.25-79.366c-4.11,2.773-8.018,5.976-11.655,9.615
	c-30.641,30.641-30.641,80.318,0,110.959c19.645,19.645,47.111,26.672,72.373,21.127c-5.545,25.261,1.482,52.728,21.127,72.373
	c30.641,30.641,80.319,30.641,110.96,0c9.177-9.178,15.603-20.062,19.281-31.63C216.204,478.009,174.4,474.826,147.386,447.813z"/>
<g>
	<path style="fill:#3B484A;" d="M206.983,317.062c-1.977,0-3.955-0.754-5.463-2.263l-9.262-9.262c-3.017-3.017-3.017-7.91,0-10.927
		c3.017-3.017,7.91-3.017,10.926,0l9.262,9.262c3.017,3.017,3.017,7.91,0,10.927C210.938,316.308,208.96,317.062,206.983,317.062z"
		/>
	<path style="fill:#3B484A;" d="M309.336,214.71c-1.977,0-3.955-0.754-5.463-2.263l-9.262-9.262c-3.017-3.017-3.017-7.91,0-10.927
		s7.91-3.017,10.926,0l9.262,9.262c3.017,3.017,3.017,7.91,0,10.927C313.291,213.954,311.314,214.71,309.336,214.71z"/>
	<path style="fill:#3B484A;" d="M246.376,277.923c-0.67,0-1.339-0.023-2.011-0.067c-4.258-0.286-7.477-3.969-7.191-8.227
		c0.285-4.258,3.961-7.477,8.227-7.191c4.421,0.298,8.891-1.451,12.238-4.797c3.346-3.346,5.094-7.807,4.798-12.239
		c-0.286-4.258,2.934-7.941,7.191-8.227c4.262-0.286,7.941,2.934,8.226,7.192c0.596,8.881-2.789,17.702-9.288,24.201
		C262.558,274.574,254.565,277.923,246.376,277.923z"/>
</g>
<g>
</g>
<g>
</g>
<g>
</g>
<g>
</g>
<g>
</g>
<g>
</g>
<g>
</g>
<g>
</g>
<g>
</g>
<g>
</g>
<g>
</g>
<g>
</g>
<g>
</g>
<g>
</g>
<g>
</g>
</svg>
