<?xml version="1.0" encoding="iso-8859-1"?>
<!-- Generator: Adobe Illustrator 19.0.0, SVG Export Plug-In . SVG Version: 6.00 Build 0)  -->
<svg version="1.1" id="Capa_1" xmlns="http://www.w3.org/2000/svg" xmlns:xlink="http://www.w3.org/1999/xlink" x="0px" y="0px"
	 viewBox="0 0 512 512" style="enable-background:new 0 0 512 512;" xml:space="preserve">
<path style="fill:#886A5E;" d="M502.808,154.787c0-45.431-31.184-82.259-69.651-82.259c-16.822,0-32.251,7.043-44.289,18.77
	c0.275-2.969,0.427-5.982,0.427-9.038c0-45.431-31.184-82.259-69.651-82.259c-28.393,0-52.8,20.075-63.646,48.853
	C245.155,20.075,220.748,0,192.355,0c-38.467,0-69.651,36.829-69.651,82.259c0,3.056,0.152,6.069,0.426,9.038
	c-12.038-11.726-27.467-18.77-44.289-18.77c-38.467,0-69.651,36.829-69.651,82.259C8.022,384.502,16.21,512,16.21,512h479.579
	C495.791,512,503.978,384.502,502.808,154.787z"/>
<path style="fill:#7A6154;" d="M40.098,154.787c0-39.171,23.19-71.924,54.236-80.212c-4.982-1.337-10.166-2.047-15.491-2.047
	c-38.467,0-69.651,36.829-69.651,82.259C8.022,384.502,16.21,512,16.21,512h30.905C47.116,512,38.928,384.502,40.098,154.787z"/>
<g>
	<ellipse style="fill:#FABED5;" cx="192.356" cy="95.642" rx="35.119" ry="46.77"/>
	<ellipse style="fill:#FABED5;" cx="77.975" cy="164.613" rx="35.119" ry="46.77"/>
	<ellipse style="fill:#FABED5;" cx="319.645" cy="95.642" rx="35.119" ry="46.77"/>
	<ellipse style="fill:#FABED5;" cx="434.026" cy="164.613" rx="35.119" ry="46.77"/>
	<path style="fill:#FABED5;" d="M363.594,244.73c-51.102,0-48.553-50.12-107.593-50.12s-56.491,50.12-107.593,50.12
		c-39.794,0-84.396,66.26-48.079,126.574s94.932,18.689,155.671,18.689s119.354,41.626,155.671-18.689
		C447.989,310.99,403.387,244.73,363.594,244.73z"/>
</g>
<g>
</g>
<g>
</g>
<g>
</g>
<g>
</g>
<g>
</g>
<g>
</g>
<g>
</g>
<g>
</g>
<g>
</g>
<g>
</g>
<g>
</g>
<g>
</g>
<g>
</g>
<g>
</g>
<g>
</g>
</svg>
